<?xml version="1.0" encoding="UTF-8"?>
<svg width="48px" height="48px" viewBox="0 0 48 48" version="1.1" xmlns="http://www.w3.org/2000/svg" xmlns:xlink="http://www.w3.org/1999/xlink">
    <title>Mask</title>
    <g id="Mask" stroke="none" stroke-width="1" fill="none" fill-rule="evenodd" stroke-linecap="round" stroke-linejoin="round">
        <g id="streamlinehq-vaccine-protection-face-mask-3-vaccine-protection-48" transform="translate(1.500000, 8.700000)" stroke-width="2">
            <path d="M12.5000001,12.254 C15.8080801,11.7038 19.1484001,11.3698 22.5000001,11.254" id="Path" stroke="#000000"></path>
            <path d="M12.5000001,20.504 C14.1308041,20.8103388 15.7731654,21.0470107 17.4225859,21.2135566" id="Path" stroke="#000000"></path>
            <path d="M38.5000001,11.5 C38.5000001,10.7222222 38.5000001,9.88888889 38.5000001,9 C38.5000001,9 28.7000001,0 22.5000001,0 C16.3000001,0 6.50000007,9 6.50000007,9 L6.50000007,27 C10.4530949,28.6604114 14.6471731,29.6478911 18.9089591,29.9298175" id="Path" stroke="#000000"></path>
            <path d="M32.5000001,12.254 C29.1920001,11.7038 25.8516001,11.3698 22.5000001,11.254" id="Path" stroke="#000000"></path>
            <path d="M6.5,26.9998 C4.51402007,25.7778 2.87402007,24.0676 1.73622007,22.032 C0.598400067,19.9966 0.000688066556,17.7038 0,15.3718 L0,7.1079 C-7.39334438e-05,6.8095 0.0615600666,6.51434 0.181030067,6.24092 C0.300500067,5.9675 0.475222067,5.72174 0.694220067,5.51908 C0.913220067,5.31642 1.17176007,5.16124 1.45362007,5.06328 C1.73546007,4.96534 2.03452007,4.92672 2.33200007,4.9499 C2.76150007,4.98318 3.17842007,5.11064 3.55312007,5.32322 C3.92780007,5.5358 4.25110007,5.82828 4.5,6.1799 L6.5,8.9999" id="Path" stroke="#000000"></path>
            <path d="M45.0000001,14 L45.0000001,7.1079 C45.0000001,6.8095 44.9384001,6.51434 44.8190001,6.24092 C44.6996001,5.9675 44.5248001,5.72174 44.3058001,5.51908 C44.0868001,5.31642 43.8282001,5.16124 43.5464001,5.06328 C43.2646001,4.96534 42.9654001,4.92672 42.6680001,4.9499 C42.2384001,4.98318 41.8216001,5.11064 41.4468001,5.32322 C41.0722001,5.5358 40.7490001,5.82828 40.5000001,6.1799 L38.5000001,8.9999" id="Path" stroke="#000000"></path>
            <path d="M44.0000258,22.627964 C44.0064,26.120764 42.8206,29.511364 40.6386,32.238764 C38.4566,34.966164 35.409,36.867364 32,37.627964 C28.591,36.867364 25.5434,34.966164 23.3614,32.238764 C21.1794,29.511364 19.9936,26.120764 19.9999742,22.627964 L19.9999742,18.127964 C19.9999742,17.332364 20.316,16.569164 20.8786,16.006564 C21.4412,15.443964 22.2044,15.127964 23,15.127964 L41,15.127964 C41.7956,15.127964 42.5588,15.443964 43.1214,16.006564 C43.684,16.569164 44.0000258,17.332364 44.0000258,18.127964 L44.0000258,22.627964 Z" id="Path" stroke="#30A8FB"></path>
            <line x1="32" y1="21.127964" x2="32" y2="30.127964" id="Path" stroke="#30A8FB"></line>
            <line x1="27.5" y1="25.627964" x2="36.5" y2="25.627964" id="Path" stroke="#30A8FB"></line>
        </g>
    </g>
</svg>