<?xml version="1.0" encoding="UTF-8"?>
<svg width="48px" height="48px" viewBox="0 0 48 48" version="1.1" xmlns="http://www.w3.org/2000/svg" xmlns:xlink="http://www.w3.org/1999/xlink">
    <title>PCRNegative</title>
    <g id="PCRNegative" stroke="none" stroke-width="1" fill="none" fill-rule="evenodd" stroke-linecap="round" stroke-linejoin="round">
        <g id="streamlinehq-covid-carrier-human-covid-carrier-48-copy" transform="translate(7.175000, 1.595000)" stroke="#000000" stroke-width="2">
            <path d="M11.538,16.413642 C9.98138,15.295002 8.81976,13.711382 8.2203,11.890642 C7.62086,10.069902 7.61448,8.105922 8.20208,6.281322 C8.7897,4.456722 9.941,2.865582 11.49032,1.736842 C13.03958,0.608122 14.90718,0 16.82398,0 C18.74098,0 20.60838,0.608122 22.15758,1.736842 C23.70698,2.865582 24.85838,4.456722 25.44598,6.281322 C26.03358,8.105922 26.02718,10.069902 25.42778,11.890642 C24.82818,13.711382 23.66658,15.295002 22.10998,16.413642 C25.46678,17.523962 28.38838,19.663822 30.45958,22.529222 C32.53078,25.394622 33.64658,28.840022 33.64798,32.375622 L33.64798,44.811622" id="Path"></path>
            <path d="M0,44.811622 L0,32.375622 C0.0015,28.840022 1.11712,25.394622 3.18838,22.529222 C5.25964,19.663822 8.1812,17.523962 11.538,16.413642" id="Path"></path>
        </g>
    </g>
</svg>