<?xml version="1.0" encoding="UTF-8"?>
<svg width="48px" height="48px" viewBox="0 0 48 48" version="1.1" xmlns="http://www.w3.org/2000/svg" xmlns:xlink="http://www.w3.org/1999/xlink">
    <title>PCRPositive</title>
    <g id="PCRPositive" stroke="none" stroke-width="1" fill="none" fill-rule="evenodd" stroke-linecap="round" stroke-linejoin="round">
        <g id="streamlinehq-covid-carrier-human-covid-carrier-48" transform="translate(7.180000, 1.600000)" stroke-width="2">
            <path d="M16.53798,39.661822 C20.03178,39.661822 22.86398,36.829622 22.86398,33.335822 C22.86398,29.842022 20.03178,27.009822 16.53798,27.009822 C13.04418,27.009822 10.21198,29.842022 10.21198,33.335822 C10.21198,36.829622 13.04418,39.661822 16.53798,39.661822 Z" id="Path" stroke="#FB5130"></path>
            <line x1="15.48398" y1="22.265822" x2="17.59198" y2="22.265822" id="Path" stroke="#FB5130"></line>
            <line x1="16.53798" y1="22.265822" x2="16.53798" y2="27.009822" id="Path" stroke="#FB5130"></line>
            <line x1="23.61998" y1="24.761822" x2="25.11198" y2="26.253822" id="Path" stroke="#FB5130"></line>
            <line x1="24.36598" y1="25.507822" x2="21.01198" y2="28.861822" id="Path" stroke="#FB5130"></line>
            <line x1="27.60798" y1="32.281822" x2="27.60798" y2="34.389822" id="Path" stroke="#FB5130"></line>
            <line x1="27.60798" y1="33.335822" x2="22.86398" y2="33.335822" id="Path" stroke="#FB5130"></line>
            <line x1="25.11198" y1="40.417822" x2="23.61998" y2="41.909822" id="Path" stroke="#FB5130"></line>
            <line x1="24.36598" y1="41.163822" x2="21.01198" y2="37.807822" id="Path" stroke="#FB5130"></line>
            <line x1="17.59198" y1="44.405822" x2="15.48398" y2="44.405822" id="Path" stroke="#FB5130"></line>
            <line x1="16.53798" y1="44.405822" x2="16.53798" y2="39.661822" id="Path" stroke="#FB5130"></line>
            <line x1="9.45598" y1="41.909822" x2="7.96598" y2="40.417822" id="Path" stroke="#FB5130"></line>
            <line x1="8.70996" y1="41.163822" x2="12.06596" y2="37.807822" id="Path" stroke="#FB5130"></line>
            <line x1="5.468" y1="34.389822" x2="5.468" y2="32.281822" id="Path" stroke="#FB5130"></line>
            <line x1="5.468" y1="33.335822" x2="10.212" y2="33.335822" id="Path" stroke="#FB5130"></line>
            <line x1="7.96598" y1="26.253822" x2="9.45598" y2="24.761822" id="Path" stroke="#FB5130"></line>
            <line x1="8.70996" y1="25.507822" x2="12.06596" y2="28.861822" id="Path" stroke="#FB5130"></line>
            <path d="M11.538,16.413642 C9.98138,15.295002 8.81976,13.711382 8.2203,11.890642 C7.62086,10.069902 7.61448,8.105922 8.20208,6.281322 C8.7897,4.456722 9.941,2.865582 11.49032,1.736842 C13.03958,0.608122 14.90718,0 16.82398,0 C18.74098,0 20.60838,0.608122 22.15758,1.736842 C23.70698,2.865582 24.85838,4.456722 25.44598,6.281322 C26.03358,8.105922 26.02718,10.069902 25.42778,11.890642 C24.82818,13.711382 23.66658,15.295002 22.10998,16.413642 C25.46678,17.523962 28.38838,19.663822 30.45958,22.529222 C32.53078,25.394622 33.64658,28.840022 33.64798,32.375622 L33.64798,44.811622" id="Path" stroke="#000000"></path>
            <path d="M0,44.811622 L0,32.375622 C0.0015,28.840022 1.11712,25.394622 3.18838,22.529222 C5.25964,19.663822 8.1812,17.523962 11.538,16.413642" id="Path" stroke="#000000"></path>
        </g>
    </g>
</svg>