<?xml version="1.0" encoding="UTF-8"?>
<svg width="48px" height="48px" viewBox="0 0 48 48" version="1.1" xmlns="http://www.w3.org/2000/svg" xmlns:xlink="http://www.w3.org/1999/xlink">
    <title>Vaccinated</title>
    <g id="Vaccinated" stroke="none" stroke-width="1" fill="none" fill-rule="evenodd" stroke-linecap="round" stroke-linejoin="round">
        <g id="streamlinehq-vaccine-protection-syringe-vaccine-protection-48" transform="translate(1.500000, 1.680000)" stroke-width="2">
            <path d="M32.746,16.373944 L23.114,6.741944 L6.74198,23.113964 C6.23124,23.624764 5.9443,24.317564 5.9443,25.039964 C5.9443,25.762364 6.23124,26.455164 6.74198,26.965964 L11.87798,32.113964 C12.15666,32.393364 12.48772,32.614964 12.85218,32.766164 C13.21666,32.917364 13.60738,32.995364 14.00198,32.995364 C14.3966,32.995364 14.78732,32.917364 15.15178,32.766164 C15.51626,32.614964 15.84732,32.393364 16.12598,32.113964 L16.12598,32.113964" id="Path" stroke="#000000"></path>
            <polygon id="Path" stroke="#000000" points="7.70392 27.930164 2.88852 32.745564 6.74084 36.597964 11.55624 31.782564"></polygon>
            <line x1="0" y1="39.487964" x2="4.816" y2="34.671964" id="Path" stroke="#000000"></line>
            <line x1="20.226" y1="3.854004" x2="23.114" y2="6.742004" id="Path" stroke="#000000"></line>
            <line x1="26.004" y1="9.631884" x2="32.746" y2="2.889884" id="Path" stroke="#000000"></line>
            <line x1="36.598" y1="6.741944" x2="29.856" y2="13.483944" id="Path" stroke="#000000"></line>
            <line x1="29.856" y1="0" x2="39.488" y2="9.632004" id="Path" stroke="#000000"></line>
            <path d="M45.0000258,29.627964 C45.0064,33.120764 43.8206,36.511364 41.6386,39.238764 C39.4566,41.966164 36.409,43.867364 33,44.627964 C29.591,43.867364 26.5434,41.966164 24.3614,39.238764 C22.1794,36.511364 20.9936,33.120764 20.9999742,29.627964 L20.9999742,25.127964 C20.9999742,24.332364 21.316,23.569164 21.8786,23.006564 C22.4412,22.443964 23.2044,22.127964 24,22.127964 L42,22.127964 C42.7956,22.127964 43.5588,22.443964 44.1214,23.006564 C44.684,23.569164 45.0000258,24.332364 45.0000258,25.127964 L45.0000258,29.627964 Z" id="Path" stroke="#30A8FB"></path>
            <line x1="33" y1="28.127964" x2="33" y2="37.127964" id="Path" stroke="#30A8FB"></line>
            <line x1="28.5" y1="32.627964" x2="37.5" y2="32.627964" id="Path" stroke="#30A8FB"></line>
        </g>
    </g>
</svg>