<svg enable-background="new 0 0 367 419" viewBox="0 0 367 419" xmlns="http://www.w3.org/2000/svg" xmlns:xlink="http://www.w3.org/1999/xlink"><mask id="a" height="53.8" maskUnits="userSpaceOnUse" width="93.4" x="0" y=".3"><path clip-rule="evenodd" d="m0 .3h93.4v53.8h-93.4z" fill="#fff" fill-rule="evenodd"/></mask><mask id="b" height="209.4" maskUnits="userSpaceOnUse" width="209.2" x="0" y="-.7"><path clip-rule="evenodd" d="m0-.7h209.2v209.4h-209.2z" fill="#fff" fill-rule="evenodd"/></mask><g clip-rule="evenodd" fill-rule="evenodd"><path d="m155 118.5c0 58 47 105 105 105s105-47 105-105-47-105-105-105-105 47-105 105" fill="#e2d3f5"/><path d="m283 228.8c-4.1 3.8-5.6 9.8-1.7 14.4 3.7 4.3 10.7 5.2 15.3 1.8 11-8.3-.5-23.6-12.4-20.5-2.2.6-1.7 3.7.5 3.8 3.5.2 7.2.3 10 2.7 3 2.6 3.1 6.9.6 9.8-6.5 7.8-17.8-3.7-10.9-10.6.8-1-.5-2.3-1.4-1.4" fill="#7cabff"/><path d="m164.3 188c-1.4-1.6-2.9-2.8-3.6-4.9-1.4-4.2 1.3-6.3 4.4-7.9 3.2-1.6 5.7-3.5 6.6-7.3 1.5-6-3.3-13.4-9.3-11.6-2 .6-1.4 3.3 0 4.1 1.9 1.2 4.4 1.8 4.7 4.6.4 3.7-3 4.8-5.4 6.1-2.6 1.5-4.5 3.7-5.3 6.7-1.4 5.3 1.5 12.4 7.2 12.1.8 0 1.3-1.2.7-1.9" fill="#7e2e84"/><path d="m146 252.1c.5 3.5 4.2 10.8 8 11.8 2 .5 3.6-.8 5.1-1.9 2.9-2 5.7-4 8.6-6 1-.7 1.7-2.1.9-3.3-2.5-3.8-5-7.7-7.6-11.5-.7-1-2.2-1.7-3.4-.9-3.1 2.2-6.6 4.2-9.4 6.8-2 1.8.5 4.7 2.8 3.5 3.2-1.7 6.1-4.1 9.1-6.2-1.1-.3-2.2-.6-3.4-.9 2.5 3.8 5 7.7 7.6 11.5.3-1.1.6-2.2.9-3.3-1.7 1.2-3.4 2.4-5.1 3.6-1 .7-4.2 3.7-5.3 3.6-1-.1-3-3.5-3.6-4.2-1.2-1.4-2.3-2.8-3.9-3.8-.7-.4-1.4.4-1.3 1.2" fill="#fbc580"/><path d="m314 96.1c.5 3.5 4.2 10.8 8 11.8 2 .5 3.6-.8 5.1-1.9 2.9-2 5.7-4 8.6-6 1-.7 1.7-2.1.9-3.3-2.5-3.8-5-7.7-7.6-11.5-.7-1-2.2-1.7-3.4-.9-3.1 2.2-6.6 4.2-9.4 6.8-2 1.8.5 4.7 2.8 3.5 3.2-1.7 6.1-4.1 9.1-6.2-1.1-.3-2.2-.6-3.4-.9 2.5 3.8 5 7.7 7.6 11.5.3-1.1.6-2.2.9-3.3-1.7 1.2-3.4 2.4-5.1 3.6-1 .7-4.2 3.7-5.3 3.6-1-.1-3-3.5-3.6-4.2-1.2-1.4-2.3-2.8-3.9-3.8-.7-.4-1.4.4-1.3 1.2" fill="#fbc580"/><path d="m328.9 157.1c-6.3 3-12.4 6.2-18.6 9.5-1.5.8-1.7 2.4-.6 3.7 4.5 4.9 9 9.7 13.8 14.2.9.9 2.4.4 2.9-.7 3-6.8 7.6-16.2 6.3-23.9-.3-2-3.2-2.9-4-.7-1.2 3.4-1.2 7.3-2 10.9-.9 4.1-2.1 8.3-3.8 12.1l3.3-.4c-4.4-5.2-9.2-10-14-14.9 0 1.1-.1 2.3-.1 3.4 6-3.5 12-7.1 17.9-10.9 1.4-.7.2-2.9-1.1-2.3" fill="#ff7081"/><path d="m210.2 246.6c4.5-5.4 9-11.4 12.5-17.5 1.1-1.9-1.6-4.2-3-2.4-4.4 5.5-8.2 12-11.6 18.3-.6 1.3 1.1 2.7 2.1 1.6" fill="#ff7081"/><path d="m365.9 62.4-.3-.3c-1.5-1.3-4-1.6-5.4 0-1.5 1.6-1.4 3.8 0 5.4.1.1.2.2.3.3 1.3 1.5 4.1 1.5 5.5 0 1.2-1.4 1.5-4-.1-5.4" fill="#241352"/><path d="m183.9 212.4c-.1-.1-.2-.2-.3-.3-1.5-1.3-4-1.6-5.4 0-1.5 1.6-1.4 3.8 0 5.4l.3.3c1.4 1.5 4.1 1.5 5.5 0 1.2-1.4 1.5-4-.1-5.4" fill="#241352"/><path d="m93.4 3v37h-24.4l-.8 14.1-14.4-14.9h-53.8l4.8-38.9z" fill="#7e2e84" mask="url(#a)" transform="translate(117)"/><path d="m203.8 13.8c-23.8-.4-47.7-.5-71.5-.1-.4 0-.4.6 0 .6 23.8.4 47.7.3 71.5-.1.3 0 .3-.4 0-.4" fill="#e6e2eb"/><path d="m203.8 21.8c-23.8-.4-47.7-.5-71.5-.1-.4 0-.4.6 0 .6 23.8.4 47.7.3 71.5-.1.3 0 .3-.4 0-.4" fill="#e6e2eb"/><path d="m200.8 29.8c-14.4-.4-29.1-.5-43.5-.1-.4 0-.4.6 0 .6 14.4.4 29.1.3 43.5-.1.3 0 .3-.4 0-.4" fill="#e6e2eb"/><path d="m259.3 263.1c1.3-6.8 2.4-14.2 2.7-21.1.1-2.2-3-2.7-3.4-.5-1.1 6.9-1.5 14.3-1.6 21.3 0 1.4 2 1.7 2.3.3" fill="#ff957e"/><path d="m293.9 285.4c-.1-.1-.2-.2-.3-.3-1.5-1.3-4-1.6-5.4 0-1.5 1.6-1.4 3.8 0 5.4l.3.3c1.4 1.5 4.1 1.5 5.5 0 1.2-1.4 1.5-4-.1-5.4" fill="#241352"/><path d="m209.2 104c0 57.8-46.8 104.7-104.6 104.7s-104.6-46.9-104.6-104.7 46.8-104.7 104.6-104.7 104.6 46.9 104.6 104.7" fill="#e2d3f5" mask="url(#b)" transform="translate(4 209)"/><path d="m187.7 351.1c.3-2.2.3-4.3 1.4-6.2 2.4-3.9 5.7-2.9 9-1.2s6.4 2.8 10 1.1c5.6-2.5 8.3-11.3 2.9-15.4-1.7-1.3-3.5.9-3.2 2.6.3 2.4 1.5 5-.5 7-2.6 2.7-5.7.4-8.3-.8-2.8-1.3-5.8-1.6-8.7-.4-5 2.1-8.6 9.1-4.7 13.9.7.6 2 .3 2.1-.6" fill="#7e2e84"/><path d="m225 270.8c-4.1 3.8-5.6 9.8-1.7 14.4 3.7 4.3 10.7 5.2 15.3 1.8 11-8.3-.5-23.6-12.4-20.5-2.2.6-1.7 3.7.5 3.8 3.5.2 7.2.3 10 2.7 3 2.6 3.1 6.9.6 9.8-6.5 7.8-17.8-3.7-10.9-10.6.8-1-.5-2.3-1.4-1.4" fill="#ff7081"/><path d="m62 263.8c-4.1 3.8-5.6 9.8-1.7 14.3 3.7 4.3 10.7 5.2 15.3 1.8 11-8.3-.5-23.6-12.4-20.5-2.2.6-1.7 3.7.5 3.8 3.5.2 7.2.3 10 2.7 3 2.6 3 6.9.6 9.8-6.5 7.8-17.8-3.7-10.9-10.6.8-.9-.5-2.2-1.4-1.3" fill="#7cabff"/><path d="m7.1 357c2.6 9.9 5.4 19.7 8.4 29.5.7 2.4 2.9 3.1 4.8 1.7 7.7-5.4 15.5-10.7 22.8-16.7 1.4-1.2 1.1-3.5-.3-4.5-8.6-6.1-20.1-15-31-15.1-2.8 0-4.7 4-1.9 5.7 4.4 2.6 9.6 3.5 14.3 5.6 5.4 2.3 10.8 5 15.5 8.6.1-1.6.2-3.3.3-4.9-8.2 5.2-15.9 11-23.7 16.8l4.6.9c-3.3-9.7-6.7-19.3-10.4-28.9-.7-1.9-4-.8-3.4 1.3" fill="#ff7081"/><g fill="#fbc580"><path d="m236.9 315.7c6.9.9 14.2 1.5 21.2 1.2 2.6-.1 2.5-3.3 0-3.5-6.8-.6-14-.5-20.8-.1-1.4.2-1.9 2.2-.4 2.4"/><path d="m4.9 315.7c6.9.9 14.2 1.5 21.2 1.2 2.6-.1 2.5-3.3 0-3.5-6.8-.6-14-.5-20.8-.1-1.4.2-1.9 2.2-.4 2.4"/><path d="m94 154.7v37.2h-24.6l-.8 14.1-14.4-14.9h-54.2l4.8-39.1z"/></g><path d="m83.8 166.8c-23.8-.4-47.7-.5-71.5-.1-.5 0-.5.6 0 .6 23.8.4 47.7.3 71.5-.1.3 0 .3-.4 0-.4" fill="#e6e2eb"/><path d="m83.8 173.8c-23.8-.4-47.7-.5-71.5-.1-.5 0-.5.6 0 .6 23.8.4 47.7.3 71.5-.1.3 0 .3-.4 0-.4" fill="#e6e2eb"/><path d="m82.8 180.8c-14.4-.4-29.1-.5-43.5-.1-.4 0-.4.6 0 .6 14.4.4 29.1.3 43.5-.1.3 0 .3-.4 0-.4" fill="#e6e2eb"/></g><path d="m112.4 274c.5 0 21.2 2.1 21.2 4.1l4.1 30.4-8.1 35.6 2.8 22.6-69.9-.9s-8-40.1-7.8-44.8 1.7-28.3-2.6-41.9l20.6-4.6z" fill="#455a64"/><path d="m85.6 331.1c-1.9-3.2-2.8-6.9-2.9-10.6l-.2-4.9c0-.3 0-.5 0-.7 0 0 0 0 0-.1.1-1.1.6-1.6 1.2-1.9.3-.2.6-.3 1-.5l10-4 10.1 3.2c.5.2 1.1.4 1.6.8.4.2.7.6.8 1 0 .1 0 .2.1.3l.2 5.9c.1 4.1-.8 8.2-2.9 11.9-1.8 3.1-4.6 6.3-9 8.4-.3-.1-.6-.2-.9-.3-.1 0-.2-.1-.3-.1-.2-.1-.5-.2-.7-.3 0 0-.1 0-.1-.1h-.1c-1.4-.7-2.6-1.6-3.7-2.6-.2-.2-.4-.4-.6-.5-.8-.8-1.4-1.6-2-2.4-.3-.4-.6-.9-.9-1.3-.1-.1-.2-.3-.2-.4-.1-.2-.3-.5-.5-.8z" fill="#e0e0e0"/><path d="m93.4 315h3.3v14.9h-3.3z" fill="#455a64" transform="matrix(-1 0 0 -1 190.136 644.8915)"/><path d="m93.4 315h3.3v15h-3.3z" fill="#455a64" transform="matrix(0 -1 1 0 -227.3779 417.5138)"/><g fill="#e0e0e0" opacity=".4"><path d="m74.6 343.1s-.1-.1-.2-.3c0 0-.1-.1-.1-.2s-.1-.1-.1-.2c-.1-.1-.2-.3-.3-.5 0-.1-.1-.2-.1-.3s-.1-.2-.1-.4c0-.1-.1-.3-.1-.4s-.1-.3-.1-.5c-.1-.6 0-1.4.1-2.2.3-1.7 1-3.6 2-5.7 1.1-2.1 2.6-4.4 4.4-6.8s4-4.9 6.5-7.3c2.5-2.5 5.4-5 8.6-7.3 1.6-1.2 3.3-2.3 5.1-3.4s3.7-2.1 5.6-3c2-.9 4.1-1.6 6.3-2 1.1-.2 2.2-.3 3.3-.1.6.1 1.1.2 1.6.5.5.2 1 .6 1.4 1s.6.9.8 1.5c.2.5.3 1.1.3 1.7 0 1.1-.2 2.2-.5 3.3-.6 2.1-1.6 4.1-2.7 6s-2.3 3.6-3.6 5.3c-1.3 1.6-2.6 3.2-4 4.7-2.7 2.9-5.5 5.5-8.3 7.7s-5.5 4.1-8.1 5.7c-2.6 1.5-5 2.8-7.3 3.6-2.2.8-4.3 1.3-6 1.4-.8 0-1.6 0-2.2-.2-.2 0-.3-.1-.5-.1-.1 0-.3-.1-.4-.1-.1-.1-.2-.1-.4-.1-.1-.1-.2-.1-.3-.2-.2-.1-.4-.2-.5-.3s-.1-.1-.2-.1-.1-.1-.1-.1c.3-.5.2-.6.2-.6s.1.1.2.2c0 0 .1.1.1.1.1 0 .1.1.2.1.1.1.3.2.5.3.1.1.2.1.3.2.1 0 .2.1.4.1.1.1.3.1.4.1s.3.1.5.1c.6.1 1.4.2 2.2.2 1.7-.1 3.7-.5 6-1.4 2.3-.8 4.7-2 7.3-3.6 2.6-1.5 5.3-3.4 8.1-5.7 2.8-2.2 5.6-4.8 8.3-7.7 1.4-1.5 2.7-3 4-4.7 1.3-1.6 2.5-3.4 3.6-5.3s2.1-3.9 2.7-6c.3-1.1.5-2.2.5-3.4 0-.6-.1-1.1-.3-1.7-.2-.5-.5-1.1-.9-1.5s-.9-.8-1.4-1-1.1-.4-1.7-.5c-1.1-.2-2.3-.1-3.4.1-2.2.4-4.3 1.1-6.3 2s-3.9 1.9-5.7 3-3.5 2.2-5.1 3.4c-3.2 2.4-6.1 4.9-8.6 7.3-2.5 2.5-4.7 5-6.5 7.4s-3.3 4.7-4.4 6.8-1.8 4.1-2 5.8c-.1.8-.2 1.6-.1 2.2 0 .2 0 .3.1.5 0 .1 0 .3.1.4 0 .1.1.3.1.4s.1.2.1.3c.1.2.2.4.3.5 0 .1.1.1.1.2s.1.1.1.2c.1.5.2.6.2.6z"/><path d="m66.5 323.5s0-.1 0-.3c0-.1 0-.1 0-.2s0-.1 0-.2c0-.2.1-.4.2-.6 0-.1.1-.2.1-.3.1-.1.1-.2.2-.3s.1-.2.2-.4c.1-.1.2-.3.3-.4.4-.5.9-1.1 1.6-1.6 1.3-1.1 3.1-2.1 5.4-2.9 2.2-.9 4.9-1.6 7.8-2.2 3-.6 6.2-1 9.8-1.1 3.5-.2 7.3-.1 11.3.2 2 .2 4 .5 6.1.8 2 .4 4.1.9 6.2 1.5 2.1.7 4.1 1.5 6 2.7.9.6 1.8 1.3 2.6 2.2.4.4.7.9.9 1.4s.3 1.1.4 1.6c0 .6-.1 1.1-.3 1.6s-.5 1-.9 1.4c-.7.9-1.6 1.6-2.6 2.2-1.9 1.2-3.9 2-6 2.7s-4.1 1.2-6.2 1.5c-2 .4-4.1.7-6.1.8-4 .4-7.8.4-11.3.2s-6.8-.6-9.8-1.1c-3-.6-5.6-1.3-7.8-2.2s-4.1-1.9-5.4-2.9c-.6-.5-1.2-1.1-1.6-1.6-.1-.1-.2-.3-.3-.4s-.2-.2-.2-.4c-.1-.1-.1-.2-.2-.3 0-.1-.1-.2-.1-.3-.1-.2-.1-.4-.2-.6 0-.1 0-.2 0-.2 0-.1 0-.1 0-.2-.1.1-.1-.1-.1-.1s0 .1 0 .3v.2.2c0 .2.1.4.1.6 0 .1.1.2.1.3.1.1.1.2.2.4.1.1.1.2.2.4.1.1.2.3.3.4.4.5.9 1.1 1.6 1.6 1.3 1.1 3.1 2.1 5.4 3 2.2.9 4.9 1.6 7.8 2.2 3 .6 6.2 1 9.8 1.1 3.5.2 7.3.1 11.3-.2 2-.2 4-.5 6.1-.8 2.1-.4 4.1-.9 6.2-1.5 2.1-.7 4.1-1.5 6-2.7.9-.6 1.9-1.3 2.6-2.2.4-.4.7-.9.9-1.5.2-.5.4-1.1.4-1.7s-.1-1.2-.4-1.7c-.2-.5-.6-1-.9-1.5-.7-.9-1.6-1.6-2.6-2.2-1.9-1.2-4-2-6-2.7-2.1-.7-4.1-1.2-6.2-1.5-2.1-.4-4.1-.7-6.1-.8-4-.4-7.8-.4-11.3-.2s-6.8.6-9.8 1.1c-3 .6-5.6 1.3-7.8 2.2s-4.1 1.9-5.4 3c-.6.5-1.2 1.1-1.6 1.6-.1.1-.2.3-.3.4s-.2.2-.2.4c-.1.1-.1.2-.2.4 0 .1-.1.2-.1.3-.1.2-.1.4-.1.6v.2.2z"/><path d="m77.2 299.2s.1-.1.3-.2c0 0 .1-.1.2-.1s.1-.1.2-.1c.2-.1.3-.2.5-.2.1 0 .2-.1.3-.1s.2-.1.4-.1c.1 0 .3 0 .4-.1h.5c.6 0 1.4.1 2.2.3 1.6.4 3.6 1.2 5.6 2.4 2.1 1.2 4.2 2.9 6.5 4.8 2.3 2 4.6 4.3 6.9 7s4.6 5.7 6.7 9.1c1.1 1.7 2.1 3.4 3 5.3 1 1.8 1.8 3.8 2.6 5.8.7 2 1.3 4.2 1.5 6.4.1 1.1.1 2.2-.1 3.3-.1.5-.3 1.1-.6 1.6s-.6.9-1.1 1.3c-.5.3-1 .6-1.5.7s-1.1.2-1.7.2c-1.1 0-2.2-.3-3.3-.7-2.1-.7-4-1.9-5.8-3.1s-3.5-2.5-5-3.9c-1.6-1.4-3-2.8-4.4-4.3-2.7-2.9-5.1-5.9-7.1-8.8s-3.7-5.7-5.1-8.4-2.4-5.2-3.1-7.5-1-4.3-1-6c0-.8.1-1.6.3-2.2 0-.2.1-.3.1-.4s.1-.3.2-.4.1-.2.2-.4c.1-.1.1-.2.2-.3.1-.2.2-.3.4-.5.1-.1.1-.1.2-.2.1 0 .1-.1.1-.1.2 0 .3-.1.3-.1s-.1.1-.3.2c0 0-.1.1-.1.1s-.1.1-.2.2-.2.3-.4.5c-.1.1-.1.2-.2.3s-.1.2-.2.4c-.1.1-.1.3-.2.4 0 .1-.1.3-.2.4-.2.6-.3 1.4-.3 2.2-.1 1.7.3 3.7.9 6 .7 2.3 1.7 4.8 3.1 7.5s3.1 5.5 5.1 8.4 4.4 5.9 7.1 8.8c1.4 1.5 2.8 2.9 4.4 4.3s3.2 2.7 5 3.9 3.7 2.3 5.8 3.1c1.1.4 2.2.7 3.3.7.6 0 1.2 0 1.7-.2.6-.2 1.1-.4 1.6-.8s.8-.8 1.1-1.3.5-1.1.6-1.6c.2-1.1.2-2.3.2-3.4-.2-2.2-.8-4.4-1.5-6.4s-1.6-4-2.6-5.8c-1-1.9-2-3.6-3.1-5.3-2.1-3.4-4.4-6.4-6.7-9.1s-4.6-5-6.9-7-4.5-3.6-6.5-4.8c-2.1-1.2-4-2.1-5.6-2.4-.8-.2-1.6-.3-2.2-.2-.2 0-.3 0-.5 0-.1 0-.3 0-.4.1-.1 0-.3.1-.4.1s-.2.1-.3.1c-.2.1-.4.2-.5.2s-.1.1-.2.1-.1.1-.2.1c-.1.1-.2.2-.2.2z"/><path d="m74.6 343.1s-.1-.1-.2-.3c0 0-.1-.1-.1-.2s-.1-.1-.1-.2c-.1-.1-.2-.3-.3-.5 0-.1-.1-.2-.1-.3s-.1-.2-.1-.4c0-.1-.1-.3-.1-.4s-.1-.3-.1-.5c-.1-.6 0-1.4.1-2.2.3-1.7 1-3.6 2-5.7 1.1-2.1 2.6-4.4 4.4-6.8s4-4.9 6.5-7.3c2.5-2.5 5.4-5 8.6-7.3 1.6-1.2 3.3-2.3 5.1-3.4s3.7-2.1 5.6-3c2-.9 4.1-1.6 6.3-2 1.1-.2 2.2-.3 3.3-.1.6.1 1.1.2 1.6.5.5.2 1 .6 1.4 1s.6.9.8 1.5c.2.5.3 1.1.3 1.7 0 1.1-.2 2.2-.5 3.3-.6 2.1-1.6 4.1-2.7 6s-2.3 3.6-3.6 5.3c-1.3 1.6-2.6 3.2-4 4.7-2.7 2.9-5.5 5.5-8.3 7.7s-5.5 4.1-8.1 5.7c-2.6 1.5-5 2.8-7.3 3.6-2.2.8-4.3 1.3-6 1.4-.8 0-1.6 0-2.2-.2-.2 0-.3-.1-.5-.1-.1 0-.3-.1-.4-.1-.1-.1-.2-.1-.4-.1-.1-.1-.2-.1-.3-.2-.2-.1-.4-.2-.5-.3s-.1-.1-.2-.1-.1-.1-.1-.1c.3-.5.2-.6.2-.6s.1.1.2.2c0 0 .1.1.1.1.1 0 .1.1.2.1.1.1.3.2.5.3.1.1.2.1.3.2.1 0 .2.1.4.1.1.1.3.1.4.1s.3.1.5.1c.6.1 1.4.2 2.2.2 1.7-.1 3.7-.5 6-1.4 2.3-.8 4.7-2 7.3-3.6 2.6-1.5 5.3-3.4 8.1-5.7 2.8-2.2 5.6-4.8 8.3-7.7 1.4-1.5 2.7-3 4-4.7 1.3-1.6 2.5-3.4 3.6-5.3s2.1-3.9 2.7-6c.3-1.1.5-2.2.5-3.4 0-.6-.1-1.1-.3-1.7-.2-.5-.5-1.1-.9-1.5s-.9-.8-1.4-1-1.1-.4-1.7-.5c-1.1-.2-2.3-.1-3.4.1-2.2.4-4.3 1.1-6.3 2s-3.9 1.9-5.7 3-3.5 2.2-5.1 3.4c-3.2 2.4-6.1 4.9-8.6 7.3-2.5 2.5-4.7 5-6.5 7.4s-3.3 4.7-4.4 6.8-1.8 4.1-2 5.8c-.1.8-.2 1.6-.1 2.2 0 .2 0 .3.1.5 0 .1 0 .3.1.4 0 .1.1.3.1.4s.1.2.1.3c.1.2.2.4.3.5 0 .1.1.1.1.2s.1.1.1.2c.1.5.2.6.2.6z"/><path d="m66.5 323.5s0-.1 0-.3c0-.1 0-.1 0-.2s0-.1 0-.2c0-.2.1-.4.2-.6 0-.1.1-.2.1-.3.1-.1.1-.2.2-.3s.1-.2.2-.4c.1-.1.2-.3.3-.4.4-.5.9-1.1 1.6-1.6 1.3-1.1 3.1-2.1 5.4-2.9 2.2-.9 4.9-1.6 7.8-2.2 3-.6 6.2-1 9.8-1.1 3.5-.2 7.3-.1 11.3.2 2 .2 4 .5 6.1.8 2 .4 4.1.9 6.2 1.5 2.1.7 4.1 1.5 6 2.7.9.6 1.8 1.3 2.6 2.2.4.4.7.9.9 1.4s.3 1.1.4 1.6c0 .6-.1 1.1-.3 1.6s-.5 1-.9 1.4c-.7.9-1.6 1.6-2.6 2.2-1.9 1.2-3.9 2-6 2.7s-4.1 1.2-6.2 1.5c-2 .4-4.1.7-6.1.8-4 .4-7.8.4-11.3.2s-6.8-.6-9.8-1.1c-3-.6-5.6-1.3-7.8-2.2s-4.1-1.9-5.4-2.9c-.6-.5-1.2-1.1-1.6-1.6-.1-.1-.2-.3-.3-.4s-.2-.2-.2-.4c-.1-.1-.1-.2-.2-.3 0-.1-.1-.2-.1-.3-.1-.2-.1-.4-.2-.6 0-.1 0-.2 0-.2 0-.1 0-.1 0-.2-.1.1-.1-.1-.1-.1s0 .1 0 .3v.2.2c0 .2.1.4.1.6 0 .1.1.2.1.3.1.1.1.2.2.4.1.1.1.2.2.4.1.1.2.3.3.4.4.5.9 1.1 1.6 1.6 1.3 1.1 3.1 2.1 5.4 3 2.2.9 4.9 1.6 7.8 2.2 3 .6 6.2 1 9.8 1.1 3.5.2 7.3.1 11.3-.2 2-.2 4-.5 6.1-.8 2.1-.4 4.1-.9 6.2-1.5 2.1-.7 4.1-1.5 6-2.7.9-.6 1.9-1.3 2.6-2.2.4-.4.7-.9.9-1.5.2-.5.4-1.1.4-1.7s-.1-1.2-.4-1.7c-.2-.5-.6-1-.9-1.5-.7-.9-1.6-1.6-2.6-2.2-1.9-1.2-4-2-6-2.7-2.1-.7-4.1-1.2-6.2-1.5-2.1-.4-4.1-.7-6.1-.8-4-.4-7.8-.4-11.3-.2s-6.8.6-9.8 1.1c-3 .6-5.6 1.3-7.8 2.2s-4.1 1.9-5.4 3c-.6.5-1.2 1.1-1.6 1.6-.1.1-.2.3-.3.4s-.2.2-.2.4c-.1.1-.1.2-.2.4 0 .1-.1.2-.1.3-.1.2-.1.4-.1.6v.2.2z"/><path d="m77.2 299.2s.1-.1.3-.2c0 0 .1-.1.2-.1s.1-.1.2-.1c.2-.1.3-.2.5-.2.1 0 .2-.1.3-.1s.2-.1.4-.1c.1 0 .3 0 .4-.1h.5c.6 0 1.4.1 2.2.3 1.6.4 3.6 1.2 5.6 2.4 2.1 1.2 4.2 2.9 6.5 4.8 2.3 2 4.6 4.3 6.9 7s4.6 5.7 6.7 9.1c1.1 1.7 2.1 3.4 3 5.3 1 1.8 1.8 3.8 2.6 5.8.7 2 1.3 4.2 1.5 6.4.1 1.1.1 2.2-.1 3.3-.1.5-.3 1.1-.6 1.6s-.6.9-1.1 1.3c-.5.3-1 .6-1.5.7s-1.1.2-1.7.2c-1.1 0-2.2-.3-3.3-.7-2.1-.7-4-1.9-5.8-3.1s-3.5-2.5-5-3.9c-1.6-1.4-3-2.8-4.4-4.3-2.7-2.9-5.1-5.9-7.1-8.8s-3.7-5.7-5.1-8.4-2.4-5.2-3.1-7.5-1-4.3-1-6c0-.8.1-1.6.3-2.2 0-.2.1-.3.1-.4s.1-.3.2-.4.1-.2.2-.4c.1-.1.1-.2.2-.3.1-.2.2-.3.4-.5.1-.1.1-.1.2-.2.1 0 .1-.1.1-.1.2 0 .3-.1.3-.1s-.1.1-.3.2c0 0-.1.1-.1.1s-.1.1-.2.2-.2.3-.4.5c-.1.1-.1.2-.2.3s-.1.2-.2.4c-.1.1-.1.3-.2.4 0 .1-.1.3-.2.4-.2.6-.3 1.4-.3 2.2-.1 1.7.3 3.7.9 6 .7 2.3 1.7 4.8 3.1 7.5s3.1 5.5 5.1 8.4 4.4 5.9 7.1 8.8c1.4 1.5 2.8 2.9 4.4 4.3s3.2 2.7 5 3.9 3.7 2.3 5.8 3.1c1.1.4 2.2.7 3.3.7.6 0 1.2 0 1.7-.2.6-.2 1.1-.4 1.6-.8s.8-.8 1.1-1.3.5-1.1.6-1.6c.2-1.1.2-2.3.2-3.4-.2-2.2-.8-4.4-1.5-6.4s-1.6-4-2.6-5.8c-1-1.9-2-3.6-3.1-5.3-2.1-3.4-4.4-6.4-6.7-9.1s-4.6-5-6.9-7-4.5-3.6-6.5-4.8c-2.1-1.2-4-2.1-5.6-2.4-.8-.2-1.6-.3-2.2-.2-.2 0-.3 0-.5 0-.1 0-.3 0-.4.1-.1 0-.3.1-.4.1s-.2.1-.3.1c-.2.1-.4.2-.5.2s-.1.1-.2.1-.1.1-.2.1c-.1.1-.2.2-.2.2z"/></g><path d="m125.7 335.7c-.4.4-.4 1.1 0 1.5s1.1.4 1.5 0 .4-1.1 0-1.5-1.1-.4-1.5 0z" fill="#e0e0e0"/><path d="m118.8 339.3c0 .2.1.3.3.3s.3-.1.3-.3-.1-.3-.3-.3-.3.1-.3.3z" fill="#e0e0e0"/><path d="m64 301.8c0 .6.5 1.1 1.1 1.1s1.1-.5 1.1-1.1-.5-1.1-1.1-1.1-1.1.5-1.1 1.1z" fill="#e0e0e0"/><path d="m65.6 310.6c0 .2.1.3.3.3s.3-.1.3-.3-.1-.3-.3-.3-.3.2-.3.3z" fill="#e0e0e0"/><g fill="#e0e0e0" opacity=".4"><path d="m74.6 343.1s-.1-.1-.2-.3c0 0-.1-.1-.1-.2s-.1-.1-.1-.2c-.1-.1-.2-.3-.3-.5 0-.1-.1-.2-.1-.3s-.1-.2-.1-.4c0-.1-.1-.3-.1-.4s-.1-.3-.1-.5c-.1-.6 0-1.4.1-2.2.3-1.7 1-3.6 2-5.7 1.1-2.1 2.6-4.4 4.4-6.8s4-4.9 6.5-7.3c2.5-2.5 5.4-5 8.6-7.3 1.6-1.2 3.3-2.3 5.1-3.4s3.7-2.1 5.6-3c2-.9 4.1-1.6 6.3-2 1.1-.2 2.2-.3 3.3-.1.6.1 1.1.2 1.6.5.5.2 1 .6 1.4 1s.6.9.8 1.5c.2.5.3 1.1.3 1.7 0 1.1-.2 2.2-.5 3.3-.6 2.1-1.6 4.1-2.7 6s-2.3 3.6-3.6 5.3c-1.3 1.6-2.6 3.2-4 4.7-2.7 2.9-5.5 5.5-8.3 7.7s-5.5 4.1-8.1 5.7c-2.6 1.5-5 2.8-7.3 3.6-2.2.8-4.3 1.3-6 1.4-.8 0-1.6 0-2.2-.2-.2 0-.3-.1-.5-.1-.1 0-.3-.1-.4-.1-.1-.1-.2-.1-.4-.1-.1-.1-.2-.1-.3-.2-.2-.1-.4-.2-.5-.3s-.1-.1-.2-.1-.1-.1-.1-.1c.3-.5.2-.6.2-.6s.1.1.2.2c0 0 .1.1.1.1.1 0 .1.1.2.1.1.1.3.2.5.3.1.1.2.1.3.2.1 0 .2.1.4.1.1.1.3.1.4.1s.3.1.5.1c.6.1 1.4.2 2.2.2 1.7-.1 3.7-.5 6-1.4 2.3-.8 4.7-2 7.3-3.6 2.6-1.5 5.3-3.4 8.1-5.7 2.8-2.2 5.6-4.8 8.3-7.7 1.4-1.5 2.7-3 4-4.7 1.3-1.6 2.5-3.4 3.6-5.3s2.1-3.9 2.7-6c.3-1.1.5-2.2.5-3.4 0-.6-.1-1.1-.3-1.7-.2-.5-.5-1.1-.9-1.5s-.9-.8-1.4-1-1.1-.4-1.7-.5c-1.1-.2-2.3-.1-3.4.1-2.2.4-4.3 1.1-6.3 2s-3.9 1.9-5.7 3-3.5 2.2-5.1 3.4c-3.2 2.4-6.1 4.9-8.6 7.3-2.5 2.5-4.7 5-6.5 7.4s-3.3 4.7-4.4 6.8-1.8 4.1-2 5.8c-.1.8-.2 1.6-.1 2.2 0 .2 0 .3.1.5 0 .1 0 .3.1.4 0 .1.1.3.1.4s.1.2.1.3c.1.2.2.4.3.5 0 .1.1.1.1.2s.1.1.1.2c.1.5.2.6.2.6z"/><path d="m66.5 323.5s0-.1 0-.3c0-.1 0-.1 0-.2s0-.1 0-.2c0-.2.1-.4.2-.6 0-.1.1-.2.1-.3.1-.1.1-.2.2-.3s.1-.2.2-.4c.1-.1.2-.3.3-.4.4-.5.9-1.1 1.6-1.6 1.3-1.1 3.1-2.1 5.4-2.9 2.2-.9 4.9-1.6 7.8-2.2 3-.6 6.2-1 9.8-1.1 3.5-.2 7.3-.1 11.3.2 2 .2 4 .5 6.1.8 2 .4 4.1.9 6.2 1.5 2.1.7 4.1 1.5 6 2.7.9.6 1.8 1.3 2.6 2.2.4.4.7.9.9 1.4s.3 1.1.4 1.6c0 .6-.1 1.1-.3 1.6s-.5 1-.9 1.4c-.7.9-1.6 1.6-2.6 2.2-1.9 1.2-3.9 2-6 2.7s-4.1 1.2-6.2 1.5c-2 .4-4.1.7-6.1.8-4 .4-7.8.4-11.3.2s-6.8-.6-9.8-1.1c-3-.6-5.6-1.3-7.8-2.2s-4.1-1.9-5.4-2.9c-.6-.5-1.2-1.1-1.6-1.6-.1-.1-.2-.3-.3-.4s-.2-.2-.2-.4c-.1-.1-.1-.2-.2-.3 0-.1-.1-.2-.1-.3-.1-.2-.1-.4-.2-.6 0-.1 0-.2 0-.2 0-.1 0-.1 0-.2-.1.1-.1-.1-.1-.1s0 .1 0 .3v.2.2c0 .2.1.4.1.6 0 .1.1.2.1.3.1.1.1.2.2.4.1.1.1.2.2.4.1.1.2.3.3.4.4.5.9 1.1 1.6 1.6 1.3 1.1 3.1 2.1 5.4 3 2.2.9 4.9 1.6 7.8 2.2 3 .6 6.2 1 9.8 1.1 3.5.2 7.3.1 11.3-.2 2-.2 4-.5 6.1-.8 2.1-.4 4.1-.9 6.2-1.5 2.1-.7 4.1-1.5 6-2.7.9-.6 1.9-1.3 2.6-2.2.4-.4.7-.9.9-1.5.2-.5.4-1.1.4-1.7s-.1-1.2-.4-1.7c-.2-.5-.6-1-.9-1.5-.7-.9-1.6-1.6-2.6-2.2-1.9-1.2-4-2-6-2.7-2.1-.7-4.1-1.2-6.2-1.5-2.1-.4-4.1-.7-6.1-.8-4-.4-7.8-.4-11.3-.2s-6.8.6-9.8 1.1c-3 .6-5.6 1.3-7.8 2.2s-4.1 1.9-5.4 3c-.6.5-1.2 1.1-1.6 1.6-.1.1-.2.3-.3.4s-.2.2-.2.4c-.1.1-.1.2-.2.4 0 .1-.1.2-.1.3-.1.2-.1.4-.1.6v.2.2z"/><path d="m77.2 299.2s.1-.1.3-.2c0 0 .1-.1.2-.1s.1-.1.2-.1c.2-.1.3-.2.5-.2.1 0 .2-.1.3-.1s.2-.1.4-.1c.1 0 .3 0 .4-.1h.5c.6 0 1.4.1 2.2.3 1.6.4 3.6 1.2 5.6 2.4 2.1 1.2 4.2 2.9 6.5 4.8 2.3 2 4.6 4.3 6.9 7s4.6 5.7 6.7 9.1c1.1 1.7 2.1 3.4 3 5.3 1 1.8 1.8 3.8 2.6 5.8.7 2 1.3 4.2 1.5 6.4.1 1.1.1 2.2-.1 3.3-.1.5-.3 1.1-.6 1.6s-.6.9-1.1 1.3c-.5.3-1 .6-1.5.7s-1.1.2-1.7.2c-1.1 0-2.2-.3-3.3-.7-2.1-.7-4-1.9-5.8-3.1s-3.5-2.5-5-3.9c-1.6-1.4-3-2.8-4.4-4.3-2.7-2.9-5.1-5.9-7.1-8.8s-3.7-5.7-5.1-8.4-2.4-5.2-3.1-7.5-1-4.3-1-6c0-.8.1-1.6.3-2.2 0-.2.1-.3.1-.4s.1-.3.2-.4.1-.2.2-.4c.1-.1.1-.2.2-.3.1-.2.2-.3.4-.5.1-.1.1-.1.2-.2.1 0 .1-.1.1-.1.2 0 .3-.1.3-.1s-.1.1-.3.2c0 0-.1.1-.1.1s-.1.1-.2.2-.2.3-.4.5c-.1.1-.1.2-.2.3s-.1.2-.2.4c-.1.1-.1.3-.2.4 0 .1-.1.3-.2.4-.2.6-.3 1.4-.3 2.2-.1 1.7.3 3.7.9 6 .7 2.3 1.7 4.8 3.1 7.5s3.1 5.5 5.1 8.4 4.4 5.9 7.1 8.8c1.4 1.5 2.8 2.9 4.4 4.3s3.2 2.7 5 3.9 3.7 2.3 5.8 3.1c1.1.4 2.2.7 3.3.7.6 0 1.2 0 1.7-.2.6-.2 1.1-.4 1.6-.8s.8-.8 1.1-1.3.5-1.1.6-1.6c.2-1.1.2-2.3.2-3.4-.2-2.2-.8-4.4-1.5-6.4s-1.6-4-2.6-5.8c-1-1.9-2-3.6-3.1-5.3-2.1-3.4-4.4-6.4-6.7-9.1s-4.6-5-6.9-7-4.5-3.6-6.5-4.8c-2.1-1.2-4-2.1-5.6-2.4-.8-.2-1.6-.3-2.2-.2-.2 0-.3 0-.5 0-.1 0-.3 0-.4.1-.1 0-.3.1-.4.1s-.2.1-.3.1c-.2.1-.4.2-.5.2s-.1.1-.2.1-.1.1-.2.1c-.1.1-.2.2-.2.2z"/></g><path d="m133 277.3s12.2 12.9 17.2 21.2l-2.4-18 17.9-3.7s7.8 23.6 9.8 31.7c.8 3.5 5.2 20.8 5.2 25 0 7.7-4 15.6-10 17.9s-11.8 2.3-17.6-2c-6-4.4-19.4-24.1-19.4-24.1l4-17.5z" fill="#455a64"/><path d="m60.6 318.9s-11.2 22.3-19.6 25.8-19.9-1.5-21.7-5.5c-1.7-4 11.2-60.2 11.2-60.2l16.3 3s4.7-7.7 12.6-6.6 10.7 18.2 10.7 18.2z" fill="#455a64"/><path d="m156.7 339c-3.5-3.9-6.2-8.6-7-13.9-.9-5.7.4-11.5.8-17.2.2-3.3.2-6.7-.7-10 0-.1.1-.2.2 0 1.5 5.4.7 11 .1 16.4-.6 5.8-.7 11.5 1.7 16.9 1.3 2.8 3.1 5.4 5.1 7.7 0 .1-.1.2-.2.1z" fill="#263238"/><path d="m147.3 314.7c1.2-3.3 2.7-6 3.4-9.4-.2 6.8-2 13.4-1 19.9.4 2.9 2 5.6 3.1 8.4-2.9-2.4-5.8-4.9-6.7-8.6-.9-3.4 0-7 1.2-10.3z" opacity=".3"/><path d="m129.6 291.3s.1.2.2.5.4.8.6 1.4c.5 1.3 1.1 3.1 1.7 5.5s1.2 5.2 1.6 8.4c.5 3.2.8 6.7.9 10.4 0 1.9-.1 3.7-.4 5.4s-.7 3.4-1.1 4.9c-.7 3.1-1.4 6-2 8.3-.6 2.4-1 4.3-1.2 5.7-.1.6-.2 1.2-.3 1.5-.1.4-.1.5-.1.5s.1-.2.1-.5c.1-.4.2-.9.4-1.5.3-1.3.8-3.3 1.3-5.6.6-2.4 1.3-5.2 2.1-8.3.4-1.6.7-3.2 1.1-5 .4-1.7.4-3.6.4-5.4 0-3.7-.4-7.3-.9-10.5s-1.1-6.1-1.7-8.4c-.6-2.4-1.3-4.2-1.9-5.5-.3-.6-.5-1.1-.7-1.4 0-.3-.1-.4-.1-.4z" fill="#263238"/><path d="m39.5 334.1s.1-.1.4-.4c.3-.2.6-.7 1-1.2.8-1.1 1.8-2.8 2.4-5.2.7-2.3 1-5.2 1.2-8.4s.2-6.7.1-10.4c0-3.7-.1-7.2 0-10.4s.3-6 .6-8.4.7-4.3 1-5.6c.1-.6.3-1.1.3-1.5.1-.3.1-.5.1-.5s-.1.2-.2.5c-.1.4-.2.9-.4 1.5-.3 1.3-.7 3.2-1.1 5.6s-.6 5.3-.7 8.4c-.1 3.2-.1 6.7 0 10.4 0 3.7 0 7.2-.1 10.4s-.5 6-1.1 8.3-1.5 4.1-2.3 5.2c-.6 1.1-1.2 1.6-1.2 1.7z" fill="#263238"/><path d="m52.1 299.6v1.1c0 .7.1 1.7.2 3 .2 2.5.5 6.1 1 9.9.5 3.9 1.2 7.3 1.7 9.8.3 1.2.5 2.3.7 3s.3 1.1.3 1.1 0-.4-.2-1.1c-.1-.8-.3-1.8-.5-3-.5-2.5-1-6-1.6-9.8-.5-3.9-.9-7.4-1.1-9.9-.1-1.2-.2-2.2-.3-3-.1-.7-.1-1.1-.2-1.1z" fill="#263238"/><path d="m100.2 187c9.5 1.5 19.8 8.6 23.5 17.4 3.7 8.9 3.3 20.3 3.2 29.9-2.9-.6-4.8.8-7.8.6-1.9-.1-3.5-1.6-4.8-3.1-2.9-3.5-4.8-7.8-6.6-12-4.3-10-8.6-20-12.8-30" fill="#263238"/><path d="m114.6 201.5c14.9 9.7 11.2 27.6 14.1 31.8 1.2 1.7 2.6 3.4 2.7 5.3.1 2.2-1.4 4.2-1.4 6.3-.1 3 2.6 5.4 4.4 8 2.4 3.5 3.1 7.9 1.9 11.8-.2.8-.6 1.7-1.5 2.1-.6.3.6 9.9-.1 9.9-14.2.6-31.4-3.4-45.6-3.8-3.2-.1-5.6-5.6-8.3-7.1-3.7-2.1-5.3-6-6.5-9.7-1.3-3.9-2.7-7.8-4-11.6-.9-2.5-1.7-5.1-2.1-7.7-.5-3.6-.2-7.3-.2-10.9 0-3.4-.5-6.8-.2-10.1.3-3.4 1.4-6.8 4-9.3" fill="#263238"/><path d="m71.3 216c-.3-13.3 10.6-24.3 24.4-24.2 12.9.1 23.4 10.7 24 23.4.5 11.1.8 22.3.4 26.3-1.4 12.1-9.1 16.1-12.2 17.2-.7.3-2.6.4-3.3.5s-.1 0-.1.1l1.3 14.2c.3 9.2-5.7 16.8-15.1 17.2s-16-7.4-16.5-16.6z" fill="#ffbe9d"/><path d="m114.4 222.5c.1 1-.7 1.9-1.8 2s-2-.6-2.1-1.7c-.1-1 .7-1.9 1.8-2 1.1 0 2 .7 2.1 1.7z" fill="#263238"/><path d="m116.3 217.8c-.2.3-1.9 0-3.8.8-2 .7-3.1 2.1-3.4 2-.1 0 0-.5.5-1.1s1.4-1.4 2.7-1.8c1.2-.5 2.4-.5 3.1-.4.6.1.9.4.9.5z" fill="#263238"/><path d="m93 223.1c.1 1-.7 1.9-1.8 2s-2-.6-2.1-1.7c-.1-1 .7-1.9 1.8-2s2 .7 2.1 1.7z" fill="#263238"/><path d="m95.2 221.1c-.3.1-1.6-1.1-3.8-1.8s-4-.4-4.2-.7c-.1-.1.3-.4 1.1-.5s2.1-.1 3.5.3 2.4 1.1 2.9 1.7c.6.6.7 1 .5 1z" fill="#263238"/><path d="m104 234.5c0-.1 1.3-.4 3.4-.7.5-.1 1-.2 1.1-.6s-.1-1-.4-1.6c-.6-1.3-1.2-2.6-1.8-4-2.5-5.7-4.3-10.3-4.1-10.4s2.4 4.4 4.9 10.1c.6 1.4 1.2 2.7 1.7 4 .2.6.6 1.3.4 2.1-.1.4-.5.7-.9.8-.3.1-.6.1-.9.2-2 .2-3.4.2-3.4.1z" fill="#263238"/><path d="m104.4 259.1s-8.2 1-18.7-4.7c0 0 3.7 10.5 19 8.5z" fill="#eb996e"/><path d="m103.3 239.6c-.8-1-2.2-1.5-3.5-1.3-.9.1-1.8.6-2.4 1.4-.5.8-.6 1.8-.1 2.5.6.8 1.8.9 2.8.6s1.8-1 2.6-1.7c.2-.2.4-.4.6-.6.3-.4.3-.7 0-.9" fill="#eb996e"/><path d="m97.8 236.2c.3 0 .4 2.2 2.5 3.8 2 1.5 4.5 1.2 4.5 1.5 0 .1-.5.5-1.6.5-1 .1-2.5-.2-3.8-1.1-1.2-.9-1.8-2.2-1.9-3.2s.2-1.5.3-1.5z" fill="#263238"/><path d="m95.9 212.7c-.3.5-2.3.1-4.8.2-2.5 0-4.6.6-4.9.1-.1-.3.3-.8 1.1-1.2.8-.5 2.2-.9 3.7-.9s2.8.3 3.7.7 1.3.9 1.2 1.1z" fill="#263238"/><path d="m116 211.3c-.4.5-1.8.1-3.6.1s-3.2.4-3.6 0c-.2-.2.1-.7.7-1.2s1.7-.9 2.9-.9 2.3.4 2.9.8c.7.4.9.9.7 1.2z" fill="#263238"/><path d="m100.6 185.9c2.9 6.1 0 13.4-6 16.6-2.6 1.4-5.9 2.1-7.2 4.7-1 2-.4 4.6-1.7 6.5-1.2 1.8-3.6 2.2-5.3 3.5-2.4 1.7-3.3 4.8-3.6 7.7s0 5.9-.5 8.8c-.6 2.9-2.3 5.8-5.1 6.6-1.8-8.3-3.4-16.7-2.9-25.2s3.2-17.1 9.1-23.1c5.9-6.1 15.3-9.1 23.2-6.1" fill="#263238"/><path d="m92.1 184.8c-10.2.4-21.6 7.3-25 16.9-1.8 4.8-2.2 10.4-5.5 14.2-2.1 2.4-5.3 4-7 6.7-3.7 5.8.6 13.8-1.8 20.4-1 2.9-3.3 5.2-5.1 7.8-1.8 2.5-1.8 19-.6 21.8.8 2 2.7 3.4 4.8 4.1 2 .7 4.2.8 6.4.9 11 .5 20.9-4.7 31.9-4.2 0 0 1.4-11.6-.8-15-2.2-3.5-7.6-6.7-6.4-11.6 1.2-5 3.6-4.4 3.7-9.5.1-5.2-3.5-10.1-2.9-14.6s2.1-3.4 4-10.5 5.9-9 5.9-9l-3.1-17" fill="#263238"/><path d="m129.4 236.7c-1.2-1.8-2.4-3.8-2-5.9.3-1.5 1.3-2.7 1.7-4.1 1-3.1-.5-5.4-.5-5.5-.7-1.8-1.6-3.4-2.2-5.2-.4-1.4-.6-3-1.2-4.3-.6-1.4-1.7-2.7-3.2-2.9-1 6.7 1.6 13.4 1.9 20.1.1 1.5.1 3 .7 4.4.6 1.3 2.1 2.4 3.6 2" fill="#263238"/><path d="m68.4 201.5c.1 0 0-.6.5-1.4.4-.8 1.6-1.8 3.2-2 1.7-.2 3.7.4 5.9.8 2.3.4 4.9.5 7.5.1 2.7-.4 5.1-1.3 7.1-2.5s3.5-2.8 4.5-4.2 1.5-2.8 1.8-3.7c.1-.5.2-.8.2-1.1s0-.4 0-.4c-.2-.1-.4 2.2-2.4 4.9-1 1.4-2.5 2.8-4.4 4s-4.3 2-6.9 2.3c-2.6.4-5.1.2-7.3-.1s-4.3-.9-6.1-.6-3 1.4-3.4 2.3c-.2.5-.3.9-.3 1.1.1.3.1.5.1.5z" fill="#455a64"/><path d="m66.3 204.9s.5.3 1.5.8c1 .4 2.5 1 4.4 1.4 3.8.8 9.5.7 14.9-2s8.9-7.3 10.5-10.8c.8-1.8 1.3-3.3 1.5-4.4s.3-1.7.2-1.7-.5 2.4-2.2 5.8-5.1 7.7-10.3 10.4c-5.2 2.6-10.8 2.8-14.5 2.1-3.8-.6-5.9-1.8-6-1.6z" fill="#455a64"/><path d="m124.1 238.2v26.2h-53l.7-26.2s16.7.4 19.3 0 7.3-2.9 10.6-1.8 6.5 1.8 9 1.8z" fill="#ff725e"/><path d="m121.8 259.5c.1 0-.1-1-.4-2.7-.2-1.6-.4-3.9-.4-6.4s.3-4.8.5-6.4.5-2.6.4-2.6c0 0-.1.2-.2.7-.1.4-.3 1.1-.4 1.9-.3 1.6-.6 3.9-.6 6.5 0 2.5.2 4.8.5 6.5.1.8.3 1.5.4 1.9s.2.6.2.6z" fill="#263238"/><path d="m77.2 250s.2 0 .4-.1c.3-.1.7-.2 1.3-.3 1.1-.2 2.7-.6 4.6-.9 3.9-.7 9.3-1.7 15.4-1.5 6 .2 11.4 1.2 15.3 1.9 1.9.4 3.5.7 4.6.9.5.1.9.2 1.3.2.3.1.4.1.4.1s-.1-.1-.4-.1c-.3-.1-.7-.2-1.2-.3-1.1-.3-2.6-.6-4.6-1-3.9-.8-9.3-1.9-15.4-2-6.1-.2-11.5.8-15.4 1.6-1.9.4-3.5.8-4.6 1.1-.5.1-.9.2-1.2.3-.4.1-.5.1-.5.1z" fill="#263238"/><path d="m74.1 259.3s.1-.2.2-.7c.1-.4.2-1.1.2-1.8.2-1.6.3-3.7.3-6.1s0-4.6-.1-6.1c-.1-.8-.1-1.4-.2-1.9-.1-.4-.1-.7-.1-.7-.1 0 0 1 .1 2.5 0 1.6.1 3.7 0 6.1 0 2.4-.1 4.5-.2 6.1-.2 1.6-.3 2.6-.2 2.6z" fill="#263238"/><path d="m79 253.3h.4 1.1 3.9c3.3 0 7.9 0 13-.1s9.6-.2 13-.3c1.7-.1 3-.1 3.9-.2.4 0 .8-.1 1.1-.1.2 0 .4 0 .4-.1 0 0-.1 0-.4 0s-.6 0-1.1 0c-1 0-2.3 0-3.9.1-3.3.1-7.9.1-13 .2-5 .1-9.6.1-13 .2-1.6 0-2.9.1-3.9.1-.4 0-.8 0-1.1 0-.3.2-.4.2-.4.2z" fill="#263238"/><path d="m83.9 258.7s.1.1.3.1c.2.1.5.2.9.3s.9.3 1.5.4c.6.2 1.2.4 2 .5 1.5.4 3.2.7 5.2.9s4.1.4 6.4.3 4.5-.3 6.4-.6c2-.3 3.7-.7 5.1-1.1.7-.2 1.4-.4 1.9-.6.6-.2 1-.4 1.4-.5s.7-.3.9-.4.3-.1.3-.1-.1 0-.3.1-.6.2-.9.3c-.4.1-.9.3-1.5.4-.6.2-1.2.4-1.9.5-1.4.4-3.2.7-5.1 1s-4.1.5-6.4.5-4.4-.1-6.4-.3-3.7-.5-5.2-.8c-.7-.1-1.4-.3-2-.5-.6-.1-1.1-.3-1.5-.4s-.7-.2-.9-.3c-.1.3-.2.2-.2.3z" fill="#263238"/><path d="m78 245.9h.4c.3 0 .7 0 1.3-.1 1.1-.1 2.7-.5 4.5-1.1 1.9-.6 4-1.5 6.4-2.5 2.4-.9 5.2-1.8 8.1-1.8 3 0 5.7.8 8.2 1.6 2.4.9 4.6 1.7 6.5 2.3s3.4.9 4.5 1.1c.5.1 1 .1 1.3.1h.4s-.6-.1-1.7-.2c-1.1-.2-2.6-.5-4.5-1.2-1.9-.6-4-1.5-6.5-2.4-2.4-.9-5.2-1.7-8.3-1.7-1.5 0-3 .3-4.4.6-1.4.4-2.7.8-3.9 1.3-2.4.9-4.6 1.9-6.4 2.5s-3.4 1-4.5 1.2c-.8.2-1.4.2-1.4.3z" fill="#263238"/><path d="m117.5 252.7-.4.5c-12 4.9-25.9 5-37.9.1 12.8-.2 25.5-.4 38.3-.6z" opacity=".3"/><path d="m114 258.9s.1 0 .1-.1z" opacity=".3"/><path d="m99.8 261.1c5.1-.3 9.5-.7 14.3-2.2-4.1 2.2-8.7 3.4-13.4 3.5s-9.4-.9-13.7-2.9c4.1.8 8.5 1.9 12.8 1.6z" opacity=".3"/><path d="m114 244.4c-2.8-1.5-5.5-2.9-8.5-4-3-1-6.1-1.6-9.2-1.1-3.7.5-8.8 2.6-11.6 5.1 0 0 8.7-4.4 15.6-4.1 4.8.3 13.7 4.1 13.7 4.1z" opacity=".3"/><path d="m40.7 228s-4.1 10.9-4 11.6 1.1 9.9 1 10.6-.6 14-3.1 20.8-2.7 8.4-2.7 8.4l14.6 2.7s6.7-15.5 6.7-16.9 0-3.5 0-3.5l2.1-.6v1.9s-.7 4.7.6 5.1c1.2.4 2 .2 2.3-.8.4-1.3 1.4-5.7 1.4-5.7l.9-6-3.8-6.2s-7.4-.2-7.2-.8c.1-.5 1.4-7.7 1.4-7.7s2.3-2.1 3.9-1.9c3.5.3 4.4-.5 4.7-3l-5.4-1-8.7 3.1-1.9 5.2-1.5-4.3s4.2-9.1-1.3-11z" fill="#ffbe9d"/><path d="m50.5 253.7s.6.4 1.6 1c1.1.7 2.4 1.5 3.9 2.4.8.5 1.5.9 2.1 1.3l-.1-.1c.4 1 .7 1.9 1 2.7.2.7.4 1 .4 1 .1 0-.3-1.6-1.1-3.8-.6-.4-1.3-.9-2.1-1.3-1.5-.9-3-1.7-4-2.3-1-.7-1.6-1-1.7-.9z" fill="#eb996e"/><path d="m56.3 257c.1-.1-1-.9-1.4-2.3v-.1-.1h-.1c-1.5-.1-2.8-.1-2.8 0s1.2.3 2.7.3l-.2-.1v.1c.2.8.7 1.4 1 1.8.5.3.8.5.8.4z" fill="#eb996e"/><path d="m42.4 247.1c.1 0 .8-1.9 1.6-4.2.8-2.4 1.3-4.3 1.2-4.3s-.8 1.9-1.6 4.2-1.3 4.2-1.2 4.3z" fill="#eb996e"/><path d="m58.4 264c4.9 0 9.7-.9 14.3-2.5l-.2-.5c-6.1 2.2-12.7 3-19.2 2.2l-.1.5c1.8.2 3.5.3 5.2.3z" fill="#fff"/><path d="m73.7 240.8.1-.5c-11.8-3.5-25.9-5.5-35.4-6.7l-.1.5c9.6 1.2 23.6 3.2 35.4 6.7z" fill="#fff"/><path d="m154.9 228.4s1.8 9.9 2.2 13.7.9 10.5 1.3 12.6 5.8 22.7 5.8 22.7l-14.2 2.7s-4.1-5.7-5.3-9.5-1.6-6.1-1.6-6.1l-1.8-2.7-1 .4-.5 1.3s1.3 2.4.3 4.1c-1 1.8-2 .2-2 .2l-2.2-4.5.6-2.5s.1-2.4 1.3-3 5.3-1.6 5.3-1.6v-.9l-5.1-2.1s-2.9 2-2.7 2.4.2 2.5-.3 3.6-1.7 1.4-1.8 1.2-2.2-5.7-2.2-5.7 5.4-7.1 5.6-7.2 9 1.5 9 1.5l-1.6-6.9-8.6-6.4s-1.1-2.9 1.6-2.7c1.5.1 4 1.1 6.5 2.9 2.8 2 5.6 3.4 5.6 3.4l2.1 5 .4-7.1s-2.3-10.3 3.1-9.2" fill="#ffbe9d"/><path d="m124.1 241.3c.3 0 28.2-4.9 32.5-1.8.3.2.4.4.5.7l.5-.1c-.1-.4-.3-.7-.7-1-4.5-3.2-31.7 1.5-32.9 1.7z" fill="#fff"/><path d="m138.8 264.6c2 0 3.2-.3 3.6-.9.2-.3.1-.6.1-.7l-.5.2.2-.1-.2.1s0 .1-.1.2c-.1.2-.7.7-3.2.7-4 0-14.9-2.6-15-2.6l-.1.5c.5.1 11.1 2.6 15.2 2.6z" fill="#fff"/><path d="m149 239.4c-.1 0 .8 2.1 1.9 4.5 1.1 2.5 2 4.5 2.1 4.5 0 0-.1-.5-.4-1.4-.3-.8-.8-2-1.3-3.2-.6-1.2-1.1-2.4-1.5-3.1-.4-.9-.7-1.3-.8-1.3z" fill="#eb996e"/><path d="m142.8 256.6c0 .1 1.1 0 2.3.5s1.9 1.3 2 1.2c.1 0-.6-1-1.9-1.5s-2.4-.3-2.4-.2z" fill="#eb996e"/><path d="m132.4 366.5s13.2 27.5 12.6 51.2h-102.6s8.5-42.8 20.1-52z" fill="#263238"/><g fill="#455a64"><path d="m98.4 411.2s.2.1.5.2.8.2 1.4.2c1.2-.1 3.1-.8 4.4-2.6.7-.9 1.1-2.1 1.4-3.3.3-1.3.3-2.7.4-4.1 0-2.9 0-6.1-.1-9.4-.1-6.7-.2-12.7-.2-17.1 0-2.2-.1-3.9-.1-5.2 0-.6 0-1.1 0-1.4s0-.5 0-.5v.5 1.4 5.2c0 4.4.1 10.5.1 17.1 0 3.3.1 6.5.1 9.4 0 1.4-.1 2.8-.3 4.1-.3 1.2-.7 2.4-1.3 3.3-1.3 1.8-3 2.5-4.2 2.6-1.4-.1-2.1-.4-2.1-.4z"/><path d="m98 371.9s.3 0 .7.1 1.1.3 1.6.9c.5.5 1 1.4.9 2.5-.1.5-.3 1-.7 1.4s-.9.7-1.5.8-1.2.1-1.7 0c-.5-.2-1-.5-1.3-.9-.6-.8-.6-1.9-.4-2.6.2-.8.6-1.3 1-1.5.3-.3.6-.4.6-.4s-.1 0-.2 0-.3.1-.5.2c-.4.3-.9.8-1.1 1.6-.3.8-.3 1.9.3 2.9.3.5.8.9 1.4 1 .6.2 1.3.2 1.9 0s1.2-.5 1.6-.9.7-1 .7-1.6c.1-1.2-.5-2.1-1.1-2.7s-1.3-.8-1.8-.8c-.2 0-.4 0-.5 0 .2-.1.1 0 .1 0z"/><path d="m77.9 374.9c.1 0 0-.5-.1-1.4 0-.8 0-2 .4-3.2s.9-2.2 1.4-2.9.9-1 .8-1.1c0 0-.5.3-1 .9-.6.6-1.2 1.7-1.6 2.9-.4 1.3-.4 2.5-.3 3.3.2 1 .4 1.5.4 1.5z"/><path d="m74.3 374.7c.1 0-.5-1.9-.2-4.2s1.5-3.9 1.4-4c0 0-.4.3-.8 1s-.8 1.7-1 2.9-.1 2.3.1 3.1c.2.7.4 1.2.5 1.2z"/><path d="m129.1 375.7s.3-.4.5-1.1.4-1.7.3-2.9c-.1-1.1-.4-2.1-.8-2.8-.3-.7-.6-1-.7-1-.1.1.9 1.6 1.1 3.8.2 2.3-.5 4-.4 4z"/><path d="m125 375.2s.3-.4.5-1c.2-.7.3-1.7.2-2.8s-.5-2-.8-2.6-.6-.9-.7-.9c-.1.1.9 1.5 1.1 3.6.3 2-.4 3.7-.3 3.7z"/><path d="m129.9 384.7s0 .1-.1.3c0 .3-.1.6-.1 1s-.1.9-.1 1.5 0 1.3.1 2c0 .4.1.8.1 1.2s.1.8.2 1.3c.1.9.4 1.8.6 2.8.5 1.9 1.3 4 2.3 6.1 1.1 2.1 2.3 3.9 3.6 5.5.7.8 1.3 1.5 1.9 2.1l.9.9c.3.3.6.5.9.8.6.5 1.1.9 1.6 1.3s.9.6 1.3.9c.3.2.6.4.8.5s.3.2.3.2-.1-.1-.3-.2c-.2-.2-.5-.3-.8-.6-.4-.2-.8-.5-1.2-.9-.5-.4-1-.8-1.6-1.3-.3-.3-.6-.5-.9-.8s-.6-.6-.9-.9c-.6-.6-1.2-1.4-1.9-2.1-1.2-1.6-2.4-3.4-3.5-5.4-1-2.1-1.8-4.1-2.3-6-.2-1-.5-1.9-.6-2.8-.1-.4-.2-.9-.2-1.3s-.1-.8-.1-1.2c-.1-.7-.1-1.4-.1-2s0-1.1 0-1.5 0-.7 0-1c.2-.3.2-.4.1-.4z"/><path d="m48.2 403.9h.4c.3 0 .6 0 1.1-.1.2 0 .5 0 .8-.1.3 0 .6-.1.9-.1.7-.1 1.4-.2 2.2-.4.4-.1.8-.2 1.3-.3.4-.1.9-.3 1.4-.4.9-.3 1.9-.7 2.9-1.2 2-1 4.1-2.2 6.2-3.7 2-1.6 3.8-3.3 5.2-5 .7-.9 1.3-1.7 1.9-2.5.3-.4.5-.8.8-1.2.2-.4.4-.8.6-1.2.4-.7.7-1.4 1-2 .1-.3.3-.6.4-.9s.2-.5.3-.7c.1-.4.3-.8.3-1 .1-.2.1-.4.1-.4s-.1.1-.2.3c-.1.3-.2.6-.4 1-.1.2-.2.5-.3.7-.1.3-.3.5-.4.8-.3.6-.6 1.3-1 2-.2.4-.4.7-.7 1.1-.2.4-.5.8-.8 1.2-.5.8-1.2 1.6-1.9 2.5-1.4 1.7-3.1 3.4-5.1 5-2 1.5-4.1 2.8-6.1 3.7-1 .4-2 .9-2.9 1.2-.5.2-.9.3-1.3.5-.4.1-.9.2-1.3.3-.8.2-1.5.4-2.2.5-.3.1-.6.1-.9.2-.3 0-.5.1-.8.1-.4.1-.8.1-1.1.1s-.4 0-.4 0z"/><path d="m366.2 218.9s-1.1-28.3-5.4-34.4-74.9 6.9-74.9 6.9l-12.6 27.5z"/></g><path d="m206.6 166.2 33.4-19.7s9.6-48.2 10-49.1c2.7-6.6 12-14 12-14l7.5 52.4-2.1 11.3c-1.3 6.8-4.6 13.1-9.6 17.6-.1 0-.1.1-.2.1-2.7 2.4-6 3.5-9.1 5.5l-33.6 12.5z" fill="#aa6550"/><path d="m304.7 45.9c-1.1-.1-2.4 0-3.1-.9-.8-1-.2-2.5.6-3.5.8-.9 1.9-1.7 2.3-2.9.5-1.4-.2-3-1.1-4.1-1.7-2.1-4.3-3.3-6.9-3.3s-5.1 1.4-6.8 3.5l-3 .2c.2 3.8.4 7.6 1.5 11.2s3.2 7 6.3 8.8c1.3.8 2.8 1.2 4.3 1 1.5-.3 2.9-1.4 3.3-2.9s-.4-3.4-1.9-3.8c1.6.2 3.3.3 4.9-.1.5-.1 1.1-.4 1.3-.9.7-1.2-.6-2.2-1.7-2.3z" fill="#263238"/><path d="m287.9 51.8c1.2-5.2 2.3-10.4 2.6-15.8.3-5.3-.3-10.8-2.4-15.6-.3-.7-3-5.6-3.7-5.5-.5.1 1.2 4.7 1 5.2-2.2 5-2.5 10.8-1.7 16.2.8 5.6 2.3 10.4 4.2 15.5" fill="#263238"/><path d="m276.9 106.7c7.8-.8 14.3-17.3 13.7-25.6l-3.8-49.7c-.6-13.4-8.5-24.1-21.1-23.1l-1.2.2c-11.7 1.7-20.2 12.6-19.5 25 .6 11.6 1.4 24.4 2.3 30.5 1.8 12.7 14 13 14 13s.3 3 .6 6.7c.7 8.4 3.8 27.7 11.8 26.8z" fill="#aa6550"/><path d="m261.4 77.1s7.6-.6 15-7.2c0 0-2.6 9.8-14.8 10.4z" fill="#894536"/><path d="m250 43.6c.1 1 .9 1.7 1.9 1.6s1.6-.9 1.6-1.9c-.1-1-.9-1.7-1.9-1.6s-1.7.9-1.6 1.9z" fill="#263238"/><path d="m248.4 38.5c.2.2 1.4-1 3.3-1.3 1.8-.3 3.3.5 3.5.3.1-.1-.2-.5-.8-.9s-1.7-.7-2.8-.5-2.1.8-2.6 1.3c-.6.5-.8 1-.6 1.1z" fill="#263238"/><path d="m267.5 40.9c.1 1 .9 1.7 1.9 1.6s1.6-.9 1.6-1.9c-.1-1-.9-1.7-1.9-1.6s-1.7.9-1.6 1.9z" fill="#263238"/><path d="m266.5 36.7c.2.2 1.4-1 3.3-1.3 1.8-.3 3.3.5 3.5.3.1-.1-.2-.5-.8-.9s-1.7-.7-2.8-.5-2.1.8-2.6 1.3-.7 1-.6 1.1z" fill="#263238"/><path d="m261.8 52.7c0-.1-1.2-.2-3.1-.1-.5 0-.9 0-1.1-.3s0-.9.1-1.5c.3-1.3.6-2.6.9-4 1.2-5.7 2.1-10.4 1.9-10.4-.2-.1-1.4 4.5-2.6 10.2-.3 1.4-.6 2.7-.8 4-.1.6-.3 1.3 0 2 .2.4.6.6.9.6.3.1.6 0 .8 0 1.9-.3 3-.4 3-.5z" fill="#263238"/><path d="m267.4 53.2c-.3 0 0 2.1-1.6 3.9-1.5 1.8-3.7 1.8-3.7 2.1 0 .1.5.3 1.4.2s2.1-.6 3.1-1.7c.9-1.1 1.2-2.4 1.2-3.3.1-.7-.2-1.2-.4-1.2z" fill="#263238"/><path d="m265.6 28.7c.3.5 2.1 0 4.3 0 2.2-.1 4 .3 4.3-.2.1-.2-.3-.7-1-1.1-.8-.4-1.9-.7-3.3-.7-1.3 0-2.5.4-3.2.9-.8.4-1.2.9-1.1 1.1z" fill="#263238"/><path d="m248.3 31.9c.4.4 1.6-.2 3.1-.5s2.9-.1 3.1-.6c.1-.2-.2-.7-.8-1s-1.6-.5-2.6-.4c-1 .2-1.9.7-2.4 1.3-.5.5-.6 1-.4 1.2z" fill="#263238"/><path d="m287.1 41.1c.2-.1 7.9-3.8 8.8 5 .9 8.7-7.6 7.8-7.6 7.6-.1-.3-1.2-12.6-1.2-12.6z" fill="#aa6550"/><path d="m290.4 50s.2.1.4.2.7.1 1.1-.1c.8-.4 1.4-2 1.3-3.6-.1-.8-.3-1.5-.6-2.1s-.7-1-1.2-1.1c-.4-.1-.7.3-.8.5-.1.3 0 .4-.1.4 0 0-.2-.1-.2-.5 0-.2.1-.4.3-.6s.5-.3.8-.3c.6 0 1.3.5 1.6 1.2.4.7.7 1.5.7 2.4.1 1.8-.6 3.5-1.7 4-.6.2-1.1.1-1.3-.1-.3 0-.3-.2-.3-.3z" fill="#894536"/><path d="m249.2 18.5c-1.4-.6 2.2-5.6 5.3-7.5 4.7-2.9 12.2-5.1 16.9-4.2 5.7 1.1 10.5 3.6 13.7 8.6s4.8 11.1 5.2 17.2c.1 1.9.1 3.8-.7 5.5-1 2.1-3.1 3.5-2.7 6.1.1 1-.1 2-.6 2.8-1.4 1.9-3.3.4-4.3-1.1-2.1-3.2-2.7-7.3-3.2-11.2-.4-2.8-.7-5.6-.2-8.4.3-1.5.8-2.9 1-4.5.2-1.5 0-3.2-1-4.3-.2-.2-.4-.4-.7-.7-2.5-1.9-5.9-2.3-8.7-.9-4.5 2.2-12.2 5.6-14.4 4.1-3.2-2.1-4.1-3.6-4.1-3.6z" fill="#263238"/><path d="m270.9 5.7c-4.7-1.2-9.8-.6-13.9 2.2-2.1 1.5-4 3.6-4.5 6.3s.9 5.7 3.3 6.5l.2.1c3.6.9 5.9.2 9.3-1.5 2.9-1.4 5.3-3.6 8.2-4.9 3-1.5 6.5-1.9 9.8-1.3-3.5-3.5-7.8-6.3-12.4-7.4z" fill="#263238"/><path d="m282.2 11.9c0 .1-1.5-.8-4.1-.5-1.3.1-2.7.6-4.2 1.4s-3 2-4.6 3.3-3.1 2.5-4.7 3.4c-1.5.9-3.1 1.4-4.4 1.6s-2.4.1-3.1-.2c-.7-.2-1.1-.4-1.1-.5s1.6.6 4.1.1c1.3-.2 2.7-.8 4.2-1.7s3-2.1 4.6-3.4 3.1-2.5 4.7-3.3 3.1-1.3 4.5-1.4c1.3-.1 2.4.1 3.1.4.7.5 1 .8 1 .8z" fill="#455a64"/><path d="m278.5 9.4c0 .1-1.4-.6-3.8-.2-1.1.2-2.5.6-3.8 1.4-1.4.8-2.7 1.8-4.1 3.1-1.4 1.2-2.7 2.5-3.9 3.5-1.3 1-2.5 1.8-3.6 2.4-1.1.5-2 .8-2.7.9s-1 .1-1 .1c0-.1 1.5-.3 3.5-1.4 1-.6 2.2-1.4 3.4-2.4s2.5-2.3 3.9-3.5 2.8-2.3 4.3-3.1c1.4-.8 2.9-1.2 4.1-1.3s2.2 0 2.9.2c.4 0 .8.3.8.3z" fill="#455a64"/><path d="m258.9 8.6c.1.1-.3.7-1 1.7-.6 1-1.5 2.4-2.1 4.1s-.6 3.3-.4 4.5c.2 1.1.6 1.8.5 1.8s-.6-.5-.9-1.7c-.4-1.2-.4-3 .2-4.8s1.6-3.2 2.3-4.1c.8-1.1 1.3-1.6 1.4-1.5z" fill="#455a64"/><path d="m253.5 13.3c.2 0-.3 1.9.4 4 .6 2.1 2 3.4 1.9 3.5 0 .1-.5-.1-1-.7-.5-.5-1.2-1.5-1.5-2.6-.4-1.2-.4-2.3-.2-3.1.1-.7.4-1.1.4-1.1z" fill="#455a64"/><path d="m290.6 32.9c.2 0 .5 1.6.4 3.7s-.9 3.7-1.1 3.6.3-1.6.4-3.6c.2-2 .2-3.7.3-3.7z" fill="#ff725e"/><path d="m260.1 85.2s1 11.4 7.9 10.4c6.9-.9 21.9-25 21.9-25 2.2.3 9.8 1.8 12.2 2.6 11.9 4.3 23.8 20.3 31.4 33.1 8.6 14.4 24.7 68.4 27.3 77.3.2.8 0 1.6-.5 2.2-3.7 3.8-18.4 18.3-30.2 20.3-13.6 2.2-42.7-8.6-46.5-12.2l1.5-14.3-27.3-59.2c-4-8.7-4.3-18.9-.6-27.9z" fill="#ff725e"/><path d="m261.9 83.4s-9.2 7.4-12 14c-.4.9-10.4 46.5-10.4 46.5l27.8 5.5 2-13.7z" fill="#ff725e"/><path d="m293.4 85-14.4 71.2-53.4 14 1.7 15.3s28.1 0 50.2-2.6c22.6-2.6 25.7-9.7 30.4-30.8 4.7-21 8.5-48.5 8.7-50.2.4-2.7-12.1-19.2-23.2-16.9z" fill="#aa6550"/><path d="m179 196.9c1 1.2 2.9 1.4 4.1.4.4.6.5 1.4.4 2.1s-.3 1.5-.2 2.2.5 1.5 1.2 1.7c.6.1 1.2-.2 1.6-.7s.5-1.1.7-1.7c.3-1.2.6-2.4.9-3.6.2.6.5 1.2 1.1 1.3.7.1 1.1-.8 1.3-1.5.1-.7.3-1.6.9-1.9.1.6.9.8 1.3.4.5-.3.6-1 .7-1.5.1-.6.1-1.2.5-1.7l-5.7-.5z" fill="#fafafa"/><path d="m177.2 167.3c.4-.5 1-.8 1.7-.7 1 0 2.6.1 3.4 0 1.3-.1 8.2-2.3 9.7-2.8 1.5-.4 4.8-.3 5.7 0 .9.2 7.4.8 7.4.8l8.8 11.9s-5.7 10.8-10.7 12.5c-5.1 1.7-10.3 4.3-10.3 4.3l-3.8.1s-7.8 4.4-9.5 3.7c-1.8-.7-2.1-1.6-2.1-1.6s-2.5 1-3.5-.4c-.9-1.3.4-3.1.4-3.1s-1.8-.5-1.9-1.4.2-2.3 1.4-3.4 9.7-8.3 11.4-9.2 2.9-2.8 3.5-4c.5-1.1-.3-3.1-2.4-2.4s-4.4.8-6 .3c-2.2-.8-5.4-2-3.2-4.6z" fill="#aa6550"/><path d="m193.4 186.6s-.3-.1-.8-.3c-.5-.1-1.3-.3-2.1-.1h-.1v-.1c-.2-.9-.6-1.9-1.5-2.5-.5-.3-1.1-.4-1.6-.3h-.3l.1-.3c.2-.6.3-1.2.2-1.7s-.2-1-.4-1.4-.3-.6-.4-.8-.2-.3-.2-.3.4.3.8 1c.2.4.4.8.5 1.4s.1 1.2-.2 1.9l-.2-.2c.6-.1 1.2 0 1.8.4.5.3.9.8 1.1 1.3.3.5.4 1 .5 1.5l-.2-.1c1-.2 1.7 0 2.2.2.6.2.8.4.8.4z" fill="#894536"/><path d="m187 183.1s-.7.5-1.9 1.2-2.8 1.8-4.5 3.1-3.2 2.5-4.3 3.4-1.7 1.5-1.8 1.4c0 0 .1-.2.4-.5l1.2-1.2c1-.9 2.5-2.2 4.2-3.5s3.3-2.3 4.5-3c.6-.3 1.1-.6 1.4-.8.6 0 .8-.1.8-.1z" fill="#894536"/><path d="m190.7 186.3s-.2.1-.5.3c-.4.2-.9.5-1.5.8-1.3.7-3 1.6-4.9 2.8-1.9 1.1-3.6 2.2-4.6 3.2-1.1 1-1.5 1.8-1.5 1.8s.1-.2.3-.6.6-.8 1.1-1.4c1.1-1.1 2.8-2.1 4.6-3.3 1.9-1.1 3.7-2 5-2.7.6-.3 1.2-.6 1.5-.7s.5-.2.5-.2z" fill="#894536"/><path d="m195.1 187.4s-.2.2-.6.4-1 .5-1.8.9c-.8.3-1.7.6-2.8.9-1.1.2-2.3.3-3.5.4-.6 0-1.2.2-1.6.5-.5.3-.7.9-.7 1.4s.2 1 .5 1.4.7.6 1.1.7c.8.3 1.4.2 1.9.1.4-.1.7-.2.7-.1 0 0-.2.1-.7.3-.4.1-1.1.3-2 0-.4-.1-.8-.4-1.2-.7-.4-.4-.6-.9-.6-1.6 0-.6.3-1.3.8-1.7s1.2-.5 1.8-.6c1.3 0 2.4-.1 3.5-.4 1.1-.2 2-.5 2.8-.8 1.4-.7 2.3-1.2 2.4-1.1z" fill="#894536"/><path d="m187.1 183.6c0 .5-.4 1-.9 1.1-.5.2-1 0-1.4-.3-.3-.2-.5-.6-.8-.6-.4 0-.7.3-1.1.2-.3-.1-.5-.6-.4-.9s.5-.7.9-.8c0 0 .8-.6 1.9-.3 1.3.2 1.8 1 1.8 1.6z" fill="#fafafa"/><path d="m209.8 173.8-.3.1-5.3 1.1c-2.1 0-2.1-3.8-2.1-3.8s-1.4 1.3-3.8 0-2-4-2-4c-2.5-.4-3.9-1.9-3.9-1.9 2.2-2.5 4.5.1 4.5.1.1-1.3 1.1-2.5 2.3-2.7 1.2-.3 2.5.4 3.1 1.5.7-1.4 2.7-1.5 3.9-.5 1.1 1 1.4 2.9.9 4.3 1.4-.2 2.8.6 3.4 1.9.5 1.2.3 2.9-.7 3.9zm-4.9-10.1c0 .1.1.3.2.3s.3-.1.3-.2-.1-.3-.2-.3-.3.1-.3.2zm-.5 1.2c0-.1-.1-.3-.2-.3s-.3.1-.3.2.1.3.2.3c.1.1.3 0 .3-.2zm.4-.9c0-.3-.1-.5-.4-.6s-.5.1-.5.4.1.5.4.6.4-.2.5-.4zm.5 2.9c0-.3-.1-.5-.4-.6-.3 0-.5.1-.5.4s.1.5.4.6c.2 0 .5-.1.5-.4zm1.1-1.7c.1-.5-.3-1-.8-1.1s-1 .3-1.1.8.3 1 .8 1.1 1-.2 1.1-.8zm.1 4.4c0-.3-.1-.5-.4-.6-.3 0-.5.1-.5.4s.1.5.4.6c.2.1.5-.1.5-.4zm.7-.6c0-.1-.1-.3-.2-.3s-.3.1-.3.2.1.3.2.3c.2.1.3 0 .3-.2zm1.4 1c.1-.4-.2-.7-.6-.8s-.7.2-.8.6.2.7.6.8c.4 0 .7-.3.8-.6zm.3.9c0-.1-.1-.3-.2-.3s-.3.1-.3.2.1.3.2.3c.2 0 .3-.1.3-.2z" fill="#ebebeb"/><path d="m202.6 187.8c-.6.6-1.4.9-2.3.9.8 1 .4 2.7-.6 3.5s-2.4.7-3.5 0c-.1 1.1-1.3 2-2.3 1.6s-1.7-1.2-1.1-2.1l1-.5c-.6-.7-.5-1.9 0-2.5.2-.2.4-.4.5-.7.1-.4-.3-.8-.6-1-.4-.2-.8-.2-1.2-.4-.6-.4-.8-1.2-.5-1.9.2-.7.9-1.1 1.5-1.2.7-.1 1.3.2 1.8.7.4-1 1.5-1.6 2.5-1.4 1 .1 1.8 1 2 2.1.5-.1 1.1-.3 1.7-.3s1.1.3 1.5.8c.4.7.2 1.8-.4 2.4zm-4 3.2c0 .1.1.2.2.2s.2-.1.2-.2-.1-.2-.2-.2-.2.1-.2.2zm-.5-6.4c-.1.4.2.7.5.8s.7-.2.7-.6-.2-.7-.5-.8c-.4 0-.7.2-.7.6zm-.8-.7c0 .1.1.3.2.3s.3-.1.3-.2-.1-.3-.2-.3c-.2-.1-.3 0-.3.2zm-1.9 8.8c.1-.4-.2-.7-.6-.8s-.7.2-.8.6.2.7.6.8c.4 0 .7-.3.8-.6zm1.1-1.4c0-.2-.1-.4-.3-.4s-.4.1-.4.3.1.4.3.4.4-.1.4-.3zm1.3-6.3c0-.2-.1-.5-.3-.5s-.4.1-.5.4c0 .2.1.5.3.5.3 0 .5-.2.5-.4zm.5 6.1c.1-.4-.2-.8-.6-.9s-.8.2-.8.6c-.1.4.2.8.6.9s.7-.2.8-.6zm.6.8c0-.2-.1-.4-.3-.4s-.4.1-.4.3.1.4.3.4c.2.1.4-.1.4-.3zm.6-.1c0-.1-.1-.2-.2-.2s-.2.1-.2.2.1.2.2.2.2-.1.2-.2zm1.8-6.2c0-.3-.1-.5-.4-.5-.2 0-.5.1-.5.4s.1.5.4.5c.2 0 .5-.2.5-.4zm.5-.4c0-.1-.1-.2-.2-.3-.1 0-.2.1-.2.2s.1.2.2.3c.1 0 .2-.1.2-.2z" fill="#fafafa"/><path d="m197.9 181.8c-.5.3-2.7.1-2.7.1s-1.4 1.1-3 .6-.4-1.4-.4-1.4-3.8-.1-4.3-1.4c-.6-1.3 1.2-1.4 1.2-1.4-.1-.7.1-1.4.6-1.9.4-.5 1.1-.8 1.7-.7-.2-.9.4-2 1.2-2.2.9-.3 1.9.2 2.2 1.1.7-.4 1.6-.2 2.1.5.5.6.6 1.6.1 2.2.4-.4 1-.1 1.3.3.2.5.2 1.1.1 1.6 0 .1.4 2.3-.1 2.6zm-8.7-4.6c0 .1 0 .1.1.1s.1 0 .1-.1 0-.1-.1-.1c0 0-.1 0-.1.1zm.3.7c0-.1-.1-.3-.2-.3s-.3.1-.3.2.1.3.2.3c.2 0 .3-.1.3-.2zm1.2-.6c0-.3-.2-.7-.5-.7-.3-.1-.6.2-.7.5 0 .3.2.7.5.7s.7-.1.7-.5zm4.8-.6c0-.1-.1-.3-.2-.3s-.3.1-.3.2.1.3.2.3c.1.1.2 0 .3-.2zm.2-.3c.3.1.6-.2.7-.5 0-.3-.2-.7-.5-.7s-.6.2-.7.5.2.6.5.7zm.6.6c0-.2-.1-.4-.3-.4s-.4.1-.4.3.1.4.3.4.4-.1.4-.3z" fill="#fafafa"/><path d="m225.7 170.2 1.7 15.7s-9.6 5.8-10.1 6.2c-.6.4-1.4.7-1.9.6s-1.2-.8-1.7-1.1c-.6-.3-1.9-.6-2.4-.5-.4.1-1.8.5-3.1.4s-4.4 1.6-5.6.4c-1.2-1.1-1.2-2.4-1.2-2.4s2.9-.7 3.4-1.4 3-3.6 3.3-4.3.8-3 .8-3-3.8-.6-4.6-.4-1.5.6-3 .9-4.2.3-4.5-.7c-.3-1.1-.3-2.2 0-2.5 0 0 3.4-2.9 4-3.3.7-.4 8.7-2.9 10.4-3.6 1.9-.6 8.5-4.1 14.5-1" fill="#aa6550"/><path d="m202.5 178.2c-.1 0-.1-.6-.3-1.3s-.4-1.2-.4-1.3c.1-.1.5.4.7 1.2s.1 1.4 0 1.4z" fill="#894536"/><path d="m214.1 188.8s-.2.4-.6.8c-.4.5-1 1.1-1.9 1.5s-1.7.5-2.4.5c-.6 0-1-.1-1-.2s.4 0 1-.1c.6 0 1.4-.2 2.2-.6s1.4-1 1.9-1.4c.5-.3.8-.6.8-.5z" fill="#894536"/><path d="m209 178.1c.1 0 .3.7.2 1.7-.1.9-.4 1.6-.5 1.6s.1-.7.2-1.6.1-1.7.1-1.7z" fill="#894536"/><path d="m208 178.8c.1-.1.5.2.7.8s.1 1.1 0 1.1-.1-.5-.3-.9c-.2-.5-.5-.9-.4-1z" fill="#894536"/><path d="m197.6 180.8s.2-.2.5-.4c.3-.3.7-.7.8-1.3s-.1-1.2-.4-1.4c-.3-.3-.5-.4-.5-.4s.3-.1.7.2c.2.1.4.4.5.7s.1.7.1 1c-.1.7-.6 1.2-1 1.4s-.7.3-.7.2z" fill="#894536"/><path d="m192.6 199.8c-.1.6-.6.9-1.1.8s-.9-.6-.8-1.1c.1-.6.6-.9 1.1-.8.5 0 .9.5.8 1.1z" fill="#fafafa"/><path d="m181.7 184.2c-.1.5-.5.9-1 .8s-.8-.6-.7-1.1.5-.9 1-.8.8.6.7 1.1z" fill="#fafafa"/><path d="m306.2 78.8s-15-6.4-18.4 16.9c-3.5 23.4-4.7 32.8-4.7 32.8l31.5 12.2 7.2-34.4s1.2-22.7-15.6-27.5z" fill="#ff725e"/><path d="m320.7 111.3s-.1.2-.1.5c-.1.4-.2.9-.3 1.6-.3 1.4-.7 3.4-1.3 5.9-1.1 5.1-2.7 12.5-4.5 21.3l.2-.1c-9.1-3.6-20-7.9-31.7-12.5-.3-.1-.6-.2-.9-.4l.1.2c1.3-8.9 2.7-17.3 4.1-24.9.7-3.8 1.4-7.4 2.2-10.8.8-3.3 2.1-6.3 3.9-8.5.9-1.1 1.9-2.1 2.9-2.8s2.1-1.2 3.2-1.4c2.1-.5 4.1-.2 5.6.1s2.7.7 3.4.9c.4.1.7.2.9.3s.3.1.3.1-.1 0-.3-.1-.5-.2-.9-.3c-.8-.3-1.9-.7-3.4-1s-3.4-.6-5.6-.1c-1.1.2-2.2.7-3.3 1.4s-2.1 1.6-3 2.8c-1.8 2.3-3.1 5.3-4 8.6-.8 3.4-1.5 7-2.2 10.8-1.4 7.6-2.8 16.1-4.1 24.9v.1h.1c.3.1.6.2.9.4 11.7 4.6 22.6 8.9 31.7 12.4l.1.1v-.2c1.8-8.9 3.4-16.2 4.4-21.4.5-2.6.9-4.6 1.2-6 .1-.7.2-1.2.3-1.6.1-.1.1-.3.1-.3z" fill="#263238"/><path d="m284.6 129s0 .2-.1.5-.2.8-.3 1.4c-.3 1.2-.6 3-1.1 5.4-1 4.7-2.4 11.5-4.2 19.9l.1-.1c-13.8 3.6-32.4 8.5-53.4 14h.1c-1.6-.8-3.5-1.3-5.4-1.3s-3.8.4-5.6.9c-1.7.5-3.2 1.3-4.8 1.8s-3.2 1.1-4.8 1.6c-.8.3-1.6.5-2.4.8l-1.2.4c-.2.1-.4.1-.6.2s-.4.2-.6.3c-1.3 1-2.6 2.1-3.8 3.1-.1.2-.2.4-.2.6v.5c0 .4 0 .7.1 1 0 .2.1.3.1.5 0 .1.1.2.1.3.1.1.1.2.2.2.3.2.6.3.9.4.6.1 1.3.2 1.9.1.6 0 1.3-.1 1.9-.3.6-.1 1.2-.4 1.8-.6l.9-.3h.9c1.2.1 2.4.2 3.6.4l-.1-.2c-.1.5-.2 1.1-.3 1.6s-.2 1.1-.5 1.5c-.5.9-1.2 1.7-1.9 2.5-.3.4-.6.8-1 1.2l-.5.6c-.1.2-.3.3-.6.4-.9.4-1.8.7-2.7.9h-.1v.1c0 .9.4 1.6.9 2.2.2.3.6.6 1 .7s.8.1 1.1.1c.7-.1 1.4-.3 2.1-.5s1.3-.4 2-.3c.7 0 1.4-.1 2-.2.3-.1.7-.2 1-.3.3 0 .6 0 .9.1.6.2 1.3.3 1.8.7.3.2.5.4.8.6.1.1.3.2.5.2.2.1.3 0 .5 0 .6-.1 1.2-.4 1.7-.8l1.5-.9c1-.6 2-1.2 3-1.8 1.9-1.2 3.7-2.3 5.4-3.3 5.1-.2 9.1-.4 11.9-.5 1.4-.1 2.4-.1 3.2-.2h.8.3s-.1 0-.3 0-.5 0-.8 0c-.7 0-1.8.1-3.2.1-2.8.1-6.8.3-11.9.5-1.7 1-3.5 2.1-5.4 3.3-1 .6-1.9 1.2-3 1.8-.5.3-1 .6-1.5.9s-1.1.6-1.6.7c-.3.1-.5 0-.8-.2s-.5-.4-.8-.6c-.5-.4-1.2-.6-1.8-.7-.3-.1-.6-.1-1-.1-.3.1-.6.2-1 .3-.6.1-1.3.2-2 .2-.7-.1-1.4.2-2.1.3-.7.2-1.4.4-2 .5-.3 0-.7 0-1 0-.3-.1-.6-.3-.8-.6-.5-.5-.8-1.3-.8-2l-.1.1c.9-.2 1.9-.5 2.8-1 .2-.1.4-.2.6-.5l.5-.6c.3-.4.6-.8 1-1.2.6-.8 1.3-1.6 1.9-2.5.3-.5.4-1 .5-1.6.1-.5.2-1.1.3-1.6v-.2h-.2c-1.2-.2-2.4-.3-3.6-.4-.3 0-.6 0-1 0-.3.1-.6.2-.9.3-.6.2-1.2.4-1.8.6s-1.2.2-1.8.3c-.6 0-1.2 0-1.9-.1-.3-.1-.6-.2-.8-.4-.1 0-.1-.1-.1-.1 0-.1-.1-.1-.1-.2 0-.2-.1-.3-.1-.5-.1-.3-.1-.7-.1-1s0-.7.2-.9c1.2-1 2.5-2.1 3.8-3.1.3-.2.7-.3 1.1-.5l1.2-.4c.8-.3 1.6-.5 2.3-.8 1.6-.5 3.2-1 4.8-1.6 1.6-.5 3.2-1.3 4.8-1.8 1.8-.6 3.7-1 5.5-.9 1.8 0 3.6.4 5.2 1.2h.1.1c20.9-5.5 39.6-10.4 53.4-14.1h.1v-.1c1.7-8.5 3.1-15.3 4.1-20 .5-2.3.8-4.2 1.1-5.4.1-.6.2-1.1.3-1.4-.2.1-.2-.1-.2-.1z" fill="#894536"/><path d="m284.2 163.6s-.1-.5-.4-1.3-.9-1.8-1.6-2.8c-.8-1-1.6-1.8-2.2-2.4-.6-.5-1.1-.8-1.1-.8-.1.1 1.6 1.3 3 3.3 1.5 2.1 2.2 4 2.3 4z" fill="#894536"/><path d="m274.6 156.9c.1 0-3.9-9.1-8.8-20.3s-9-20.2-9.1-20.1c-.1 0 3.9 9.1 8.8 20.3s9 20.2 9.1 20.1z" fill="#263238"/><path d="m319.5 129.8c0-3.7-.6-7.8-.2-11.5-1.6 7.5-3.1 14.8-4.7 22.4-1.3-.4-2.7-1.1-4-1.6-1.8 11-4.5 22.2-8.8 32.3l.5.1c6.3-6.8 8.9-10 11.6-27.1 3.3.1 4.5-.4 5.9-3.8.6-1.8-.3-5.8-.3-10.8z" opacity=".3"/><path d="m257.2 117.8s1.9 27.1 10.3 30l.7-5.1z" opacity=".3"/></svg>