<svg enable-background="new 0 0 330 303" viewBox="0 0 330 303" xmlns="http://www.w3.org/2000/svg" xmlns:xlink="http://www.w3.org/1999/xlink"><mask id="a" height="287.9" maskUnits="userSpaceOnUse" width="329.8" x="0" y="0"><path clip-rule="evenodd" d="m0 0h329.8v287.9h-329.8z" fill="#fff" fill-rule="evenodd"/></mask><g clip-rule="evenodd" fill-rule="evenodd"><path d="m83.8 282.6c-40.4-13.6-75.5-47.4-82.6-89.3s19.3-89.2 61-98.2c19.7-4.3 40.9-.5 59.8-7.7 35.5-13.6 47.5-59.6 80.3-78.8 31.6-18.5 74.9-5.2 98.4 22.8s30.4 66.6 29 103.1c-2.1 53.6-25 111.5-73.7 134.1-41.3 19.2-128.1 24.6-172.2 14" fill="#e2d3f5" mask="url(#a)"/><path d="m35 273.3c8.9 14.7 27.2 20.3 43.9 19.9s33-5.3 49.7-6.3c26.4-1.6 52.4 6.8 78.4 12.1s54.4 7.2 77.6-6.2c5.7-3.3 11.2-7.7 13.5-14s.2-14.7-5.8-17.3c-2.3-1-4.9-1.1-7.4-1.1-55.7-1.1-111.4-2.2-167.1-3.2-28.3-.5-59.6 0-80.9 19.5" fill="#beadd9"/><path d="m271.4 101.9c-3.5 3.2-4.9 8.1-1.5 11.9 3.2 3.6 9.3 4.3 13.2 1.5 9.5-6.9-.4-19.5-10.7-16.9-1.9.5-1.4 3 .5 3.1 3 .2 6.2.3 8.6 2.2 2.6 2.1 2.6 5.7.5 8.1-5.6 6.4-15.3-3-9.5-8.8.9-.7-.3-1.8-1.1-1.1" fill="#7cabff"/><path d="m176.2 180.2c.3-1.8.2-3.5 1.3-5.1 2-3.2 5-2.4 7.8-1 2.9 1.4 5.6 2.3 8.7.9 4.9-2.1 7.1-9.3 2.5-12.7-1.5-1.1-3 .7-2.8 2.1.3 2 1.3 4.1-.4 5.8-2.3 2.2-4.9.4-7.2-.6-2.4-1.1-5-1.3-7.6-.3-4.3 1.7-7.5 7.5-4 11.4.5.6 1.6.3 1.7-.5" fill="#7e2e84"/><path d="m189 95.6c.4 3 3.5 9.4 6.6 10.3 1.7.5 2.9-.7 4.2-1.6 2.4-1.7 4.7-3.5 7.1-5.2.9-.6 1.4-1.9.7-2.9-2.1-3.4-4.2-6.7-6.3-10.1-.6-.9-1.8-1.4-2.7-.8-2.6 1.9-5.4 3.7-7.8 6-1.6 1.5.5 4.1 2.3 3.1 2.6-1.5 5.1-3.6 7.5-5.4-.9-.3-1.8-.5-2.8-.8 2.1 3.4 4.2 6.7 6.3 10.1.2-1 .5-1.9.7-2.9-1.4 1.1-2.8 2.1-4.2 3.2-.7.5-3.6 3.3-4.4 3.1-.9-.2-2.4-3-3-3.7-1-1.2-1.9-2.4-3.2-3.3-.5-.5-1.1.2-1 .9" fill="#fbc580"/><path d="m159.4 126.9c-3.5 3.2-4.9 8.1-1.5 11.9 3.2 3.6 9.3 4.3 13.2 1.5 9.5-6.9-.4-19.5-10.7-16.9-1.9.5-1.4 3 .5 3.1 3 .2 6.2.3 8.6 2.2 2.6 2.1 2.6 5.7.5 8.1-5.6 6.4-15.3-3-9.5-8.8.9-.7-.3-1.8-1.1-1.1" fill="#7cabff"/><path d="m237 156.7c-1.1 6.3-2.1 12.6-3 18.9-.2 1.5.8 2.6 2.2 2.3 5.6-.9 11.1-1.7 16.6-3 1.1-.3 1.5-1.6 1-2.6-3.1-5.9-7.1-14-12.9-17.2-1.5-.8-3.6.9-2.5 2.6 1.7 2.7 4.3 4.7 6.3 7.1 2.3 2.8 4.5 5.9 6.2 9.2.5-.9.9-1.8 1.4-2.6-5.7.6-11.4 1.7-17.1 2.8.7.6 1.5 1.2 2.2 1.8.7-6.4 1.3-12.7 1.7-19.1.2-1.2-1.8-1.5-2.1-.2" fill="#ff7081"/><path d="m209.8 145.2c1.6-6 2.9-12.4 3.2-18.5.1-1.9-3.7-2.4-4.1-.5-1.4 6-1.9 12.5-1.9 18.6 0 1.3 2.4 1.7 2.8.4" fill="#ff957e"/><path d="m276.8 144.4c5.8 1.1 11.8 1.8 17.6 1.6 2.1-.1 2.1-4.1 0-4.4-5.7-.8-11.7-.6-17.3-.1-1.2.1-1.6 2.6-.3 2.9" fill="#fbc580"/><path d="m227.5 68c5.2 2.7 10.8 5.2 16.4 6.9 1.8.5 3-2.1 1.3-2.9-5.2-2.5-11.2-4.5-16.8-6-1.2-.3-2 1.4-.9 2" fill="#ff7081"/><path d="m244.9 116.4c-.1-.1-.2-.2-.3-.3-1.5-1.3-4-1.6-5.4 0-1.5 1.6-1.4 3.8 0 5.4.1.1.2.2.3.3 1.3 1.5 4.1 1.5 5.5 0 1.2-1.4 1.5-4-.1-5.4" fill="#241352"/><path d="m109.6 5.6c-6.1 2.1-11.1 7.3-13.3 13.6s-1.6 13.7 1.7 19.5c6.1 11.3 22 14.9 32.1 7.3 10-7.5 12-24.5 3.9-34.4-8.1-9.8-24.3-10.3-32.9-.9" fill="#e2d3f5"/></g><g transform="translate(-42 -106)"><path d="m202.1 234.3c.3-1.1 1-2 1.6-2.8.7-.9 1.3-1.8 1.6-2.9.2-1.1 0-2.3-.9-3 .6-.7 1.3-1.3 1.6-2.2.4-.8.4-1.9-.1-2.6s-1.7-1-2.3-.4c-.1-1.3-.2-2.7-.8-3.8-.7-1.1-2.1-2-3.3-1.5-.1-2.3-2.5-4.1-4.9-4-2.3.1-4.4 1.4-6 3.1-1.6 1.6-3 3.6-4.7 5.2-1.8 1.7-4.1 3.1-5.5 5.2-1.7 2.6-1.7 5.9-1.7 9l14.1 16c0 .1 10-10.5 11.3-15.3z" fill="#455a64"/><path d="m189.8 253.4s-6.2 30.6-8.8 29.7c-2.5-.9-20.2-18.9-20.2-18.9l13.3-17.7z" fill="#455a64"/><path d="m200.7 222.9s-.6.3-1 1.3c-.2.5-.4 1.1-.4 1.8s.2 1.6.9 2.1c.4.3.9.2 1.3 0 .3-.2.6-.4.9-.6.5-.4 1-.8 1.3-1.2.7-.7 1.1-1.2 1.1-1.2s-.5.4-1.3 1c-.4.3-.8.7-1.4 1.1-.5.3-1.2.9-1.7.5-.3-.2-.5-.5-.6-.8s-.2-.7-.2-1c0-.6.1-1.2.2-1.7.5-.8.9-1.3.9-1.3z" fill="#263238"/><path d="m200.4 228s-.4.4-.8 1.1c-.2.4-.4.9-.5 1.4-.1.6-.1 1.2.1 1.9.1.7.5 1.3 1.1 1.6.6.2 1.2.1 1.5-.2.7-.5 1-.9 1-.9 0-.1-.4.3-1.1.7-.3.2-.8.3-1.3.1-.4-.2-.7-.7-.9-1.3-.3-1.2 0-2.4.3-3.1.4-.8.6-1.3.6-1.3z" fill="#263238"/><path d="m189.7 207.6-13.9 8-3.7 14.4 4.6 1.2 3.8-2.5 4.1 5.2 8.4-5.2-5.2-6.7s.5-3.5 2.3-3c1.8.4 6.1 6.2 10.7 3.9v-1.6s-5.6.2-9.5-5.5c0 0-.9-1.7-.2-2.4s1.9-1.4 1.9-1.4z" fill="#ff725e"/><path d="m193.1 211.8 2.5-2.4-2.5-3.4-3.4 1.6z" fill="#ff725e"/><path d="m189.9 207.4c-.1.1.5 1.2 1.4 2.4s1.9 2 1.9 2c.1-.1-.7-1-1.6-2.2-.9-1.3-1.6-2.3-1.7-2.2z" fill="#263238"/><path d="m192.5 228.6s41.7 41.7 42.8 47.3-20.3 21-26.5 19.1c-3.2-1-24.6-62-24.6-62z" fill="#ebebeb"/><path d="m192.5 228.6s-.2.1-.5.3c-.4.2-.9.5-1.6.8-1.4.8-3.5 1.9-6.2 3.3h-.1v.1c2.3 6.6 6 17 10.6 29.6 2.4 6.3 5 13.2 7.9 20.5.7 1.8 1.5 3.7 2.3 5.5s1.7 3.7 2.8 5.5c.1.2.3.4.5.6l.3.3c.2.1.3.1.4.1.3.1.5.1.8.1h.8c1-.1 2.1-.4 3.1-.7 2-.7 3.9-1.6 5.7-2.7 2.6-1.5 5.1-3.2 7.4-5s4.5-3.7 6.3-5.9c.9-1.1 1.8-2.3 2.2-3.7.1-.2.1-.4.1-.5 0-.2.1-.4 0-.6 0-.4-.2-.7-.3-1.1-.2-.3-.3-.6-.5-.9l-.6-.9c-1.6-2.3-3.3-4.3-5-6.3-6.8-7.9-13.3-14.7-18.8-20.4s-9.9-10.2-13.1-13.3c-1.6-1.5-2.8-2.8-3.6-3.6-.4-.4-.7-.7-.9-.9.2-.1 0-.2 0-.2s.1.1.3.3l.9.9c.8.8 2 2.1 3.5 3.6 3.1 3.2 7.5 7.7 13 13.4 5.4 5.7 11.9 12.5 18.7 20.4 1.7 2 3.4 4 5 6.3l.6.9c.2.3.3.6.5.9.3.6.3 1.3.1 1.9-.4 1.3-1.2 2.5-2.1 3.5-1.8 2.2-4 4.1-6.3 5.9s-4.7 3.5-7.3 4.9c-1.8 1-3.7 2-5.7 2.7-1 .3-2 .6-3 .7-.2 0-.5.1-.7 0-.2 0-.5 0-.7-.1-.3 0-.4-.1-.6-.3s-.3-.4-.4-.6c-1.1-1.7-1.9-3.6-2.7-5.4s-1.6-3.7-2.3-5.5c-3-7.3-5.6-14.2-8-20.5-4.7-12.6-8.4-23-10.8-29.6v.1c2.6-1.5 4.7-2.6 6.1-3.4.7-.4 1.2-.7 1.6-.9.2.1.3-.1.3-.1z" fill="#263238"/><path d="m203.5 220.1c-.3 1.4-1 2.3-2.3 2.7-1.1.3-2.2.1-2.9-.8s-.9-2-.9-3.2c-1.7.4-3 .7-4-.6-1.1-1.4-1.3-3.6 0-6.2" fill="#455a64"/><path d="m199.4 215.2s-.2.1-.4.4-.6.7-1 1.2-.7 1.3-.8 2.2 0 2 .6 2.8c.6.9 1.7 1.3 2.6 1.3s1.7-.4 2.2-.9.7-1 .8-1.4.1-.6.1-.6c-.1 0-.1.9-1 1.8-.5.4-1.2.8-2 .8s-1.7-.4-2.3-1.2-.7-1.7-.6-2.6c.1-.8.4-1.6.7-2.1s.7-1 .9-1.3c.2-.2.2-.4.2-.4z" fill="#263238"/><path d="m193.4 211.9s-.4.5-.8 1.5c-.2.5-.3 1.1-.4 1.8 0 .7.1 1.5.5 2.2s.9 1.3 1.5 1.7c.6.3 1.2.5 1.8.5.5 0 .9-.3 1.2-.4.2-.2.3-.3.3-.4s-.5.5-1.5.5c-.9 0-2.3-.6-3-2s-.5-2.8-.2-3.8.7-1.6.6-1.6z" fill="#263238"/><path d="m188.6 220c.1.1 1-1.1 1.6-2.8.7-1.7.7-3.2.6-3.2s-.4 1.4-1 3.1c-.6 1.6-1.3 2.8-1.2 2.9z" fill="#263238"/><path d="m197.4 226s-6-6.4-7.8-6.1c-1.8.2-11.3 3.9-12 6.1s-3.4 20.6-3.4 20.6l15.7 6.9s2.3-5.1.6-11.4c-1.7-6.2-4-12.4-4-12.4l3.1-2.1c-.2 0 7.1 4.1 7.8-1.6z" fill="#455a64"/><path d="m192.6 228.8s.2.1.5.1c.3.1.8.2 1.3.2.6 0 1.3-.1 2-.6s1.1-1.5 1.1-2.6v-.1c-1.6-1.6-3.6-3.6-6-5.3-.4-.3-.8-.6-1.3-.8-.1 0-.3-.1-.4-.1s-.3 0-.4 0c-.2.1-.5.1-.7.2-.9.3-1.8.6-2.6.9-1.6.6-3.1 1.2-4.3 1.9-1.2.6-2.1 1.2-2.7 1.6-.3.2-.5.4-.7.5-.1.1-.2.2-.2.2s.3-.2 1-.6c.6-.4 1.5-.9 2.7-1.5s2.6-1.2 4.3-1.8c.8-.3 1.7-.6 2.6-.9.2-.1.5-.1.7-.2.1 0 .2-.1.3 0 .1 0 .2 0 .3.1.4.2.8.4 1.2.7 2.4 1.7 4.3 3.7 6 5.2v-.1c0 1-.4 1.8-1 2.3s-1.3.6-1.9.6-1 0-1.3-.1c-.4.2-.5.2-.5.2z" fill="#263238"/><path d="m185.9 230c.1.1.9-.4 2-1.1 1-.7 1.8-1.3 1.8-1.4s-.9.4-2 1.1c-1.1.6-1.9 1.3-1.8 1.4z" fill="#263238"/><path d="m176.5 239.1s0 .6.2 1.6.8 2.3 1.7 3.6 2 2.2 2.9 2.7 1.5.7 1.5.7c0-.1-.5-.3-1.3-.9s-1.8-1.5-2.7-2.7-1.5-2.5-1.8-3.4c-.4-1-.5-1.6-.5-1.6z" fill="#263238"/><path d="m176.4 247.4c0 .1.6.5 1.7 1.4 1 .9 2.4 2.1 3.7 3.7s2.3 3.2 2.9 4.4 1 2 1 1.9c0 0-.2-.8-.8-2.1-.6-1.2-1.5-2.9-2.8-4.5s-2.7-2.9-3.8-3.7-1.9-1.2-1.9-1.1z" fill="#263238"/><path d="m126.7 160.2c0-2.9 3.3-5 6.2-4.5 2.8.5 5 2.8 6.4 5.4 1.3 2.6 2.8 6.2 4.4 8.6 6.3 9.8 7.4 13 9.3 20.6 1.4 5.4.1 11.3-1.3 16.6s-3.8 10.4-6.4 15.2c-1.5 2.9-3.2 5.9-4.2 9.1s-1.3 6.7-.3 9.9c.1.4.3.9.1 1.3-.3.6-1.2.7-1.8.5-3.3-.9-13.3-1.5-13.8-4.9-.6-3.4 8-9.7 9.2-12.9 1.2-3.3 2.8-6.4 3.6-9.7 1.9-7.3.6-15.1.3-22.7-.2-4.3-.1-8.6-.9-12.8s-2.8-8.4-6.3-10.8c-1.4-.9-2.9-1.6-4.1-2.8-1.1-1.2-1.7-3.2-.7-4.5" fill="#263238"/><path d="m129.2 242.9s-.1-4.4-.1-4.4 12.9-2.5 15.2-19.8c1.1-8.6.4-22.6-.6-34-.9-10.3-7.9-22.8-17.9-21.5l-31.3 8.9c-3.1.4-4.1 3.1-3.9 6.2l-.2 1.5 2.6 49.2.7 11.7c.5 9.4 9.3 31.5 19.2 31.8 9.3.6 16.3-3.9 16.3-29.6z" fill="#c69481"/><path d="m140.5 197.6c.1 1.2-.8 2.2-2 2.3s-2.2-.8-2.3-1.9c-.1-1.2.8-2.2 2-2.3s2.2.7 2.3 1.9z" fill="#263238"/><path d="m118.9 199.1c.1 1.2-.8 2.2-2 2.3s-2.2-.8-2.3-1.9c-.1-1.2.8-2.2 2-2.3s2.2.8 2.3 1.9z" fill="#263238"/><path d="m140.8 192.6c-.3.3-1.9-.9-4.3-.8-2.3 0-4 1.3-4.3 1-.1-.1.1-.7.9-1.2.7-.6 2-1.1 3.4-1.2 1.5 0 2.7.5 3.4 1s1 1.1.9 1.2z" fill="#263238"/><path d="m117.9 194.3c-.3.3-1.9-.9-4.3-.8-2.3 0-4 1.3-4.3 1-.1-.1.1-.7.9-1.2.7-.6 2-1.1 3.4-1.2 1.5 0 2.7.5 3.4 1 .8.5 1 1 .9 1.2z" fill="#263238"/><path d="m126.8 210.5c0-.1 1.4-.4 3.8-.8.6-.1 1.2-.2 1.2-.6.1-.4-.1-1.1-.4-1.8-.6-1.5-1.2-3-1.9-4.6-2.6-6.5-4.5-11.9-4.2-12s2.6 5.1 5.2 11.6c.6 1.6 1.2 3.1 1.8 4.6.2.7.6 1.5.4 2.4-.1.5-.6.8-1 .9s-.7.1-1 .2c-2.4.2-3.9.2-3.9.1z" fill="#263238"/><path d="m129.1 238.5s-11.3 1-22.7-5.6c0 0 6 12 22.8 10z" fill="#936457"/><path d="m117.8 186c-.3.6-2.6.2-5.3.3-2.8.1-5 .8-5.3.2-.1-.3.3-.9 1.2-1.4.9-.6 2.4-1.1 4-1.2s3.1.3 4.1.8c1 .4 1.5 1 1.3 1.3z" fill="#263238"/><path d="m140.4 185.3c-.5.6-2.4 0-4.7.1-2.3 0-4.2.5-4.7-.1-.2-.3.1-.8.9-1.3s2.2-1 3.8-1 2.9.5 3.7 1c.9.5 1.2 1 1 1.3z" fill="#263238"/><path d="m124.5 215.3c-.6-.8-1.6-1.3-2.6-1.3-1-.1-2.3.6-3 1.5 0 0 0 0-.1.1 0 0-.1.1-.1.1-.3.3-.5.7-.5 1.2-.1 1 .5 1.9 1.3 2.5 1.2.9 3 1.1 4.3.2 1.2-1.1 1.6-3.1.7-4.3z" fill="#936457"/><path d="m119 213.2c.1 0 .2.5.6 1.3s1.1 1.8 2.1 2.4c1.1.7 2.3.8 3.1.8s1.4-.2 1.4-.1c.1.1-.4.5-1.4.7-.9.2-2.3.2-3.7-.6-1.3-.8-2-2.1-2.3-3 0-.9.1-1.5.2-1.5z" fill="#263238"/><path d="m129.6 163.6c-.3 1.7.6 3.4 1.8 4.6s2.8 2 4.2 2.9c4.5 2.9 6.7 9.1 8.8 14.1 3.7-7.2-2-16.5-6.7-22.1-.8-1-1.8-2-2.9-2.6-1.2-.6-2.6-.8-3.8-.2" fill="#263238"/><path d="m61.3 229.5c9.9-30.5 16-9.5 15-40.6-.3-8.2 9.4-19.8 14.8-25.8 6.4-7.2 16.1-10.9 25.6-11.1 3.5-.1 7.3.4 10.2 2.5s4.6 6.2 3.1 9.5l-.3 2.3c-2 3.8-6.8 4.9-11 5.2-4.2.2-8.8.1-12.2 2.7-2.9 2.2-4.2 5.8-5.4 9.2-3.9 10.9 5.4 15.5-4.8 19.8-5.9 2.5 4.2 24.1 4.2 24.1s3.3 5.2-.2 10.7z" fill="#263238"/><path d="m95.7 204.7c-.3-3.7-4.2-6-7.3-4.1-1.7 1-3 3.1-2.7 7 .6 10.3 10.7 7.6 10.7 7.3s-.4-6-.7-10.2z" fill="#c69481"/><path d="m93.1 211.1s-.2.1-.5.3-.8.3-1.3.1c-1.1-.3-2.1-2-2.3-3.9-.1-.9.1-1.8.3-2.6.3-.8.7-1.3 1.2-1.5s.9.1 1.1.4.1.5.2.5c0 0 .2-.2.1-.6-.1-.2-.2-.4-.4-.6-.3-.2-.6-.3-1-.2-.8.1-1.4.9-1.7 1.7-.4.8-.5 1.9-.4 2.9.2 2.1 1.4 4 2.9 4.3.7.1 1.3-.1 1.6-.4.1-.2.2-.4.2-.4z" fill="#263238"/><path d="m96.9 218.1s.1.2 0 .6-.4.9-.9 1.3-1.4.6-2.3.3c-.8-.3-1.6-1-2-2s-.4-2-.2-2.8c.2-.9.6-1.6 1.1-2.1.9-1 1.8-1.1 1.8-1s-.8.3-1.5 1.2c-.4.5-.7 1.1-.9 1.9s-.1 1.7.2 2.6 1 1.5 1.7 1.8 1.5.2 2-.1.8-.7.9-1c.1-.5.1-.7.1-.7z" fill="#fff"/><path d="m84.6 231.6s-.4 0-1-.3-1.4-1.1-1.7-2.4c-.4-1.3.1-3 1.1-4.6.5-.8 1.1-1.7 1.7-2.6s1.2-2 1.5-3.2.1-2.6-.4-3.8c-.6-1.2-1.4-2.3-2.3-3.5-.8-1.1-1.7-2.3-2.1-3.8-.5-1.4-.6-3-.3-4.6.2-1.6.8-3.1 1.8-4.4s2.4-2.3 3.8-3.3 2.9-2 4.1-3.4 2-3.2 2.5-5c.9-3.6 1-7.3 1.8-10.7s2.6-6.3 4.8-8.6 4.8-3.9 7.3-5c2.6-1.1 5.2-1.6 7.5-1.8 4.8-.4 8.6.5 11.1 1.3 1.3.4 2.2.8 2.9 1.1.3.1.6.2.7.3.2.1.3.1.3.1s-1.3-.7-3.8-1.6-6.4-1.8-11.2-1.5c-2.4.2-5 .7-7.6 1.8s-5.2 2.8-7.5 5.1c-2.2 2.3-4.1 5.3-4.9 8.8-.9 3.4-.9 7.1-1.8 10.7-.5 1.8-1.2 3.5-2.4 4.8-1.1 1.4-2.6 2.4-4 3.4s-2.8 2.1-3.8 3.4c-1.1 1.4-1.7 3-1.9 4.6s-.1 3.3.4 4.7c.5 1.5 1.3 2.7 2.2 3.9.8 1.1 1.7 2.2 2.2 3.4.6 1.2.7 2.5.4 3.6-.3 1.2-.8 2.2-1.4 3.1s-1.2 1.8-1.6 2.6c-1 1.7-1.4 3.4-1 4.8.4 1.3 1.2 2.2 1.8 2.5.3.2.6.2.8.2-.1-.1 0-.1 0-.1z" fill="#e0e0e0"/><path d="m78.1 182.3c.2-3-1.5-6.1-4.1-7.6s-6.1-1.2-8.5.6-3.6 5.2-2.8 8.2c.7 3 3.4 5.3 6.3 5.7 3.5.5 6.8-1.6 9.7-3.8" fill="#263238"/><path d="m108 206.8c.1 0 .4-.6 1.1-1.4s2-1.7 3.7-2c1.6-.3 3.2.2 4.1.8 1 .5 1.4 1.1 1.5 1 0 0-.1-.2-.3-.4s-.6-.5-1-.9c-1-.6-2.5-1.2-4.3-.9s-3.1 1.3-3.8 2.2c-.4.4-.6.8-.7 1.1-.3.3-.4.5-.3.5z" fill="#936457"/><path d="m95.9 203.1s.1-.2.2-.6.2-1 .3-1.7c.2-1.5.1-3.8 0-6.5s0-6 .9-9.5c.8-3.5 2.5-7.2 5.3-10.2 1.4-1.5 3-2.7 4.7-3.6s3.5-1.4 5.2-1.7c3.5-.5 6.7-.5 9.4-1.1 2.7-.5 4.7-1.5 5.9-2.5.6-.5 1-.9 1.3-1.2s.4-.5.4-.5-.5.7-1.7 1.6-3.2 1.8-5.8 2.3-5.8.5-9.4 1c-1.8.3-3.6.8-5.4 1.7-1.7.9-3.4 2.1-4.8 3.7-2.9 3-4.6 6.8-5.4 10.4-.8 3.5-.9 6.9-.8 9.6.2 2.7.3 4.9.1 6.5-.1.8-.2 1.3-.3 1.7 0 .4-.1.6-.1.6z" fill="#e0e0e0"/><path d="m63.3 178.1s.1.2.3.6.7.9 1.2 1.4c1.1 1.1 2.8 2.5 5.1 3.2s4.6.2 6-.3c.7-.3 1.3-.6 1.6-.9.4-.2.5-.4.5-.4 0-.1-.8.5-2.3 1-1.4.5-3.6.9-5.8.2s-3.9-2.1-5-3.1c-1-1-1.5-1.8-1.6-1.7z" fill="#e0e0e0"/><path d="m63.5 185.3s.2.1.5.3c.4.2.9.4 1.6.6 1.4.4 3.4.8 5.5.5 1.1-.2 2.1-.5 3-.8.9-.4 1.6-.8 2.2-1.2s1-.8 1.3-1.1.4-.5.4-.5c-.1-.1-.7.6-1.9 1.4-.6.4-1.3.8-2.2 1.1s-1.8.6-2.9.8c-2.1.3-4.1 0-5.4-.3-1.3-.5-2.1-.8-2.1-.8z" fill="#e0e0e0"/><path d="m76.4 186.1s.1.2.5.6c.4.3 1 .8 1.8 1 .9.3 2 .4 3.3 0 1.3-.3 2.6-1.2 3.7-2.4s2-2.9 2.7-4.7 1.2-3.9 1.8-5.9c1.3-4.1 3.1-8.7 6.3-12.5 1.6-1.9 3.5-3.4 5.6-4.5s4.2-1.7 6.3-2.1c4.2-.7 8.1-.2 11.2.6s5.6 1.8 7.2 2.6c.8.4 1.5.7 1.9.9.2.1.4.2.5.2.1.1.2.1.2.1s0 0-.2-.1c-.1-.1-.3-.2-.5-.3-.4-.2-1-.6-1.9-1-1.6-.8-4.1-1.9-7.2-2.7s-7.1-1.4-11.4-.7c-2.1.4-4.3 1-6.4 2.1s-4.1 2.6-5.7 4.6c-1.6 1.9-2.9 4.1-3.9 6.2-1 2.2-1.8 4.3-2.4 6.4-.7 2.1-1.1 4.1-1.8 5.9-.6 1.8-1.5 3.4-2.6 4.6s-2.3 2-3.5 2.4-2.4.3-3.2 0c-.9-.2-1.5-.6-1.8-.9-.4-.2-.5-.4-.5-.4z" fill="#e0e0e0"/><path d="m161.7 265.3-21.3 17 12.3 27.5 24.1-29.8z" fill="#ff725e"/><path d="m161.7 265.3-21.3 17 12.3 27.5 24.1-29.8z" opacity=".3"/><path d="m145 275.7c7.7 10 10.9 18.1 13.3 31.2 2.7 15.1-.2 46.2-.2 46.2l5.3 55.9h-104.8c-6.7-13.3 13.8-54.5 16.9-59.8 3.8-6.4-6.8-39.8-11-55.8-2.4-9.3-3.5-18.1-1.1-26.8 1.6-6.1 5.4-11.3 10.5-14.8l19-11.6c.5 0 22.1 17.6 30.3 17.9 6.6.2 5.2-9.6 5.2-9.6z" fill="#ff725e"/><path d="m64.3 280.9s40.9 27.6 53.2 34.1c12.5 6.6 35.5 13 44.7 10.5 18.9-5 55.8-57.7 55.5-59-1.5-6.6-11.2-14.9-11.2-14.9l-52.2 30.7c-5.8-.7-42.9-14.6-56.4-24.7" fill="#ff725e"/><path d="m214.5 271.7s-.1.1-.2.4c-.2.2-.4.6-.7 1.1-.6 1-1.5 2.3-2.8 4.1-2.5 3.5-6.2 8.4-11 14.3s-10.7 12.9-17.7 20.1c-1.8 1.8-3.6 3.6-5.5 5.4-2 1.7-4 3.5-6.4 4.8-1.2.6-2.4 1.3-3.7 1.9-1.2.6-2.5 1.3-3.8 1.7s-2.7.7-4.1.7c-.7 0-1.4 0-2.1-.1s-1.4-.2-2.1-.3c-11.4-1.7-22.1-4.3-31.6-7.5-9.5-3.1-17.8-6.7-24.7-9.9s-12.4-6-16.1-7.9c-1.9-1-3.3-1.7-4.3-2.2-.5-.2-.9-.4-1.1-.6-.3-.1-.4-.2-.4-.2s.1.1.4.2.6.3 1.1.6c1 .5 2.5 1.3 4.3 2.3 3.8 2 9.2 4.8 16.1 8s15.2 6.8 24.7 10 20.2 5.8 31.6 7.6c.7.1 1.4.2 2.1.3s1.4.1 2.2.1c1.4 0 2.9-.3 4.2-.7 1.4-.4 2.6-1.1 3.8-1.7s2.5-1.3 3.7-1.9c2.5-1.3 4.5-3.1 6.5-4.8 2-1.8 3.8-3.6 5.6-5.4 7-7.3 12.8-14.3 17.7-20.2 4.8-6 8.5-10.9 11-14.4 1.2-1.8 2.1-3.1 2.7-4.1.4-1.1.6-1.7.6-1.7z" fill="#263238"/><path d="m157 300.2c.1 0 0-1-.1-2.6s-.3-3.9-.6-6.4-.7-4.7-1.1-6.3c-.2-.8-.4-1.4-.5-1.9-.2-.4-.2-.7-.3-.7s.2 1 .5 2.6.7 3.8 1 6.3c.3 2.4.5 4.6.7 6.4.2 1.6.4 2.6.4 2.6z" fill="#263238"/><path d="m153.2 300.2c.1 0 .1-1 .2-2.6.1-1.7.2-3.9.3-6.3.1-2.5.3-4.7.4-6.3.2-1.6.3-2.6.2-2.6 0 0-.1.2-.2.7-.1.4-.2 1.1-.3 1.9-.2 1.6-.4 3.8-.5 6.3s-.1 4.7-.1 6.3z" fill="#263238"/><path d="m65.2 277.5s0-.1-.1-.3c0-.2-.1-.5-.2-.8-.1-.4-.1-.8-.2-1.4s0-1.2-.1-1.9c.1-2.9.8-7.1 3.1-11.7.6-1.1 1.3-2.3 2.2-3.4.4-.6.9-1 1.4-1.6.6-.4 1.1-.9 1.8-1.3 2.6-1.4 5.8-2.1 9.2-2 3.3 0 6.8.7 10.3 2 3.4 1.3 6.8 3.1 10.1 5.1s6.5 4.2 9.6 6.1c3.2 1.9 6.3 3.6 9.4 5 6.1 2.9 11.9 4.9 16.7 6.5 4.9 1.6 8.8 2.7 11.6 3.4 1.4.4 2.4.6 3.2.8.3.1.6.2.8.2s.3.1.3.1-.1 0-.3-.1-.5-.1-.8-.2c-.7-.2-1.8-.5-3.2-.9-2.7-.8-6.7-1.9-11.5-3.5s-10.6-3.7-16.7-6.6c-3.1-1.4-6.2-3.1-9.3-5s-6.3-4-9.6-6.1c-3.3-2-6.7-3.9-10.2-5.1-3.5-1.3-7-2-10.4-2s-6.6.7-9.3 2.1c-.7.3-1.3.8-1.8 1.3s-1.1 1-1.5 1.6c-.9 1.1-1.6 2.3-2.2 3.4-2.4 4.7-3 9-3 11.8 0 .7 0 1.4.1 1.9.1.6.1 1 .2 1.4s.2.6.2.8c.1.3.1.4.2.4z" fill="#263238"/><path d="m149.2 325c-25.4 5.3-50.4-4.4-67.3-24.4 22.2 11.4 42.8 19.9 67.3 24.4z" opacity=".3"/><path d="m92.3 348.7s.2.1.5.1c.4.1.8.2 1.4.3 1.2.2 2.9.6 5 1.1 4.2.9 10 2.3 16.3 4.2s12 3.8 16 5.3c2 .8 3.7 1.4 4.8 1.8.5.2 1 .4 1.3.5s.5.2.5.1c0 0-.1-.1-.4-.2s-.8-.3-1.3-.6c-1.1-.5-2.7-1.1-4.7-1.9-4-1.6-9.7-3.6-16-5.5s-12.1-3.2-16.4-4.1c-2.1-.4-3.8-.8-5-1-.6-.1-1-.2-1.4-.2-.4.1-.6.1-.6.1z" fill="#263238"/><g opacity=".3"><path d="m154.4 283.1c0 .1 0 .1 0 0z"/><path d="m154.4 282.3c1.5 5 2.2 11.1 2 16.4-.1 1.5-.4 3.4-1.8 3.9-1.5-6.3-1.1-13.7-.2-20.3z"/></g><path d="m197.6 261.3c-.1.2-.2.5 0 .9.2.3.6.7 1.2.9s1.4.3 2.1.1c.4-.1.8-.2 1.2-.4s.7-.3 1.1-.5c.6-.3 1.2-.6 1.4-.5s.1.2.4.3c.2.1.7.4 1.2.7s1.3.9 2.3 1.5 2.4 1.2 4.1 1.4c.8.1 1.7 0 2.4-.1.8-.2 1.4-.4 2-.7 1.1-.6 1.9-1.2 2.5-1.7s1.1-1.1 1.5-1.5c.8-.9 1.2-1.4 1.7-2 .1-.1.2-.3.3-.4s.2-.2.3-.4c.2-.2.3-.5.4-.8 0-.3 0-.5-.2-.8-.1-.1-.2-.3-.4-.4s-.4-.2-.6-.3c-1-.4-2.6-.3-4.1.1-.7.2-1.5.5-2.1.7-.7.3-1.3.5-1.8.5-.5.1-.7 0-.8-.1-.2-.1-.6-.2-1.3-.6s-1.5-.9-2.6-1.5c-1.1-.5-2.3-1-3.8-1.1-.7-.1-1.5 0-2.3.2s-1.5.5-2.1.9c-1.1.8-1.6 1.5-2 2s-.4.8-.6 1.1c-.1.3-.3.6-.4.8s-.3.5-.5.7c-.1.5-.3.7-.5 1z" fill="#ff725e"/><path d="m220.1 221c.3-1.4 1.3-2.4 2.4-3.3 3.1-2.5 6.8-4.3 10.6-5.6 3-1.1 6.1-1.9 9.2-1.6s6.3 1.7 7.9 4.5c1.4 2.4 1.6 5.4 2.8 7.9 1.8 3.6 5.5 5.6 8 8.7 3.2 3.9 4.3 9.5 2.8 14.3-2 6.3-7.6 10.5-12.9 14.2-1.4 1-2.9 2-4.6 2.3-2.5.4-5-.8-6.8-2.5-1.8-1.8-3-4.1-4.2-6.3l-10.9-26c-1.8-1.5-4.7-4.2-4.3-6.6z" fill="#ebebeb"/><path d="m220.1 221s0 .2-.1.5c0 .4.1.9.4 1.5.6 1.3 1.9 2.9 4 4.5 2.4 5.8 6.2 14.9 10.8 26.1 1.2 2.4 2.5 5 4.8 6.9 1.1 1 2.5 1.7 4 2 .8.1 1.5.2 2.3 0 .8-.1 1.5-.4 2.2-.8 1.4-.7 2.6-1.7 3.9-2.6s2.6-1.9 3.8-3c2.5-2.1 4.9-4.6 6.5-7.6.6-1.1 1.1-2.3 1.4-3.6.3-1.2.4-2.5.4-3.8 0-2.5-.6-5-1.8-7.1-.6-1.1-1.2-2.1-2-3s-1.6-1.7-2.5-2.5c-1.7-1.5-3.4-3-4.6-4.8s-1.6-4-2.2-6c-.3-1-.7-2-1.2-2.9s-1.2-1.7-2-2.3c-1.5-1.2-3.4-2-5.2-2.2-1.8-.3-3.6-.2-5.2.1s-3.1.7-4.5 1.2-2.7 1-3.9 1.5c-2.4 1.1-4.4 2.2-5.9 3.3s-2.6 2.1-3.1 2.9c-.3.4-.4.8-.5 1 .2.6.2.7.2.7s.1-.5.6-1.4c.5-.8 1.6-1.8 3.1-2.8 1.5-1.1 3.5-2.2 5.9-3.2 1.2-.5 2.5-1 3.9-1.5s2.9-.9 4.5-1.2 3.3-.4 5.1-.1c1.7.3 3.5 1 5 2.2.7.6 1.4 1.3 1.9 2.2s.8 1.8 1.1 2.8c.6 2 1 4.2 2.2 6.1s3 3.4 4.7 4.9c.8.8 1.7 1.6 2.5 2.4.8.9 1.4 1.8 2 2.9 1.1 2.1 1.7 4.5 1.7 7 0 1.2-.1 2.5-.4 3.7s-.8 2.4-1.3 3.5c-1.6 3-3.9 5.4-6.4 7.5-1.2 1-2.5 2-3.8 3-1.3.9-2.5 1.9-3.9 2.6-.7.4-1.4.6-2.1.8-.7.1-1.5.1-2.2 0-1.4-.3-2.8-1-3.8-1.9-2.2-1.9-3.5-4.5-4.7-6.8-4.7-11.1-8.5-20.2-10.9-26-2.1-1.6-3.5-3.2-4-4.4-.9-1.5-.6-2.3-.7-2.3z" fill="#263238"/><path d="m243.9 243.7s.5.8 1.5 1.9 2.3 2.7 3.8 4.4 3 3.1 3.5 4.5c.6 1.3.3 2.3.4 2.3 0 0 .4-1-.2-2.4-.5-1.5-2-2.9-3.5-4.6s-2.9-3.2-3.9-4.3c-.9-1.2-1.6-1.9-1.6-1.8z" fill="#263238"/><path d="m224.5 227.5c-.1.7-7.3 8.8-7.3 8.8l-6.5 11.3 11.6 13.4 16-7.5s10.6-2.2 12.9-2.6c1.8-.3 2-2.3 1-2.8s-12.5.4-12.5-1 15.9-11.1 17.4-13.1c1.1-1.4 1.1-3.4-1.4-2.8-2.6.6-9 3.3-9 3.3s9.2-6.1 8.2-8.2-2.3-.8-4.6-.2-9.3 5.2-9.3 5.2c.2.1 9.7-6.7 7.5-9.5-.8-1-2.5-.3-5.5 1.6-3.1 2-14 8.1-15.4 7.2-1.6-.7-3.1-3.1-3.1-3.1z" fill="#455a64"/><path d="m222.3 261.1s-12.5 23.4-14.4 22.8-21-21.4-21-21.4l23.8-14.8z" fill="#455a64"/><path d="m214.3 249.9s.6.4 1.8.9c1.1.5 2.8 1 4.6 1.3 1.8.4 3.5.5 4.8.5 1.2 0 2-.1 2-.1 0-.1-.8-.1-2-.1-1.2-.1-2.9-.2-4.7-.6s-3.4-.8-4.6-1.2c-1.1-.5-1.8-.7-1.9-.7z" fill="#263238"/><path d="m214.5 253.1c-.1.1 1.4 1 3.4 1.7s3.7.9 3.7.8-1.6-.5-3.6-1.2c-1.9-.6-3.4-1.4-3.5-1.3z" fill="#263238"/><path d="m225.2 230.4c-.1.1 1.5 1.3 3.8 2 2.3.8 4.2.9 4.2.8s-1.9-.4-4.1-1.1c-2.2-.8-3.8-1.8-3.9-1.7z" fill="#263238"/><path d="m235.9 241.5s.8-.1 2-.6 2.8-1.2 4.5-2.3c1.7-1 3-2.2 4-3 .9-.9 1.5-1.5 1.4-1.5 0 0-.6.5-1.6 1.3s-2.4 1.9-4 2.9-3.2 1.8-4.4 2.3c-1.2.6-1.9.8-1.9.9z" fill="#263238"/><path d="m233.1 236s.7-.1 1.7-.5c1.1-.4 2.5-1 4-1.9 1.5-.8 2.8-1.8 3.6-2.5.9-.7 1.4-1.2 1.3-1.2 0 0-.6.4-1.5 1s-2.2 1.5-3.7 2.3-2.9 1.5-3.9 1.9c-.9.6-1.5.9-1.5.9z" fill="#263238"/><path d="m225.9 220.6s0-.1.1-.3.3-.4.7-.5.9 0 1.1.5c.3.5.3 1.2-.2 1.8-.4.6-1.1 1-1.9 1.1-.8.2-1.8.1-2.4-.6s-.6-1.8-.2-2.7 1.1-1.8 2-2.4 2-.6 2.9-.2 1.6 1.2 2.3 1.9c1.2 1.5 2.2 3 2.9 4.3s1.2 2.4 1.5 3.1c.3.8.5 1.2.5 1.2s0-.1-.1-.3-.2-.5-.3-.9c-.3-.8-.7-1.9-1.4-3.2s-1.6-2.8-2.9-4.4c-.6-.8-1.4-1.5-2.4-2-.5-.2-1.1-.4-1.6-.3-.6 0-1.1.2-1.6.5-1 .6-1.7 1.5-2.2 2.6-.2.5-.3 1.1-.3 1.6s.2 1.1.6 1.5c.7.8 1.9.9 2.7.7.9-.2 1.6-.6 2.1-1.3.5-.6.5-1.5.1-2-.2-.3-.4-.5-.7-.6s-.5-.1-.7 0c-.4.1-.7.4-.7.6 0 .1.1.3.1.3z" fill="#263238"/><path d="m263.7 240.6c0 .1.5.1 1-.1s.9-.4.8-.5c0-.1-.5-.1-1 .1-.4.2-.8.4-.8.5z" fill="#263238"/><path d="m263.7 240c.1.1.5-.1 1-.5s.9-.7.8-.8-.5.1-1 .5c-.5.3-.9.7-.8.8z" fill="#263238"/><path d="m263.5 239.2c.1.1.4-.3.7-.7.3-.5.5-.9.4-.9-.1-.1-.4.3-.7.7s-.5.8-.4.9z" fill="#263238"/><path d="m235.5 209.2c-.1 0-.1.7 0 1.5s.3 1.4.4 1.4.1-.7 0-1.5-.3-1.4-.4-1.4z" fill="#263238"/><path d="m234.2 210.7c-.1 0-.1.4.1.8.1.4.4.6.5.6s.1-.4-.1-.8c-.2-.3-.4-.6-.5-.6z" fill="#263238"/><path d="m232.6 211.5c-.1.1.1.4.5.8.3.4.7.6.8.5s-.1-.4-.5-.8c-.4-.3-.8-.6-.8-.5z" fill="#263238"/><path d="m227.6 228.7c.1.1.3-.2.5-.6s.3-.8.2-.8c-.1-.1-.3.2-.5.6s-.3.8-.2.8z" fill="#263238"/><path d="m226.8 228.3c.1.1.4-.1.6-.4.3-.3.4-.6.3-.7s-.4.1-.6.4c-.3.3-.4.6-.3.7z" fill="#263238"/><path d="m225.6 227.4c.1.1.4-.1.9-.2s.9-.2.9-.3-.4-.2-1-.1c-.5.1-.8.5-.8.6z" fill="#263238"/><path d="m256.4 245c.1 0 .3-.5.4-1.1s.1-1.2 0-1.2-.3.5-.4 1.1-.2 1.2 0 1.2z" fill="#263238"/><path d="m255 244.1c.1 0 .3-.3.5-.7s.3-.8.2-.9c-.1 0-.3.3-.5.7s-.3.8-.2.9z" fill="#263238"/><path d="m253.4 243.8c.1.1.4-.4.9-.7.5-.4.9-.5.9-.7 0-.1-.6-.1-1.1.3-.7.5-.8 1.1-.7 1.1z" fill="#263238"/><path d="m244.8 258.8c.1 0 .3-.3.3-.7s-.2-.7-.3-.7-.1.3 0 .7c-.1.4-.1.7 0 .7z" fill="#263238"/><path d="m243.5 258.7c.1 0 .3-.3.3-.7.1-.4.1-.7 0-.8-.1 0-.3.3-.3.7-.1.5-.1.8 0 .8z" fill="#263238"/><path d="m242 258.7c.1.1.4-.2.8-.6.3-.4.6-.8.5-.9s-.4.2-.8.6c-.3.5-.5.9-.5.9z" fill="#263238"/><path d="m239.6 217.4c-.1 0-.2.5-.3 1.1s-.2 1.1-.1 1.2c.1 0 .4-.4.5-1.1 0-.6 0-1.2-.1-1.2z" fill="#263238"/><path d="m238.1 217.3c-.1 0 0 .4 0 .9.1.5.1.9.2.9s.3-.4.2-.9c-.1-.6-.3-1-.4-.9z" fill="#263238"/><path d="m237 217.8c-.1 0-.2.4-.1.8s.4.7.5.6 0-.4-.1-.8c-.1-.3-.2-.6-.3-.6z" fill="#263238"/></g></svg>