<svg enable-background="new 0 0 283 314" viewBox="0 0 283 314" xmlns="http://www.w3.org/2000/svg" xmlns:xlink="http://www.w3.org/1999/xlink"><clipPath id="a"><path d="m79.5 278.1h12.3c18.3 0 33.2-14.9 33.2-33.2v-32.4c0-18.3-14.9-33.2-33.2-33.2h-12.3c-18.3 0-33.2 14.9-33.2 33.2v32.4c.1 18.3 14.9 33.2 33.2 33.2z"/></clipPath><clipPath id="b"><path d="m56.7 179.6h57.9c3.8 0 6.8-3.1 6.8-6.8v-6.7c0-3.8-3.1-6.8-6.8-6.8h-57.9c-3.8 0-6.8 3.1-6.8 6.8v6.7c0 3.8 3.1 6.8 6.8 6.8z"/></clipPath><clipPath id="c"><path d="m98.1 82.4c-5.1-1.4-10.3 1.4-13.9 4.8-3 2.9-5.3 6.4-7.6 9.9-2.9 4.5-6.5 9.4-10 13.5-2.5 2.9-6.2 7.9-4.9 12.1.6 1.8 1.8 3.2 3.1 4.6 6.1 6.8 14 12.8 22.2 16.9 2.7-2.7 4.8-6.4 5.6-10.1-3.2-5.2-6.5-11.3-11.1-15.3 3.5-4.2 6.6-7.8 9.7-12.3 4.1-5.8 7.9-12.5 7.4-19.6"/></clipPath><clipPath id="d"><path d="m65.6 270.8-1.2 11.1s-8.3 7.7-8.7 9.1c-.5 1.4 3.5 2.9 7.6 2.3 4.1-.7 8.1-3.8 11-4.1s4-2.3 4.5-5.9 1.6-11 1.6-11z"/></clipPath><clipPath id="e"><path d="m144.7 271.5 1.9 11s8.9 7.1 9.3 8.5c.4 1.3-3.3 3.1-7.4 2.7s-8.3-3.3-11.2-3.4-4.2-2-4.8-5.6-2.3-10.9-2.3-10.9z"/></clipPath><clipPath id="f"><path d="m125.6 129.5-5.8.4c3.6-1.2 5.8-2.4 5.8-2.4l-1-32.8-11.3-11s-2.3 4.6-8.5 5-7.8-3-7.8-3l-6.1 10.3 1.1 33.8c1.9.7 3.7 1.3 5.6 1.7l-5.6.4s-15.1 52.4-18.8 75.3-8.9 64.8-8.9 64.8 9.8 4.1 17.5 1.6c0 0 17.9-66.4 23.8-98.1 0 0 10.1 40.9 11.4 48.3s11.4 51.4 11.4 51.4 16 2 19.5-4.7c-.2 0-6.1-90.1-22.3-141z"/></clipPath><clipPath id="g"><path d="m113.3 83.6s-1.5 4.2-3.8 5.1c0 0 0 45.1 2.1 65.9s9.7 46.1 9.7 46.1 17.5.5 29.8-7l-14.3-45.3-3-32.7s15.6 14.5 24.1 20.9l3.5-17.3s-8.6-8.3-12.7-14.2c-4.3-5.8-14-22.4-35.4-21.5z"/></clipPath><clipPath id="h"><path d="m222.6 26.2-60.4-2.7-7.2-.3c-3.2-.1-5.9 2.3-6 5.5l-11.9 263.6c-.1 3.2 2.3 5.9 5.5 6l7.2.3 27.7 1.2 25.5 1.1 7.2.3c3.2.1 5.9-2.3 6-5.5l11.9-263.6c.2-3.1-2.3-5.8-5.5-5.9z"/></clipPath><ellipse cx="137.7" cy="286.3" fill="#332956" opacity=".3" rx="115.7" ry="20.3"/><path d="m79.5 278.1h12.3c18.3 0 33.2-14.9 33.2-33.2v-32.4c0-18.3-14.9-33.2-33.2-33.2h-12.3c-18.3 0-33.2 14.9-33.2 33.2v32.4c.1 18.3 14.9 33.2 33.2 33.2z" fill="#edf4fc"/><path d="m56.7 179.6h57.9c3.8 0 6.8-3.1 6.8-6.8v-6.7c0-3.8-3.1-6.8-6.8-6.8h-57.9c-3.8 0-6.8 3.1-6.8 6.8v6.7c0 3.8 3.1 6.8 6.8 6.8z" fill="#5e5682"/><path d="m46.4 205.5h70.2v46.3h-70.2z" fill="#fff" transform="matrix(-1 0 0 -1 162.8912 457.3142)"/><path d="m46.4 205.5h70.2v13.2h-70.2z" fill="#ffa25a" transform="matrix(-1 0 0 -1 162.8912 424.166)"/><path d="m92.8 244.4h10.4c3.2 0 5.9-2.6 5.9-5.9v-7.9c0-3.2-2.6-5.9-5.9-5.9h-10.4c-3.2 0-5.9 2.6-5.9 5.9v7.9c.1 3.2 2.7 5.9 5.9 5.9z" fill="#ffa25a"/><path d="m46.4 236.2h36.4v8.1h-36.4z" fill="#ffa25a" transform="matrix(-1 0 0 -1 129.1225 480.5484)"/><path d="m46.4 224h35.1v2.7h-35.1z" fill="#332956"/><path d="m46.4 229h28v2.7h-28z" fill="#332956"/><path d="m49.9 164.2h71.6v2.5h-71.6z" fill="#332956" transform="matrix(-1 0 0 -1 171.3523 330.8575)"/><path clip-path="url(#a)" d="m124.1 178.4c-.7 23-11.1 45.5-28 61s-40.3 23.9-63.2 22.6c2.6 6.2 3.4 12.4 4.7 19 30 .5 61.2.3 91.2-1 4.4-24.5 8.3-49 12.8-73.5 1.4-8 2.9-16.2 1.3-24.2" fill="#231f20"/><g clip-path="url(#b)" fill="#332956"><path d="m52.8 165.9h.9v14.5h-.9z"/><path d="m56.9 165.9h.9v14.5h-.9z"/><path d="m60.9 165.9h.9v14.5h-.9z"/><path d="m65 165.9h.9v14.5h-.9z"/><path d="m69 165.9h.9v14.5h-.9z"/><path d="m73.1 165.9h.9v14.5h-.9z"/><path d="m77.1 165.9h.9v14.5h-.9z"/><path d="m81.2 165.9h.9v14.5h-.9z"/><path d="m85.2 165.9h.9v14.5h-.9z"/><path d="m89.3 165.9h.9v14.5h-.9z"/><path d="m93.3 165.9h.9v14.5h-.9z"/><path d="m97.4 165.9h.9v14.5h-.9z"/><path d="m101.4 165.9h.9v14.5h-.9z"/><path d="m105.5 165.9h.9v14.5h-.9z"/><path d="m109.5 165.9h.9v14.5h-.9z"/><path d="m113.6 165.9h.9v14.5h-.9z"/><path d="m117.6 165.9h.9v14.5h-.9z"/></g><path d="m81.9 139.3c-1.9 2.9-2.1 6-2.4 9.3-1.3.2-2.8 0-4.2.2-.6.1-1.2.2-1.7.5s-.9.8-.9 1.4.3 1.1.7 1.5c2 2 5.3 2 8 2.1-1.3 0-2.8-.2-4.1-.2-.4 0-.8 0-1.1.3-.7.6.2 1.7 1 2.1 3.9 1.7 8.8-.4 11.1-3.9 2.4-3.6 2.7-8.1 2.2-12.4" fill="#ffb6c9"/><path d="m116.8 28.8c-5.3-6.6-15.8-8.4-23.1-3.9-4.4 2.8-7.4 7.5-9 12.4-1.6 5-2 10.3-2 15.5-2.1 1.1-3.8 3.9-3.4 6.3s2.5 4.3 4.9 4.5c-.4 3.8 1.4 8.1 4.3 10.5 3 2.5 7.2 3.3 10.9 2.1 2 1.8 4.1 3 6.7 3.2s5.5-.8 7-3c3 1.2 6.4 1.2 9.1-.5s4.6-4.7 4.9-7.8c.2-1.7-.2-3.5-1.2-4.8 2.5.8 4.9-1.1 5.7-3.6s-.2-5.3-2-7.2c0 0 .9-10.5-.6-15.5-1.5-4.9-7.2-8.7-12.2-8.2z" fill="#544c77"/><path d="m65.6 270.8-1.2 11.1s-8.3 7.7-8.7 9.1c-.5 1.4 3.5 2.9 7.6 2.3 4.1-.7 8.1-3.8 11-4.1s4-2.3 4.5-5.9 1.6-11 1.6-11z" fill="#ffb6c9"/><path d="m144.7 271.5 1.9 11s9 7.1 9.3 8.5-3.3 3.1-7.4 2.7-8.3-3.3-11.2-3.4-4.2-2-4.8-5.6-2.3-10.9-2.3-10.9z" fill="#ffb6c9"/><path d="m98.1 82.4c-5.1-1.4-10.3 1.4-13.9 4.8-3 2.9-5.3 6.4-7.6 9.9-2.9 4.5-6.5 9.4-10 13.5-2.5 2.9-6.2 7.9-4.9 12.1.6 1.8 1.8 3.2 3.1 4.6 6.1 6.8 14 12.8 22.2 16.9 2.7-2.7 4.8-6.4 5.6-10.1-3.2-5.2-6.5-11.3-11.1-15.3 3.5-4.2 6.6-7.8 9.7-12.3 4.1-5.8 7.9-12.5 7.4-19.6" fill="#62baff"/><path clip-path="url(#c)" d="m98.1 96.9c-2.5-.8-4.8 1.3-6.5 3.3-5.8 6.6-11.4 13.4-16.8 20.3 4.5 7.7 10.7 14.5 18.5 18.7 4.8-11.6 7.6-24.1 7.4-36.7" fill="#231f20"/><path d="m91.8 131.7s-15.1 52.4-18.8 75.3-8.9 64.8-8.9 64.8 9.8 4.1 17.5 1.6c0 0 17.9-66.4 23.8-98.1 0 0 10.1 40.9 11.4 48.3s11.4 51.4 11.4 51.4 16 2 19.5-4.7c0 0-5.9-90.1-22.2-141z" fill="#00527f"/><path d="m104.8 175.3c.4-14.8.8-29.7 1.2-44.5" fill="none" stroke="#332956" stroke-miterlimit="10" stroke-width="2"/><path d="m99.5 130.7c-.7 7.3-.9 14.6-.7 22 .1 3 .2 6 1.2 8.8s2.8 5.4 5.4 6.7" fill="none" stroke="#332956" stroke-miterlimit="10" stroke-width="2"/><path d="m122.2 129.8c10.7 47.1 18.2 94.9 22.5 143" fill="none" stroke="#332956" stroke-miterlimit="10" stroke-width="2"/><path d="m102.4 165.9c-6.6 36.5-15 72.7-25 108.4" fill="none" stroke="#332956" stroke-miterlimit="10" stroke-width="2"/><path d="m97.9 66.2h15.3v26.2h-15.3z" fill="#ffb6c9" transform="matrix(.9995 -.03123908 .03123908 .9995 -2.426 3.3346)"/><path d="m104 69.1c-7.8-.7-13.6-7.6-12.9-15.4l.9-10c.7-7.8 7.6-13.6 15.4-12.9s13.6 7.6 12.9 15.4l-.9 10c-.7 7.8-7.6 13.5-15.4 12.9z" fill="#ffb6c9"/><path d="m96.9 85.6s1.8 4.8 8 4.3c6.2-.4 8.5-4.9 8.5-4.9l11.2 9.5 1 32.8s-16.3 9-33.7 2.2l-1.1-33.8z" fill="#ffa25a"/><path d="m105.9 133.5c-8.5 0-14.2-2.4-14.6-2.6l1.1-2.5-.5 1.2.5-1.2c.1.1 15.1 6.4 32.6-2.2l1.2 2.4c-7.6 3.8-14.6 4.9-20.3 4.9z" fill="#544c77"/><path d="m104 91.3c-7.2 0-9.5-5-9.5-5.2l2.5-1.1-1.2.5 1.2-.5c.1.2 1.8 3.9 7.7 3.6 6.1-.3 8.2-4.3 8.3-4.5l2.4 1.2c-.1.2-2.9 5.6-10.6 6-.2 0-.5 0-.8 0z" fill="#544c77"/><path d="m98 82.4s-3 85-7.5 113.2c0 0-11.5-.8-17.7-7.5l11.4-38.1 3.7-55 .9-9.2z" fill="#62baff"/><path d="m98 82.4s-.4 4.1 1.8 6.4c0 0-5.3 53.9-6 75.3l-4.7-.5 5.2-71.7z" fill="#62baff"/><path clip-path="url(#d)" d="m64.5 281.9c1.1-1 2.9-1.3 4.3-.8s1.8 1.8 2.1 3.3c1.9.2 3.6-1 5.4-1.6 1.3-.5 2.7-.7 4.1-.6-.1 1.5-.4 3.1-.5 4.6 0 .5-.1 1-.3 1.4-.3.5-.7.8-1.1 1.1-2.8 1.9-6 3.2-9.2 4.3-4.7 1.7-9.9 3.1-14.6 1.3-1-.4-2-1-2.5-2-.6-1.4.1-2.9 1-4.1 1.9-2.5 4.7-4.2 7.4-5.9" fill="#00527f"/><path clip-path="url(#d)" d="m78.7 287.7c-3.5.5-7 1.4-10.3 2.8-1.5.6-3 1.4-4.6 1.8-3.1.8-6.5.4-9.4-1.1" fill="none" stroke="#2b3990" stroke-miterlimit="10" stroke-width="3"/><path clip-path="url(#e)" d="m146.6 282.6c-.1-.8-.9-1.4-1.8-1.7s-1.9-.3-2.6.2-1.7 1.4-2 2.2c-1.4.4-2.3.4-3.7 0-2.1-.6-4-3-6.1-2.5.5 3.8.8 9.5 3.3 12.3 1.2 1.4 2.8 2.3 4.4 3.2 2.4 1.3 4.9 2.5 7.5 3.5 2.4.9 5 1.7 7.5 1 3.3-.9 5.6-4.3 5.4-7.7-.1-3.4-2.4-6.5-5.4-8.1" fill="#00527f"/><path clip-path="url(#e)" d="m131.7 287.7c2 1.5 4.6 1.7 7.1 2.3 3.2.8 6.3 2.3 9.5 2.8 3.3.5 7-.3 8.9-3.2" fill="none" stroke="#2b3990" stroke-miterlimit="10" stroke-width="3"/><path d="m123.4 27.8c3.2-3.3 2.6-8.7-1-11.4-2-1.5-4.7-2-7-1.1-2.8 1-5 4.6-4.8 7.6.1 1.1.6 2.2 1.3 3.1 2.6 4 7.9 5.6 11.5 1.8z" fill="#544c77"/><path d="m90.9 42.7s11-2 16.6-8.6c0 0 2.1 5.6 8.7 5.6 0 0 1 7.1 5.2 8.7 0 0 2.4-15.9-11.8-19.2-14.2-3.4-18.7 13.5-18.7 13.5z" fill="#544c77"/><path d="m98.9 45.5c-.1 1 .6 1.9 1.4 2 .8 0 1.5-.8 1.6-1.8s-.6-1.9-1.4-2c-.8 0-1.5.8-1.6 1.8z" fill="#584048"/><path d="m107.9 46c0 1 .8 1.8 1.6 1.8s1.5-.9 1.4-1.9c0-1-.8-1.8-1.6-1.8s-1.4.9-1.4 1.9z" fill="#584048"/><path d="m105.9 41.6-1.2 7.4s-3.6-.6-4.1 1.7c-.4 2.3 3.1 3.2 3.1 3.2" fill="none" stroke="#f2759c" stroke-miterlimit="10" stroke-width="2"/><path d="m91.2 51.4s8.1-3.9 13.7-4.1c0 0 7.8 3 14.4 8.8 0 0-1.1 15.1-15.4 12.9-14-2.1-13.1-13.9-12.7-17.6z" fill="#62baff"/><g fill="none" stroke-miterlimit="10"><path d="m95.5 136.7s-3.5-8.8-5.2-15.1l3.7-8.5s-3.5-5-5-9c0 0 3.4-12 9-21.7" stroke="#2082c4" stroke-width="2"/><path d="m86 123.6s-1.3 18.6-1.3 19.4" stroke="#2082c4" stroke-width="2"/><path d="m91 53.7s7.7-3.7 13.4-3.8c0 0 7.1 3.4 14.4 9.3" stroke="#2082c4"/><g stroke="#544c77" stroke-width="2"><path d="m83.8 49.2c-2.3.9-4.3 2.7-5.3 4.9-1 2.3-1.1 4.9-.2 7.2.6 1.7 1.8 3.2 3.4 4s3.6.9 5.1-.1"/><path d="m117.3 31c2.9 1.5 6.9.4 8.6-2.4.6-.9.9-2 1.1-3.1.3-2.1.2-4.3-1-6.1-1.1-1.8-3.4-2.9-5.4-2.4"/><path d="m109.7 18.2c.7 2.5 1.2 5.1 1.6 7.7-1.2-1.8-2.7-3.1-4.4-4.4"/><path d="m128.2 51.2c2.7 1.4 4.4 4.4 4.4 7.4s-1.7 6-4.4 7.4c-1.2.7-2.6 1-3.9.7"/></g></g><path d="m97.5 66.9s8.2 4.8 15.3.7l.2 5.4s-7.9 5-15.3-.4z" fill="#231f20"/><path clip-path="url(#f)" d="m114.2 82c-1.5 3.2-4.4 5-7.8 6-1.9 20.6-3 42.4-1.3 63s6.1 41.1 14.6 60c4.4.9 9.3 1.4 13.7.3 1.7 19.4 4.3 39.6 8.1 58.7.8 4.1 2.5 9 6.6 9.8 1.5-25 2.7-50.9 1.1-75.8-1.6-26.3-6.4-52.3-11.1-78.2-1.7-9.1-3.3-18.3-5.3-27.4-1.3-5.9-2.9-12.1-7.2-16.4-2.8-2.8-7.7-1.6-11.4 0z" fill="#231f20"/><path clip-path="url(#f)" d="m105.5 177.1c-.2-3.4-.5-6.8-.7-10.2-1.6-.4-3.6-.9-4.9-2-7.7 37.1-17.5 73.9-27.3 110.4 4 1.5 8.2 3.6 12.4 3.7 10.2-26.9 8.7-57.4 17.9-84.6" fill="#231f20"/><path d="m211.5 122.6c.6-.6.9-1.4 1.1-2.2.4-1.2.8-2.4 1.2-3.7.3-.8.8-1.7 1.6-1.5.6.1.9.9 1 1.5.4 1.7.7 3.4 1.1 5.1 1.4-.5 2.8-1.3 4.1-1.8.7 2.9 1.4 6 1.8 8.9 0 .3-.2.7-.2 1-4.6 1.1-9.5 2.3-14.2 2.9" fill="#ffb6c9"/><path d="m113.3 83.6s-1.5 4.2-3.8 5.1c0 0 0 45.1 2.1 65.9s9.7 46.1 9.7 46.1 17.5.5 29.8-7l-14.3-45.3-3-32.7s15.6 14.5 24.1 20.9l9.8-13.7s-14.9-11.9-19.1-17.7c-4.2-5.9-13.9-22.5-35.3-21.6z" fill="#62baff"/><path d="m157.8 136.6s3.1 3.5 6 5.6 36.5-5.7 48.3-9.3c0 0 .8-6.6-1-11.4 0 0-16.2.3-22.1.9-6 .5-16.8.1-21.3.5l-8.5-5.7z" fill="#62baff"/><path d="m110.3 136.2 11-15.5-6-8.3 8.6-8.5s-2.7-6-10.6-20.3" fill="none" stroke="#2082c4" stroke-miterlimit="10" stroke-width="2"/><path d="m117.2 158.9 18-4s3.7 15-4.4 17.9c-8.1 2.8-13.6-13.9-13.6-13.9z" fill="none" stroke="#2082c4" stroke-miterlimit="10" stroke-width="2"/><path d="m81.6 118.6c-3 1.3-6.1 2.1-9.4 2.4" fill="none" stroke="#2082c4" stroke-miterlimit="10" stroke-width="2"/><path d="m135.6 108.3c-.8 3.1-1.6 4.7-1.8 7.9-1.3-2.2-2.4-4.6-3.3-7" fill="none" stroke="#2082c4" stroke-miterlimit="10" stroke-width="2"/><path clip-path="url(#g)" d="m118.7 79.1c9.7 6.3 16 16.6 22.7 26.1s14.8 19 25.9 22.3c-.1-2.3-.2-5.6.2-7.9-6.9-6.1-11.5-13.8-16.8-21.3-5.4-7.4-12.2-14.6-21.1-16.9" fill="#231f20" opacity=".5"/><g fill="none" stroke-miterlimit="10" stroke-width="2"><path d="m109.9 30.4c1.8 3.3 5.3 5.7 9 6.1" stroke="#403a68"/><path d="m113.9 29.9c1.4 1.7 3.3 3.1 5.3 4" stroke="#403a68"/><path d="m102.3 31.8c-2.2 3.3-5.5 5.9-9.3 7.2" stroke="#403a68"/><path d="m83.7 55c-.6 1-1.2 2.1-1.3 3.3s.4 2.5 1.4 3" stroke="#403a68"/><path d="m87.8 64.3c-.9 3.2 1.4 6.8 4.6 7.4" stroke="#403a68"/></g><path d="m207.5 301.3-55-2.5c-4.7-.2-8.3-4.2-8.1-8.9l11.6-258.2c.2-4.7 4.2-8.3 8.9-8.1l55 2.5c4.7.2 8.3 4.2 8.1 8.9l-11.6 258.2c-.2 4.6-4.2 8.3-8.9 8.1z" fill="#bcd3eb"/><path d="m200.3 301-55-2.5c-4.7-.2-8.3-4.2-8.1-8.9l11.6-258.2c.2-4.7 4.2-8.3 8.9-8.1l55 2.5c4.7.2 8.3 4.2 8.1 8.9l-11.6 258.2c-.2 4.6-4.2 8.3-8.9 8.1z" fill="#edf4fc"/><path d="m171.5 225.4c-8.1-.4-14.4-7.2-14-15.3l5.2-116c.4-8.1 7.2-14.4 15.3-14s14.4 7.2 14 15.3l-5.2 116c-.3 8.1-7.2 14.3-15.3 14z" fill="#bcd3eb"/><path d="m174.7 109.6h4.8v27.5h-4.8z" fill="#ffa25a" transform="matrix(.04498431 -.999 .999 .04498431 45.8248 294.6693)"/><path d="m172.4 159h4.8v27.5h-4.8z" fill="#ffa25a" transform="matrix(.04497407 -.999 .999 .04497407 -5.6009 339.586)"/><path d="m162.1 210.2 5.2-116c.3-7.3 6-13.1 13-13.9-.8-.2-1.5-.3-2.3-.3-8.1-.4-15 5.9-15.3 14l-5.2 116c-.4 8.1 5.9 15 14 15.3.8 0 1.6 0 2.3-.1-6.9-1.3-12-7.6-11.7-15z" fill="#9eb9d8"/><text fill="#2b3990" font-family="'Montserrat-Bold'" font-size="25.0628" transform="matrix(.999 .04497991 -.04497991 .999 192.7589 130.9063)">C</text><text fill="#2b3990" font-family="'Montserrat-Bold'" font-size="12.8037" transform="matrix(.999 .04497991 -.04497991 .999 153.0598 64.6371)">COVID-19</text><text fill="#2b3990" font-family="'Montserrat-Bold'" font-size="25.0628" transform="matrix(.999 .04497991 -.04497991 .999 190.5293 180.423)">T</text><path clip-path="url(#h)" d="m211.7 16.5c1.8 29.3 2.9 57.5.8 86.9-2.2 32.3-4.5 64.5-6.7 96.8-1.3 18.7-2.6 37.5-7.8 55.5-3.2 11.3-8.6 22.9-18.8 28.7-10 5.7-22.8 4.5-33-.8s-18.1-14.2-24.7-23.6c1.6 20 .9 40.1 1.7 60.2 37.9 4.9 76.4 4.6 114.4.6 4.2-103.1 8.1-206.3 12.3-309.4" fill="#231f20"/><path d="m168.9 283.9c-8.1-.4-14.4-7.2-14-15.3l.9-19c.4-8.1 7.2-14.4 15.3-14s14.4 7.2 14 15.3l-.9 19c-.4 8-7.2 14.3-15.3 14z" fill="#bcd3eb"/><path d="m160.2 268.8.9-19c.3-7.2 5.8-12.9 12.6-13.9-.9-.2-1.8-.3-2.7-.4-8.1-.4-15 5.9-15.3 14l-.9 19c-.4 8.1 5.9 15 14 15.3.9 0 1.8 0 2.7-.1-6.7-1.6-11.6-7.8-11.3-14.9z" fill="#9eb9d8"/><path d="m171.7 271.3c-3.7-.2-6.5-3.3-6.4-7l.5-10.6c.2-3.7 3.3-6.5 7-6.4 3.7.2 6.5 3.3 6.4 7l-.5 10.6c-.2 3.7-3.3 6.5-7 6.4z" fill="#9eb9d8"/><path d="m168.9 271.1c-3.7-.2-6.5-3.3-6.4-7l.5-10.6c.2-3.7 3.3-6.5 7-6.4 3.7.2 6.5 3.3 6.4 7l-.5 10.6c-.2 3.8-3.4 6.6-7 6.4z" fill="#e6f9ff"/><path d="m227.3 125.5c.1-.7-.2-1.4-.8-1.9.7-.6 1-1.6.9-2.5-.2-.8-.6-1.2-1.1-1.4.4-.7.5-1.5-.2-2.1-.8-.6-2.1.1-2.8.5-.5.3-.9.7-1.1 1.3-.2.5-.1 1.2.3 1.6.1.1.2.1.3.2-.1 0-.1.1-.2.1-.5.5-1 1.2-.9 2 .1.7 1.2 1.2 1.7.6-.6.7-1.2 1.5-1.2 2.4s1 1.7 1.7 1.2c-.4.6-1.1 1.3-1.2 2s.3 1.5 1 1.7c.4.1.8-.1 1.2-.3.7-.3 1.3-.8 1.7-1.5.3-.7.2-1.6-.4-2.1.6-.3 1-1.1 1.1-1.8z" fill="#ffb6c9"/><path d="m223.2 121.9c-.6 0-1.2-.4-1.1-1.5.2.1.9.1 1.3.1.3 0 .7-.2 1.1-.3.4-.2.8-.4 1.1-.6.7-.6 1-1.3.9-1.5.7.5.6 2 0 2.5-.5.4-1 .7-1.5.9s-1 .4-1.5.4c-.1 0-.2 0-.3 0z" fill="#f2759c"/><path d="m223.8 125.2c-.7 0-1.9-.5-1.9-1.7.5.3 1.8.4 2.4.3s1.1-.3 1.7-.7c.5-.3 1.4-1.5 1.5-1.8.5.9 0 2.4-.7 2.9s-1.5.9-2.3 1c-.3 0-.5 0-.7 0z" fill="#f2759c"/><path d="m224.2 128.6c-.6 0-1.7-.3-1.7-1.5.6.3 1.9.3 2.5.1s1.9-1.3 2.2-1.8c.4 1.2-.9 2.8-1.8 3.1-.4.1-.8.1-1.2.1z" fill="#f2759c"/></svg>