<svg enable-background="new 0 0 283 314" viewBox="0 0 283 314" xmlns="http://www.w3.org/2000/svg" xmlns:xlink="http://www.w3.org/1999/xlink"><clipPath id="a"><path d="m92.7 273.1h7.4c17 0 30.9-13.8 30.9-30.9v-25.1c0-17-13.8-30.9-30.9-30.9h-7.4c-17 0-30.9 13.8-30.9 30.9v25.1c0 17 13.8 30.9 30.9 30.9z"/></clipPath><clipPath id="b"><path d="m71.8 186.6h49.2c3.8 0 6.8-3.1 6.8-6.8v-4.2c0-3.8-3.1-6.8-6.8-6.8h-49.2c-3.8 0-6.8 3.1-6.8 6.8v4.2c-.1 3.7 3 6.8 6.8 6.8z"/></clipPath><clipPath id="c"><path d="m107.3 101.1c-4.4-1.2-9 1.3-12.2 4.2-2.7 2.5-4.7 5.6-6.6 8.7-2.6 4-5.7 8.3-8.8 11.9-2.2 2.6-5.5 6.9-4.3 10.6.5 1.6 1.6 2.8 2.7 4 5.4 6 12.3 11.3 19.5 14.9 2.4-2.3 4.2-5.6 4.9-8.9-2.8-4.6-5.8-9.9-9.8-13.5 3.1-3.7 5.8-6.9 8.5-10.8 3.6-5.1 7-11 6.5-17.2"/></clipPath><clipPath id="d"><path d="m78.8 266.7-1 9.8s-7.3 6.8-7.7 8c-.4 1.3 3.1 2.6 6.7 2s7.1-3.4 9.6-3.6 3.6-2 3.9-5.2c.4-3.2 1.4-9.6 1.4-9.6z"/></clipPath><clipPath id="e"><path d="m148.2 267.3 1.7 9.7s7.8 6.2 8.2 7.5c.3 1.2-2.9 2.8-6.5 2.4s-7.3-2.9-9.9-3c-2.5-.1-3.7-1.8-4.2-4.9-.6-3.1-2-9.5-2-9.5z"/></clipPath><clipPath id="f"><path d="m131.4 142.5-5.1.3c3.2-1.1 5.1-2.1 5.1-2.1l-.9-28.9-9.9-9.7s-2.1 4-7.5 4.4-6.9-2.7-6.9-2.7l-5.4 9.1.9 29.7c1.7.6 3.3 1.1 4.9 1.5l-4.9.3s-13.3 46.1-16.5 66.2-7.8 57-7.8 57 8.6 3.6 15.4 1.4c0 0 15.7-58.3 20.9-86.2 0 0 8.9 35.9 10 42.5 1.1 6.5 10 45.2 10 45.2s14 1.8 17.1-4.1c.1 0-5.1-79.2-19.4-123.9z"/></clipPath><clipPath id="g"><path d="m120.6 102.2s-1.3 3.7-3.4 4.5c0 0 0 39.6 1.8 57.9s8.5 40.5 8.5 40.5 15.3.5 26.2-6.1l-12.6-39.8-2.7-28.7s13.7 12.8 21.2 18.3l3-15.2s-7.5-7.3-11.2-12.5c-3.4-5.2-11.9-19.8-30.8-18.9z"/></clipPath><g fill="#62baff"><path d="m41.2 5.6h1.3v47.8h-1.3z"/><path d="m21.1 28.8h43.9v1.3h-43.9z"/><path d="m15.1 29.9h49.2v1.3h-49.2z" transform="matrix(.7544 -.6564 .6564 .7544 -10.2879 33.5599)"/><path d="m41.1 8.2h1.3v44.7h-1.3z" transform="matrix(.722 -.6919 .6919 .722 -9.5231 37.3587)"/><circle cx="41.9" cy="30" r="14.3"/><circle cx="42.1" cy="5.6" r="2.3"/><circle cx="65" cy="29.5" r="2.3"/><circle cx="58.3" cy="14.4" r="2.3"/><path d="m44.1 53.4c0 1.3-1 2.3-2.3 2.3s-2.3-1-2.3-2.3 1-2.3 2.3-2.3c1.2 0 2.3 1 2.3 2.3z"/><circle cx="57.2" cy="46.7" r="2.3"/><circle cx="21.1" cy="46.7" r="2.3"/><circle cx="21.1" cy="29.5" r="2.3"/><circle cx="26.3" cy="14.4" r="2.3"/></g><path d="m41.7 21.9c0 1.3-1.1 2.4-2.4 2.4s-2.4-1.1-2.4-2.4 1.1-2.4 2.4-2.4 2.4 1 2.4 2.4z" fill="#00527f"/><circle cx="34" cy="24.7" fill="#00527f" r="1.4"/><path d="m36.9 28.1c0 1.1.9 2.1 2.1 2.1 1.1 0 2.1-.9 2.1-2.1 0-1.1-.9-2.1-2.1-2.1-1.2.1-2.1 1-2.1 2.1z" fill="#00527f"/><path d="m184 15h1.3v44.3h-1.3z" fill="#62baff"/><path d="m165.4 36.5h40.7v1.3h-40.7z" fill="#62baff"/><path d="m159.8 37.4h45.7v1.3h-45.7z" fill="#62baff" transform="matrix(.7545 -.6563 .6563 .7545 19.8408 129.2412)"/><path d="m183.9 17.3h1.3v41.5h-1.3z" fill="#62baff" transform="matrix(.722 -.6919 .6919 .722 24.9433 138.2789)"/><circle cx="184.7" cy="37.6" fill="#62baff" r="13.2"/><circle cx="184.8" cy="15" fill="#62baff" r="2.2"/><circle cx="206.2" cy="37.2" fill="#62baff" r="2.2"/><circle cx="199.9" cy="23.1" fill="#62baff" r="2.2"/><circle cx="184.5" cy="59.3" fill="#62baff" r="2.2"/><circle cx="198.9" cy="53.1" fill="#62baff" r="2.2"/><circle cx="165.4" cy="53.1" fill="#62baff" r="2.2"/><circle cx="165.4" cy="37.2" fill="#62baff" r="2.2"/><circle cx="170.2" cy="23.1" fill="#62baff" r="2.2"/><path d="m184.5 30.1c0 1.2-1 2.2-2.2 2.2s-2.2-1-2.2-2.2 1-2.2 2.2-2.2c1.2-.1 2.2.9 2.2 2.2z" fill="#00527f"/><path d="m178.6 32.7c0 .7-.6 1.3-1.3 1.3s-1.3-.6-1.3-1.3.6-1.3 1.3-1.3 1.3.6 1.3 1.3z" fill="#00527f"/><path d="m180.1 35.9c0 1.1.9 1.9 1.9 1.9s1.9-.9 1.9-1.9-.9-1.9-1.9-1.9-1.9.8-1.9 1.9z" fill="#00527f"/><path d="m62 103.5h1.3v38.7h-1.3z" fill="#62baff"/><path d="m45.9 122.1h35.5v1.3h-35.5z" fill="#62baff"/><path d="m41.1 123h39.8v1.3h-39.8z" fill="#62baff" transform="matrix(.7545 -.6563 .6563 .7545 -66.1795 70.3745)"/><path d="m61.9 105.5h1.3v36.2h-1.3z" fill="#62baff" transform="matrix(.722 -.6919 .6919 .722 -68.1434 77.6903)"/><circle cx="62.7" cy="123.2" fill="#62baff" r="11.5"/><path d="m64.8 103.5c0 1-.8 1.9-1.9 1.9-1 0-1.9-.8-1.9-1.9 0-1 .8-1.9 1.9-1.9 1 0 1.9.8 1.9 1.9z" fill="#62baff"/><path d="m83.4 122.8c0 1-.8 1.9-1.9 1.9s-1.9-.8-1.9-1.9c0-1 .8-1.9 1.9-1.9s1.9.9 1.9 1.9z" fill="#62baff"/><path d="m77.9 110.6c0 1-.8 1.9-1.9 1.9-1 0-1.9-.8-1.9-1.9s.8-1.9 1.9-1.9c1 0 1.9.8 1.9 1.9z" fill="#62baff"/><path d="m64.5 142.1c0 1-.8 1.9-1.9 1.9-1 0-1.9-.8-1.9-1.9 0-1 .8-1.9 1.9-1.9s1.9.9 1.9 1.9z" fill="#62baff"/><path d="m77 136.7c0 1-.8 1.9-1.9 1.9-1 0-1.9-.8-1.9-1.9 0-1 .8-1.9 1.9-1.9s1.9.9 1.9 1.9z" fill="#62baff"/><path d="m47.8 136.7c0 1-.8 1.9-1.9 1.9-1 0-1.9-.8-1.9-1.9 0-1 .8-1.9 1.9-1.9s1.9.9 1.9 1.9z" fill="#62baff"/><path d="m47.8 122.8c0 1-.8 1.9-1.9 1.9-1 0-1.9-.8-1.9-1.9 0-1 .8-1.9 1.9-1.9s1.9.9 1.9 1.9z" fill="#62baff"/><path d="m52 110.6c0 1-.8 1.9-1.9 1.9-1 0-1.9-.8-1.9-1.9s.8-1.9 1.9-1.9c1 0 1.9.8 1.9 1.9z" fill="#62baff"/><path d="m62.6 116.6c0 1.1-.9 2-2 2s-2-.9-2-2 .9-2 2-2c1.1.1 2 1 2 2z" fill="#00527f"/><path d="m57.4 118.9c0 .6-.5 1.1-1.1 1.1s-1.1-.5-1.1-1.1.5-1.1 1.1-1.1 1.1.5 1.1 1.1z" fill="#00527f"/><path d="m58.7 121.7c0 .9.8 1.7 1.7 1.7s1.7-.8 1.7-1.7-.8-1.7-1.7-1.7c-1 0-1.7.8-1.7 1.7z" fill="#00527f"/><ellipse cx="142.1" cy="280.3" fill="#332956" opacity=".3" rx="101.7" ry="17.8"/><path d="m92.7 273.1h7.4c17 0 30.9-13.8 30.9-30.9v-25.1c0-17-13.8-30.9-30.9-30.9h-7.4c-17 0-30.9 13.8-30.9 30.9v25.1c0 17 13.8 30.9 30.9 30.9z" fill="#edf4fc"/><path d="m71.8 186.6h49.2c3.8 0 6.8-3.1 6.8-6.8v-4.2c0-3.8-3.1-6.8-6.8-6.8h-49.2c-3.8 0-6.8 3.1-6.8 6.8v4.2c-.1 3.7 3 6.8 6.8 6.8z" fill="#5e5682"/><path d="m61.8 209.3h61.7v40.7h-61.7z" fill="#fff" transform="matrix(-1 0 0 -1 185.3327 459.2965)"/><path d="m61.8 209.3h61.7v11.6h-61.7z" fill="#ffa25a" transform="matrix(-1 0 0 -1 185.3327 430.1606)"/><path d="m103.4 243.4h7.7c3.2 0 5.9-2.6 5.9-5.9v-5.5c0-3.2-2.6-5.9-5.9-5.9h-7.7c-3.2 0-5.9 2.6-5.9 5.9v5.6c0 3.2 2.6 5.8 5.9 5.8z" fill="#ffa25a"/><path d="m61.8 236.3h32v7.1h-32z" fill="#ffa25a" transform="matrix(-1 0 0 -1 155.6513 479.7185)"/><path d="m61.8 225.5h30.8v2.4h-30.8z" fill="#332956"/><path d="m61.8 230h24.7v2.4h-24.7z" fill="#332956"/><path d="m64.9 173h62.9v2.2h-62.9z" fill="#332956" transform="matrix(-1 0 0 -1 192.7697 348.146)"/><path clip-path="url(#a)" d="m130.2 185.4c-.6 20.2-9.7 40-24.6 53.6s-35.4 21-55.6 19.8c2.3 5.5 3 10.9 4.1 16.7 26.4.5 53.8.2 80.1-.9 3.9-21.5 7.3-43 11.2-64.6 1.3-7 2.5-14.2 1.1-21.2" fill="#231f20"/><g clip-path="url(#b)" fill="#332956"><path d="m67.5 174.5h.8v12.8h-.8z"/><path d="m71.1 174.5h.8v12.8h-.8z"/><path d="m74.6 174.5h.8v12.8h-.8z"/><path d="m78.2 174.5h.8v12.8h-.8z"/><path d="m81.7 174.5h.8v12.8h-.8z"/><path d="m85.3 174.5h.8v12.8h-.8z"/><path d="m88.9 174.5h.8v12.8h-.8z"/><path d="m92.4 174.5h.8v12.8h-.8z"/><path d="m96 174.5h.8v12.8h-.8z"/><path d="m99.6 174.5h.8v12.8h-.8z"/><path d="m103.1 174.5h.8v12.8h-.8z"/><path d="m106.7 174.5h.8v12.8h-.8z"/><path d="m110.2 174.5h.8v12.8h-.8z"/><path d="m113.8 174.5h.8v12.8h-.8z"/><path d="m117.4 174.5h.8v12.8h-.8z"/><path d="m120.9 174.5h.8v12.8h-.8z"/><path d="m124.5 174.5h.8v12.8h-.8z"/></g><path d="m93.1 151.1c-1.6 2.6-1.8 5.3-2.2 8.2-1.2.2-2.4 0-3.7.2-.5.1-1 .2-1.5.5-.4.3-.8.7-.8 1.2s.3.9.6 1.3c1.8 1.7 4.7 1.8 7 1.8-1.1 0-2.5-.2-3.6-.2-.3 0-.7 0-1 .2-.6.5.1 1.5.9 1.8 3.4 1.5 7.7-.3 9.8-3.5 2.1-3.1 2.4-7.1 2-10.9" fill="#ffb6c9"/><path d="m123.7 54c-4.7-5.8-13.9-7.4-20.3-3.4-3.9 2.4-6.5 6.6-8 10.9-1.4 4.4-1.7 9-1.8 13.6-1.9 1-3.4 3.5-3 5.5s2.2 3.7 4.3 4c-.4 3.4 1.2 7.1 3.8 9.2 2.6 2.2 6.4 2.9 9.6 1.9 1.7 1.6 3.6 2.6 5.9 2.9 2.3.2 4.8-.7 6.1-2.6 2.6 1 5.6 1 8-.5s4-4.1 4.3-6.9c.1-1.5-.1-3.1-1.1-4.2 2.2.7 4.3-1 5-3.2s-.2-4.6-1.7-6.3c0 0 .8-9.2-.5-13.6-1.2-4.4-6.1-7.7-10.6-7.3z" fill="#544c77"/><path d="m78.8 266.7-1 9.8s-7.3 6.8-7.7 8 3.1 2.6 6.7 2 7.1-3.4 9.6-3.6 3.6-2 3.9-5.2c.4-3.2 1.4-9.6 1.4-9.6z" fill="#ffb6c9"/><path d="m148.2 267.3 1.7 9.7s7.9 6.3 8.2 7.5c.3 1.3-2.9 2.8-6.5 2.4s-7.3-2.9-9.9-3c-2.5-.1-3.7-1.8-4.2-4.9-.6-3.1-2-9.5-2-9.5z" fill="#ffb6c9"/><path d="m107.3 101.1c-4.4-1.2-9 1.3-12.2 4.2-2.7 2.5-4.7 5.6-6.6 8.7-2.6 4-5.7 8.3-8.8 11.9-2.2 2.6-5.5 6.9-4.3 10.6.5 1.6 1.6 2.8 2.7 4 5.4 6 12.3 11.3 19.5 14.9 2.4-2.3 4.2-5.6 4.9-8.9-2.8-4.6-5.8-9.9-9.8-13.5 3.1-3.7 5.8-6.9 8.5-10.8 3.6-5.1 7-11 6.5-17.2" fill="#62baff"/><path clip-path="url(#c)" d="m107.3 113.9c-2.2-.7-4.2 1.2-5.7 2.9-5.1 5.8-10.1 11.7-14.8 17.9 4 6.8 9.4 12.7 16.3 16.4 4.2-10.2 6.6-21.2 6.5-32.2" fill="#231f20"/><path d="m101.8 144.4s-13.3 46.1-16.5 66.2-7.8 57-7.8 57 8.6 3.6 15.4 1.4c0 0 15.7-58.3 20.9-86.2 0 0 8.9 35.9 10 42.5s10 45.2 10 45.2 14 1.8 17.1-4.1c0 0-5.2-79.2-19.5-123.9z" fill="#00527f"/><path d="m113.2 182.7c.4-13.1.7-26.1 1.1-39.2" fill="none" stroke="#332956" stroke-miterlimit="10" stroke-width="2"/><path d="m108.6 143.6c-.6 6.4-.8 12.9-.6 19.3.1 2.6.2 5.2 1 7.7s2.4 4.8 4.8 5.9" fill="none" stroke="#332956" stroke-miterlimit="10" stroke-width="2"/><path d="m128.5 142.8c9.4 41.4 16 83.4 19.8 125.7" fill="none" stroke="#332956" stroke-miterlimit="10" stroke-width="2"/><path d="m111.1 174.5c-5.8 32.1-13.1 63.9-22 95.3" fill="none" stroke="#332956" stroke-miterlimit="10" stroke-width="2"/><path d="m107.1 86.9h13.4v23h-13.4z" fill="#ffb6c9" transform="matrix(.9995 -.03123908 .03123908 .9995 -3.0177 3.6035)"/><path d="m112.5 89.4c-6.9-.6-12-6.7-11.3-13.5l.8-8.8c.6-6.9 6.7-12 13.5-11.3 6.9.6 12 6.7 11.3 13.5l-.8 8.7c-.6 6.9-6.7 12-13.5 11.4z" fill="#ffb6c9"/><path d="m106.3 103.9s1.5 4.2 7 3.8c5.4-.4 7.4-4.3 7.4-4.3l9.9 8.4.9 28.9s-14.3 7.9-29.6 1.9l-.9-29.7z" fill="#ffa25a"/><path d="m114.1 146c-7.4 0-12.4-2.1-12.8-2.3l1-2.2-.5 1.1.5-1.1c.1.1 13.3 5.7 28.6-1.9l1.1 2.1c-6.6 3.3-12.8 4.3-17.9 4.3z" fill="#544c77"/><path d="m112.5 108.9c-6.3 0-8.3-4.4-8.4-4.6l2.2-1-1.1.5 1.1-.5c.1.1 1.6 3.4 6.8 3.1 5.3-.3 7.2-3.8 7.3-4l2.1 1.1c-.1.2-2.5 4.9-9.3 5.3-.2.1-.4.1-.7.1z" fill="#544c77"/><path d="m107.2 101.1s-2.6 74.7-6.6 99.5c0 0-10.1-.7-15.5-6.6l10-33.5 3.3-48.4.8-8.1z" fill="#62baff"/><path d="m107.2 101.1s-.3 3.6 1.6 5.6c0 0-4.6 47.4-5.3 66.2l-4.2-.4 4.6-63.1z" fill="#62baff"/><path clip-path="url(#d)" d="m77.7 276.4c1-.9 2.5-1.1 3.8-.7s1.6 1.6 1.8 2.9c1.7.2 3.2-.8 4.8-1.4 1.2-.4 2.4-.6 3.6-.5-.1 1.3-.4 2.7-.5 4 0 .4-.1.9-.3 1.2-.2.4-.6.7-1 1-2.5 1.7-5.2 2.8-8 3.8-4.1 1.5-8.7 2.7-12.8 1.1-.9-.4-1.8-.9-2.2-1.8-.5-1.2.1-2.6.9-3.6 1.7-2.2 4.1-3.7 6.5-5.2" fill="#00527f"/><path clip-path="url(#d)" d="m90.2 281.6c-3.1.4-6.2 1.2-9.1 2.4-1.3.6-2.6 1.2-4 1.6-2.7.7-5.7.4-8.2-1" fill="none" stroke="#2b3990" stroke-miterlimit="10" stroke-width="3"/><path clip-path="url(#e)" d="m149.9 277c-.1-.7-.8-1.2-1.6-1.5s-1.7-.3-2.3.2c-.6.4-1.5 1.3-1.8 2-1.2.3-2 .3-3.3 0-1.9-.5-3.5-2.7-5.4-2.2.5 3.3.7 8.4 2.9 10.8 1.1 1.2 2.5 2 3.9 2.8 2.1 1.2 4.3 2.2 6.6 3.1 2.1.8 4.4 1.5 6.6.9 2.9-.8 4.9-3.8 4.8-6.8s-2.1-5.7-4.8-7.1" fill="#00527f"/><path clip-path="url(#e)" d="m136.9 281.6c1.8 1.3 4.1 1.5 6.2 2 2.8.7 5.5 2 8.4 2.4s6.2-.3 7.8-2.8" fill="none" stroke="#2b3990" stroke-miterlimit="10" stroke-width="3"/><path d="m129.6 53.1c2.8-2.9 2.2-7.6-.9-10-1.7-1.3-4.1-1.7-6.2-1-2.5.9-4.4 4.1-4.2 6.7.1 1 .6 1.9 1.1 2.7 2.4 3.6 7 4.9 10.2 1.6z" fill="#544c77"/><path d="m101 66.2s9.7-1.8 14.6-7.5c0 0 1.9 4.9 7.6 4.9 0 0 .9 6.3 4.6 7.6 0 0 2.1-14-10.4-16.9-12.4-3-16.4 11.9-16.4 11.9z" fill="#544c77"/><path d="m108 68.7c0 .9.5 1.7 1.2 1.7s1.4-.7 1.4-1.6-.5-1.7-1.2-1.7-1.3.7-1.4 1.6z" fill="#584048"/><path d="m116 69.1c0 .9.7 1.6 1.4 1.6s1.3-.8 1.2-1.7c0-.9-.7-1.6-1.4-1.6-.7.1-1.3.8-1.2 1.7z" fill="#584048"/><path d="m114.1 65.2-1.1 6.5s-3.2-.6-3.6 1.5 2.7 2.8 2.7 2.8" fill="none" stroke="#f2759c" stroke-miterlimit="10" stroke-width="2"/><path d="m101.2 73.8s7.1-3.5 12.1-3.6c0 0 6.9 2.6 12.7 7.7 0 0-1 13.3-13.5 11.3-12.4-1.7-11.6-12.1-11.3-15.4z" fill="#62baff"/><path d="m105 148.8s-3-7.7-4.6-13.3l3.2-7.5s-3.1-4.4-4.4-7.9c0 0 3-10.5 7.9-19.1" fill="none" stroke="#2082c4" stroke-miterlimit="10" stroke-width="2"/><path d="m96.6 137.3s-1.1 16.3-1.2 17.1" fill="none" stroke="#2082c4" stroke-miterlimit="10" stroke-width="2"/><path d="m101.1 75.8s6.8-3.2 11.8-3.3c0 0 6.2 3 12.6 8.2" fill="none" stroke="#2082c4" stroke-miterlimit="10"/><path d="m94.7 71.9c-2 .8-3.7 2.4-4.6 4.3-.9 2-1 4.3-.2 6.3.6 1.5 1.6 2.8 3 3.5s3.2.8 4.5-.1" fill="none" stroke="#544c77" stroke-miterlimit="10" stroke-width="2"/><path d="m124.2 55.9c2.5 1.3 6.1.4 7.5-2.1.5-.8.8-1.8 1-2.7.3-1.8.1-3.8-.9-5.4s-3-2.6-4.8-2.1" fill="none" stroke="#544c77" stroke-miterlimit="10" stroke-width="2"/><path d="m117.5 44.6c.6 2.2 1.1 4.5 1.4 6.8-1.1-1.5-2.4-2.7-3.9-3.8" fill="none" stroke="#544c77" stroke-miterlimit="10" stroke-width="2"/><path d="m133.7 73.7c2.3 1.3 3.9 3.9 3.9 6.5 0 2.7-1.5 5.3-3.8 6.5-1 .6-2.2.9-3.4.6" fill="none" stroke="#544c77" stroke-miterlimit="10" stroke-width="2"/><path d="m106.8 87.5s7.2 4.2 13.5.7l.1 4.7s-7 4.4-13.5-.4z" fill="#231f20"/><path clip-path="url(#f)" d="m121.5 100.7c-1.3 2.8-3.8 4.4-6.8 5.3-1.7 18.1-2.6 37.3-1.2 55.4 1.5 18.1 5.3 36.1 12.8 52.7 3.9.8 8.2 1.2 12 .3 1.5 17.1 3.8 34.8 7.1 51.6.7 3.6 2.2 7.9 5.8 8.6 1.3-22 2.3-44.7 1-66.7-1.4-23.1-5.6-46-9.8-68.8-1.5-8-2.9-16.1-4.7-24-1.1-5.2-2.5-10.6-6.3-14.4-2.4-2.4-6.7-1.4-9.9 0z" fill="#231f20"/><path clip-path="url(#f)" d="m113.8 184.3c-.2-3-.4-6-.6-9-1.4-.4-3.2-.8-4.3-1.7-6.7 32.6-15.4 64.9-24 97.1 3.5 1.3 7.2 3.2 10.9 3.3 9-23.7 7.6-50.4 15.8-74.4" fill="#231f20"/><path d="m207 136.4c.5-.5.8-1.3 1-2 .4-1.1.7-2.2 1.1-3.2.2-.7.7-1.5 1.4-1.4.6.1.8.8.9 1.3.3 1.5.7 3 1 4.5 1.2-.4 2.4-1.1 3.6-1.5.6 2.5 1.2 5.3 1.6 7.9 0 .2-.2.6-.2.9-4.1 1-8.3 2-12.5 2.6" fill="#ffb6c9"/><path d="m120.6 102.2s-1.3 3.7-3.4 4.5c0 0 0 39.6 1.8 57.9s8.5 40.5 8.5 40.5 15.3.5 26.2-6.1l-12.6-39.8-2.7-28.7s13.7 12.8 21.2 18.3l8.6-12.1s-13.1-10.4-16.8-15.6c-3.4-5.2-11.9-19.8-30.8-18.9z" fill="#62baff"/><path d="m159.8 148.7s2.7 3 5.3 4.9c2.5 1.8 32.1-5.1 42.5-8.2 0 0 .7-5.8-.9-10 0 0-14.2.3-19.5.8s-14.7.1-18.7.4l-7.4-5z" fill="#62baff"/><path d="m118.1 148.4 9.6-13.6-5.3-7.3 7.5-7.4s-2.4-5.3-9.4-17.9" fill="none" stroke="#2082c4" stroke-miterlimit="10" stroke-width="2"/><path d="m124.1 168.3 15.8-3.5s3.2 13.2-3.9 15.7c-7 2.5-11.9-12.2-11.9-12.2z" fill="none" stroke="#2082c4" stroke-miterlimit="10" stroke-width="2"/><path d="m92.8 133c-2.6 1.1-5.4 1.8-8.2 2.1" fill="none" stroke="#2082c4" stroke-miterlimit="10" stroke-width="2"/><path d="m140.3 123.9c-.7 2.7-1.4 4.2-1.5 7-1.1-2-2.1-4-2.9-6.2" fill="none" stroke="#2082c4" stroke-miterlimit="10" stroke-width="2"/><path clip-path="url(#g)" d="m125.5 98.2c8.6 5.6 14.1 14.6 20 23s13 16.7 22.8 19.6c-.1-2-.1-5 .2-6.9-6.1-5.3-10.1-12.2-14.8-18.7s-10.7-12.8-18.5-14.8" fill="#231f20" opacity=".5"/><path d="m117.7 55.4c1.6 2.9 4.6 5 8 5.4" fill="none" stroke="#403a68" stroke-miterlimit="10" stroke-width="2"/><path d="m121.2 55c1.2 1.5 2.9 2.7 4.7 3.5" fill="none" stroke="#403a68" stroke-miterlimit="10" stroke-width="2"/><path d="m111 56.6c-1.9 2.9-4.9 5.2-8.2 6.3" fill="none" stroke="#403a68" stroke-miterlimit="10" stroke-width="2"/><path d="m94.7 77c-.5.9-1 1.8-1.2 2.9-.1 1 .3 2.2 1.3 2.6" fill="none" stroke="#403a68" stroke-miterlimit="10" stroke-width="2"/><path d="m98.3 85.2c-.8 2.8 1.2 6 4.1 6.5" fill="none" stroke="#403a68" stroke-miterlimit="10" stroke-width="2"/><path d="m202.4 293.4-46.2-2.1c-4.7-.2-8.3-4.2-8.1-8.9l10.1-224.9c.2-4.7 4.2-8.3 8.9-8.1l46.2 2.1c4.7.2 8.3 4.2 8.1 8.9l-10.1 224.9c-.2 4.7-4.2 8.3-8.9 8.1z" fill="#bcd3eb"/><path d="m196.1 293.1-46.2-2.1c-4.7-.2-8.3-4.2-8.1-8.9l10.1-224.9c.2-4.7 4.2-8.3 8.9-8.1l46.2 2.1c4.7.2 8.3 4.2 8.1 8.9l-10.1 224.9c-.2 4.7-4.2 8.4-8.9 8.1z" fill="#edf4fc"/><path d="m173.2 226.8-2.8-.1c-6.4-.3-11.3-5.7-11-12l4.7-104.8c.3-6.4 5.7-11.3 12-11l2.8.1c6.4.3 11.3 5.7 11 12l-4.7 104.8c-.3 6.4-5.6 11.3-12 11z" fill="#bcd3eb"/><path d="m174.6 125h4.2v24.2h-4.2z" fill="#ffa25a" transform="matrix(.04498431 -.999 .999 .04498431 31.7703 307.4383)"/><path d="m172.6 168.4h4.2v24.2h-4.2z" fill="#ffa25a" transform="matrix(.04497407 -.999 .999 .04497407 -13.4306 346.9186)"/><path d="m163.6 213.5 4.6-102c.3-6.4 5.2-11.5 11.4-12.2-.7-.1-1.3-.2-2-.3-7.1-.3-13.2 5.2-13.5 12.3l-4.6 102c-.3 7.1 5.2 13.2 12.3 13.5.7 0 1.4 0 2-.1-6.1-1.3-10.5-6.8-10.2-13.2z" fill="#9eb9d8"/><text fill="#2b3990" font-family="'Montserrat-Bold'" font-size="22.0292" transform="matrix(.999 .0449799 -.0449799 .999 190.5067 143.7294)">C</text><text fill="#2b3990" font-family="'Montserrat-Bold'" font-size="11.254" transform="matrix(.999 .0449799 -.0449799 .999 155.6128 85.4818)">COVID-19</text><text fill="#2b3990" font-family="'Montserrat-Bold'" font-size="22.0292" transform="matrix(.999 .0449799 -.0449799 .999 188.547 187.2527)">T</text><path d="m170.9 278.2-2.8-.1c-6.4-.3-11.3-5.7-11-12l.9-19.4c.3-6.4 5.7-11.3 12-11l2.8.1c6.4.3 11.3 5.7 11 12l-.9 19.4c-.3 6.4-5.7 11.3-12 11z" fill="#bcd3eb"/><path d="m161.9 264.9.8-16.7c.3-6.3 5.1-11.4 11.1-12.2-.8-.2-1.5-.3-2.4-.3-7.1-.3-13.2 5.2-13.5 12.3l-.8 16.7c-.3 7.1 5.2 13.2 12.3 13.5.8 0 1.6 0 2.4-.1-5.9-1.4-10.2-6.9-9.9-13.2z" fill="#9eb9d8"/><path d="m172.6 267.1-1.3-.1c-2.9-.1-5.1-2.6-5-5.5l.5-10.6c.1-2.9 2.6-5.1 5.5-5l1.3.1c2.9.1 5.1 2.6 5 5.5l-.5 10.6c-.1 2.9-2.6 5.2-5.5 5z" fill="#9eb9d8"/><path d="m170.1 267-1.3-.1c-2.9-.1-5.1-2.6-5-5.5l.5-10.6c.1-2.9 2.6-5.1 5.5-5l1.3.1c2.9.1 5.1 2.6 5 5.5l-.5 10.6c-.1 2.9-2.6 5.2-5.5 5z" fill="#e6f9ff"/><path d="m220.8 139c0-.6-.2-1.3-.7-1.7.6-.5.9-1.4.8-2.2-.1-.7-.5-1.1-.9-1.2.3-.6.4-1.3-.2-1.8-.7-.5-1.8.1-2.5.5-.4.3-.8.6-1 1.1s-.1 1.1.3 1.4c.1.1.2.1.3.2 0 0-.1.1-.1.1-.5.5-.9 1.1-.8 1.7s1.1 1 1.5.5c-.5.6-1.1 1.4-1.1 2.1 0 .8.9 1.5 1.5 1.1-.4.5-.9 1.2-1 1.8s.2 1.3.8 1.5c.3.1.7-.1 1-.2.6-.3 1.2-.7 1.5-1.3s.2-1.4-.4-1.8c.6-.5 1-1.2 1-1.8z" fill="#ffb6c9"/><path d="m217.3 135.8c-.5 0-1.1-.4-1-1.3.2.1.8.1 1.1.1s.6-.1 1-.3c.3-.1.7-.3.9-.5.6-.5.8-1.1.8-1.3.6.4.5 1.7 0 2.2-.4.4-.9.6-1.3.8s-.8.3-1.3.4c-.1-.1-.1-.1-.2-.1z" fill="#f2759c"/><path d="m217.8 138.7c-.6 0-1.7-.4-1.7-1.5.4.2 1.5.4 2.1.3.5-.1 1-.3 1.5-.6.4-.3 1.3-1.3 1.4-1.6.5.8 0 2.1-.6 2.6s-1.3.7-2 .9c-.4-.1-.6-.1-.7-.1z" fill="#f2759c"/><path d="m218.2 141.7c-.5 0-1.5-.3-1.5-1.3.5.3 1.7.2 2.2 0 .6-.2 1.7-1.1 2-1.6.3 1-.8 2.5-1.6 2.8-.4.1-.8.1-1.1.1z" fill="#f2759c"/></svg>